<?xml version="1.0" encoding="utf-8"?>
<svg xmlns="http://www.w3.org/2000/svg" width="37.189" height="30.25" viewBox="0 0 37.189 30.25">
  <g id="Gruppe_585" data-name="Gruppe 585" transform="translate(-94.737 -155.763)">
    <path id="Ausschluss_2" data-name="Ausschluss 2" d="M1.525,29.25h0a.455.455,0,0,1-.345-.092.442.442,0,0,1-.067-.341,12.616,12.616,0,0,0,0-1.313.285.285,0,0,1,.051-.217.28.28,0,0,1,.213-.059h.013c.344,0,.722.006,1.191.006H4.305a.19.19,0,0,0-.1-.184.4.4,0,0,1-.045-.037c-.408-.41-.823-.824-1.189-1.189l-.007-.007c-.69-.688-1.4-1.4-2.1-2.107A2.961,2.961,0,0,1,.021,22a2.9,2.9,0,0,1,.4-1.844,3.407,3.407,0,0,1,.538-.659L11.829,8.632l.669-.668L19.521.944A3.322,3.322,0,0,1,20.546.236a2.77,2.77,0,0,1,2.23,0,3.272,3.272,0,0,1,1.013.7C27.308,4.447,31.061,8.2,35.261,12.4a3.248,3.248,0,0,1,.7,1.016,2.779,2.779,0,0,1-.01,2.232,3.317,3.317,0,0,1-.706,1.019l-4.491,4.489-.419.419-5.38,5.377c-.045.045-.094.087-.151.136l0,0,0,0-.091.079a.529.529,0,0,0,.262.065l.077,0,.07,0h.859l2.766,0c1.457,0,2.653,0,3.764-.007h.007a.364.364,0,0,1,.275.073.357.357,0,0,1,.059.274c-.022.468-.013.944,0,1.4v.04a.255.255,0,0,1-.047.189.154.154,0,0,1-.116.039.426.426,0,0,1-.056,0,.538.538,0,0,0-.072,0H23.6C15.4,29.241,8.5,29.242,1.525,29.25ZM18.218,9.466a8.672,8.672,0,0,0-1.726.173A8.512,8.512,0,0,0,9.66,17.992a8.634,8.634,0,0,0,.172,1.72,8.518,8.518,0,0,0,6.626,6.635,8.69,8.69,0,0,0,1.723.178h.028a8.551,8.551,0,0,0,1.713-.173,8.465,8.465,0,0,0,3.042-1.282,8.556,8.556,0,0,0,3.087-3.746,8.463,8.463,0,0,0,.5-1.6,8.561,8.561,0,0,0-5.014-9.581,8.414,8.414,0,0,0-3.3-.678h-.016Z" transform="translate(95.238 156.263)" fill="#fff" stroke="rgba(0,0,0,0)" stroke-miterlimit="10" stroke-width="1"/>
    <path id="Pfad_721" data-name="Pfad 721" d="M137.018,375c0,.1-.066.131-.11.175-.68.681-1.364,1.357-2.038,2.044-.139.141-.22.121-.339-.013-.209-.236-.585-.445-.608-.692s.381-.458.6-.682c.488-.5.993-.986,1.48-1.488.136-.14.226-.169.365-.009.164.189.352.358.53.537C136.941,374.913,136.984,374.961,137.018,375Z" transform="translate(-35.218 -198.436)" fill="#fff"/>
    <path id="Pfad_722" data-name="Pfad 722" d="M314.205,195.794a.835.835,0,0,1,.111.078c.226.223.448.449.675.671.091.089.041.148-.026.216q-1.057,1.054-2.112,2.112c-.093.093-.161.093-.239,0-.014-.017-.031-.031-.046-.047-.219-.228-.587-.439-.616-.689-.031-.267.378-.462.6-.687.479-.5.972-.977,1.46-1.464C314.068,195.918,314.133,195.861,314.205,195.794Z" transform="translate(-197.3 -35.99)" fill="#fff"/>
    <path id="Pfad_723" data-name="Pfad 723" d="M433.8,315.98c0,.1-.06.133-.1.177-.687.687-1.378,1.37-2.061,2.061-.116.118-.185.105-.289-.005-.187-.2-.38-.393-.58-.578-.11-.1-.128-.166-.009-.283q1.04-1.021,2.062-2.06c.117-.119.191-.133.308,0,.174.2.368.373.553.559C433.726,315.894,433.767,315.943,433.8,315.98Z" transform="translate(-305.391 -144.697)" fill="#fff"/>
    <path id="Pfad_724" data-name="Pfad 724" d="M232.34,290.827l2.568-3.06c.335.431.653.846.979,1.254.12.15-.013.217-.081.3q-1.083,1.3-2.173,2.587c-.286.34-.287.343.054.63.625.525.626.525,1.148-.1q.842-1.005,1.684-2.011c.249-.3.249-.295.475,0a6.412,6.412,0,0,0,.566.721c.275.269.219.458-.018.72-.5.558-.972,1.148-1.5,1.775a3.654,3.654,0,0,0,1.5-.075,3.6,3.6,0,0,0,2.191-1.94c.1-.189.188-.521.311-.536.187-.022.4.171.6.281.544.3,1.082.616,1.63.91.18.1.231.181.135.377a7.1,7.1,0,0,1-5.053,4.182,6.066,6.066,0,0,1-3.382-.289.353.353,0,0,0-.492.14c-.142.206-.339.374-.479.581s-.245.218-.428.046c-.286-.27-.592-.519-.9-.763-.127-.1-.154-.16-.04-.3.17-.21.5-.4.458-.638-.037-.194-.378-.33-.582-.493a1.076,1.076,0,0,1-.169-.156c-.1-.123-.187-.137-.275.009a.223.223,0,0,1-.043.05c-.185.165-.279.514-.51.508-.191-.005-.378-.266-.562-.42-.225-.189-.59-.36-.629-.585-.045-.262.309-.5.517-.708a.472.472,0,0,0,.062-.673,6.71,6.71,0,0,1,1.025-7.724,15.412,15.412,0,0,1,1.174-1.1c.171-.148.259-.117.376.058q.649.965,1.32,1.915c.1.147.132.23-.039.362a5.569,5.569,0,0,0-1.029,1.006A3.153,3.153,0,0,0,232.34,290.827Z" transform="translate(-121.888 -116.509)" fill="#fff"/>
  </g>
</svg>


