<svg xmlns="http://www.w3.org/2000/svg" viewBox="0 0 109 65">
  <defs/>
  <g id="Isolationsmodus" style="fill: #FFF;">
    <path d="M15 4zM39 60z" class="st0"/>
    <path d="M83 60z" class="st1"/>
    <path d="M68 34zM45 16zM71 44z" class="st0"/>
    <path fill="#FFF" stroke="#FFF" stroke-miterlimit="10" stroke-width="0" d="M71 44s0 0 0 0"/>
    <path d="M82 48h-1v-1l2-3-1-1-2-1-1 1-1 1c-2-3-5-5-9-6 4-3 6-8 5-13 0-5-4-9-8-10-4-2-9-1-12 1l-1 1-2 2-2 6v7l4 5-8 6-2 3-3 5-1 7v1h4v-1-2a18 18 0 015-10l2-2 2-1 1-1 7-2c3 0 6 0 10 2l3 2 2 2 1 1-2 1-1 4c-1 2 0 5 2 6l3 2 2-1c2 0 4-3 4-6l-2-5zM64 36h-5l-5-2-1-3-1-2 1-5c1-3 4-5 7-6 3 0 6 1 8 3l2 4v3l-1 3-1 3-4 2zm14 20h-1c-2-1 0-4 0-4l1-2 1 1 1 3-2 2z" class="st3"/>
    <path d="M46 36v-1l-8-5c4-3 5-8 5-13-1-4-4-8-8-9-4-2-9-1-12 1l-2 1-1 2-3 6 1 7 4 5-7 5-3 4-2 4-2 8v1h4v-1-2a18 18 0 014-9l2-3 2-1 2-1 7-2 9 2 3 2 2 2h1l1-1 1-2zm-13-8l-5 1-5-3-1-2-1-2v-5c2-3 4-6 8-6 3-1 6 1 8 3l2 3v4l-1 3-2 2-3 2z" class="st3"/>
    <g>
      <path d="M93 25v-2h-1-1-1l-1 7v1h-8v4h8v8h4v-8h1l1-1h6v-3h-1-1-2-4v-6zm0-2zm-8 11z" class="st3"/>
    </g>
  </g>
</svg>
