<?xml version="1.0" encoding="utf-8"?>
<svg id="Gruppe_52" data-name="Gruppe 52" xmlns="http://www.w3.org/2000/svg" width="166.547" height="683.447" viewBox="0 0 166.547 683.447">
  <path id="Pfad_257" data-name="Pfad 257" d="M150.391,651.853q0-89.87-.092-179.737a30.417,30.417,0,0,1,3.256-14.082c9.178-18.386,18.318-36.792,31.332-52.905a9.847,9.847,0,0,0,2.267-6.031q2.128-47.034,4.437-94.063c1.009-20.83,2.03-41.66,3.181-62.481.2-3.621.533-6.752-4.13-7.809-3.316-.754-2-3.278-1.4-5.325q3.069-10.535,6.186-21.057c2.072-7.036,4.2-14.086,3.545-21.541-.426-4.819,1.973-7.713,5.747-10.177,14.552-9.5,48.522-9.3,63.02.215,1.963,1.288,1.795,2.659,1.857,4.23.661,16.565,4.877,32.246,11.443,47.4.553,1.272,2.554,3.629.474,4.477-7.247,2.952-4.455,8.957-4.295,13.742,1.69,50.281,3.742,100.552,4.1,150.869.026,3.6.623,6.714,2.962,9.487,1.262,1.5,2.349,3.139,3.473,4.749C317.049,453.8,316.9,453.8,316.8,510.339q-.253,148.8-.179,297.6c0,8.591.1,17.184.1,25.778a18.982,18.982,0,0,1-19.435,19.355q-63.7-.747-127.4-1.568c-15.374-.2-19.648-5.08-19.616-20.649q.187-89.5.05-179Z" transform="translate(-150.268 -169.622)" fill="#b8d8ea"/>
  <path id="Pfad_258" data-name="Pfad 258" d="M222.934,404.03c-18.663,0-37.329-.167-55.986.115-4.871.072-6.768-1.381-5.985-6.149a2.257,2.257,0,0,0,0-.735c-4.178-23.641,7.277-42.518,18.762-61.362a70.028,70.028,0,0,1,7.024-10.3c9.234-10.388,12.45-22.54,10.985-36.045-.675-6.23,2.247-9.136,7.578-11.573a129.311,129.311,0,0,1,40.215-10.617c4.023-.44,4.9.868,5.139,4.672.772,12.213-1.135,24.526,1.6,36.666a32.173,32.173,0,0,0,5.975,13.157c7.683,9.835,13.716,20.836,21.031,30.888,9.088,12.486,7.136,26.4,7.239,40.187.082,11.093.016,11.1-11.266,11.1Q249.086,404.032,222.934,404.03Z" transform="translate(-140.36 -71.017)" fill="#008ec2"/>
  <path id="Pfad_259" data-name="Pfad 259" d="M224.347,529.2c-18.394,0-36.792-.219-55.182.121-6.324.116-9.025-1.107-8.728-8.33.631-15.426.336-30.9.1-46.346-.068-4.453,1.218-5.9,5.792-5.884q57.021.247,114.046-.024c4.819-.026,5.6,1.676,5.549,5.924-.217,16.676-.323,33.36.026,50.03.111,5.289-2.052,5.862-6.443,5.816-18.386-.2-36.776-.084-55.164-.084Z" transform="translate(-140.023 132.377)" fill="#008ec2"/>
  <path id="Pfad_260" data-name="Pfad 260" d="M214.668,492.434c-14.644-.324-31.238-6.815-41.27-24.576-10.54-18.659-9.2-37.461,1.491-55.793,5.344-9.168,12.478-16.967,19.335-24.945,5.8-6.744,10.026-13.362,4.19-22.271-1.967-3.006-.828-5.681,3.012-5.169,32.267,4.309,65.556,24.254,75.576,57.9C288.83,457.281,261.728,492.44,214.668,492.434Z" transform="translate(-134.235 22.203)" fill="#0090bb"/>
  <path id="Pfad_261" data-name="Pfad 261" d="M227.459,212.294c-15.213-2.333-29.077-2.671-42.92-.5-2.978.466-4.007-.768-3.145-3.774,1.877-6.543,3.867-13.073,5.281-19.72.637-2.992,2.5-3.189,4.628-3.639,8.223-1.738,16.531-1.252,24.847-1.107,3.607.062,4.021,2.675,4.224,4.841C221.113,196.217,223.675,203.486,227.459,212.294Z" transform="translate(-119.138 -155.732)" fill="#008fc2"/>
  <path id="Pfad_262" data-name="Pfad 262" d="M182.573,225.126c0-7.823-.064-14.562.032-21.3.038-2.7,2.351-2.826,4.254-3.012a173.18,173.18,0,0,1,32.994.129c1.791.167,5.125.066,4.2,3.451-.659,2.406,1.682,6.1-3.047,7.072A150.419,150.419,0,0,0,182.573,225.126Z" transform="translate(-117.673 -138.862)" fill="#018fc3"/>
  <path id="Pfad_263" data-name="Pfad 263" d="M204.838,365.422c27.632,8,49.618,21.368,57.916,50.325,5.665,19.775-.418,38.959-15.663,50.789-15.189,11.786-38.454,13.354-54.592,3.651a22.468,22.468,0,0,1-4.19-2.922c-.834-.812-2.97-1.31-1.678-3.232a2.9,2.9,0,0,1,3.9-1c2.653,1.244,5.281,2.558,7.844,3.983,6.184,3.441,13.2,3.181,19.855,4.393,3.131.571,6.157-.768,10-5.064-14.24,3.553-17.651-7.924-18.625-14.419-1.091-7.267-5.344-12.383-6.783-18.8-1.391-6.2-4.664-5.1-8.583-3.328-4.94,2.231-8.6,7.313-15.1,6.188-1.722-.3-3.668,4.791-5.685.88-1.5-2.906-2.321-8.543.388-9.538,10.05-3.692,10.595-12.058,12.134-20.337.221-1.184,1.779-2.12,3.071-3.567.973,2.542-1.785,5.38,1.228,6.74,3.1,1.4,3.181-2.187,4.849-3.187.2-.121.31-.43.517-.512,11.63-4.61,10.014-14.25,9.272-23.766C204.5,377.351,204.838,371.949,204.838,365.422Z" transform="translate(-128.261 28.064)" fill="#b8d8ea"/>
  <path id="Pfad_264" data-name="Pfad 264" d="M198.95,408.063c-1.913-.456-4.646,1.732-5.665-1.377-.675-2.062.131-3.895,2.639-4.369-1.037-4.588,5.786-8.605.963-13.525a4.71,4.71,0,0,1-.922-2.6c-.625-5.04,9.8-13.444,14.676-11.941,9.845,3.037,16.933,9.485,22.546,17.868,2.148,3.209,1.35,7.464,4.934,10.516,1.849,1.576,1.807,6.62-2.305,8.69-.94-.283.107-.9-.492-.133-.255.328.113.77.589.926,2.178.953,4.262,1.461,4.536,4.795,1,12.219-1.268,23.41-9.047,33.137-1.336,1.67-2.866,4.142-5.187,3.443-2.679-.808-2.97-4.238-2.793-6.276a12.015,12.015,0,0,0-1.1-6.768c-3.01-6.561-6.682-6.738-12.462-3.374-5.48,3.189-11.728,3.428-15.88-2.213-3.808-5.173-4.112-11.113-.123-16.813,1.887-2.7,1.348-6.877,5.1-8.487,3.965-5.543,8.8-8.866,15.778-5.93C207.72,398.612,203.905,405.252,198.95,408.063Z" transform="translate(-109.157 36.799)" fill="#0090bb"/>
  <path id="Pfad_265" data-name="Pfad 265" d="M194.949,396.485c.924-1.967,1.483-4.25,2.85-5.84,2.809-3.272,5.844-7.576,10.826-3.334,3.143,2.677,5.8.935,8.656.024,1.111-.356,2.114-1.393,3.225-.084a2.033,2.033,0,0,1-.36,3.191c-3.784,1.628-6.825,6.471-11.314,4.648-5.679-2.307-9.52.762-13.881,2.894Z" transform="translate(-105.157 48.377)" fill="#b8d8ea"/>
  <path id="Pfad_266" data-name="Pfad 266" d="M218.414,397.317c-3.581-1.8-6.6-4.252-10.1-8.583a14.061,14.061,0,0,1,10,7.789A.805.805,0,0,1,218.414,397.317Z" transform="translate(-91.661 51.6)" fill="#ddeef5"/>
</svg>
