<?xml version="1.0" encoding="utf-8"?>
<svg xmlns="http://www.w3.org/2000/svg" width="16.234" height="14.195" viewBox="0 0 16.234 14.195"><defs><style>.a,.b{fill:#002e6d;stroke:#002e6d;}.a{stroke-linecap:round;stroke-linejoin:round;}</style></defs><g transform="translate(-408.207 -7388.158)"><path class="a" d="M2.924.668,12.475,0s1.069.043,1.086.85-3.306.6-3.306.6l-9.9.641S-.378,1.208.265.854A7.461,7.461,0,0,1,2.924.668Z" transform="matrix(0.998, 0.07, -0.07, 0.998, 408.9, 7394.481)"/><path class="b" d="M8.2,0l.778.673c.067.431.139.854.2,1.279.122.9.233,1.8.354,2.693.086.636.171,1.271.275,1.9.12.735.193,1.447-.589,1.967L8.5,8.263c-.87-1.99-.59-4.2-1.256-6.292-1.346.512-2.611,1-3.886,1.472-.767.281-1.546.528-2.323.778a.768.768,0,0,1-.86-.292.626.626,0,0,1,.134-.981.642.642,0,0,1,.236-.115c1.729-.282,3.188-1.3,4.845-1.778A3.1,3.1,0,0,0,6.108.724,4.346,4.346,0,0,1,8.2,0Z" transform="translate(418.815 7388.851) rotate(60)"/></g></svg>
