<?xml version="1.0" encoding="utf-8"?>
<svg xmlns="http://www.w3.org/2000/svg" width="44.839" height="54.91" viewBox="0 0 44.839 54.91"><defs><style>.a{fill:#002e6d;}</style></defs><path class="a" d="M179.909,24.167a.418.418,0,0,1,.143-.365v-.1a1.612,1.612,0,0,1-.125-.811,5.791,5.791,0,0,0,.051-1.55c-.022-.1-.03-.2-.141-.257a2.005,2.005,0,0,1-.892-1,.844.844,0,0,0-.741-.519,1.33,1.33,0,0,1-1.041-.7q-.146-.228-.275-.464a.587.587,0,0,0-.665-.286q-.615.069-1.238.086-1.52-.009-3.031-.17c-.407-.03-.807-.123-1.207-.17a9.315,9.315,0,0,1,2.311-.1,4.568,4.568,0,0,0,1.045-.034c.092-.013.192-.037.2-.137s-.087-.159-.174-.168c-.4-.043-.726-.278-1.126-.312-.358-.03-.711-.094-1.069-.124a1.163,1.163,0,0,1-.4-.071,2.828,2.828,0,0,0-1.106-.269c-.571-.011-1.136-.093-1.706-.118-.753-.037-1.505-.1-2.258-.137-.643-.031-1.284-.092-1.926-.137-.67-.043-1.338-.112-2.009-.143a6.377,6.377,0,0,1-1.477-.158,1.386,1.386,0,0,0-.6-.052,3.745,3.745,0,0,1-.91.025c-.679-.064-1.363-.011-2.041-.075a.9.9,0,0,0-.591.217c0,.052.032.068.073.078-.3-.009-.607-.082-.92-.064a5.839,5.839,0,0,1-.962.044c-.072-.009-.171.013-.209-.042-.131-.189-.329-.152-.519-.152a10.052,10.052,0,0,1-1.462-.041,1.5,1.5,0,0,0-.413.01,7.4,7.4,0,0,1-1.314-.033c-.1-.007-.192-.094-.292-.058a5.189,5.189,0,0,1-.93.1c-.148.011-.295-.009-.443-.011.014-.008.032-.008.044-.019.041-.074,0-.12-.059-.165a.279.279,0,0,0-.072-.034.99.99,0,0,0-.2-.049c.065-.051.126,0,.185-.01a.244.244,0,0,0,.076-.015.791.791,0,0,1,.284-.062c.234-.028.494.042.694-.139a3.026,3.026,0,0,1,.266-.265c.063-.17-.044-.232-.2-.259a6,6,0,0,0-1.046-.056,4.037,4.037,0,0,1,1.14-.063.38.38,0,0,0,.188-.031,2.042,2.042,0,0,1,.846-.156.141.141,0,0,0-.135.111c-.023.1.053.154.139.194a.531.531,0,0,0,.19.019,10.969,10.969,0,0,1,1.208.209c.084.252.216.452.559.419a9.619,9.619,0,0,1,1.448-.118.164.164,0,0,0,.192-.113c.018-.1-.094-.107-.148-.158-.094-.089-.283-.022-.326-.122-.07-.158-.176-.136-.309-.121-.038,0-.074-.012-.111-.013a2.951,2.951,0,0,0,.851-.216c.022-.13.172-.216.151-.361a.38.38,0,0,0-.241-.076,4.536,4.536,0,0,0,.506-.049.858.858,0,0,1,.54.135.939.939,0,0,0,.28-.009c.177-.212.421-.154.654-.136a1.445,1.445,0,0,0,.811-.036.239.239,0,0,1,.189-.006,1.3,1.3,0,0,0,.565.047c.238,0,.478-.009.712.008.475.036.951.036,1.426.065.4.025.534-.179.363-.5-.022-.042-.08-.067-.04-.131a.748.748,0,0,0,.046-.442c.006-.258-.111-.364-.386-.4a.788.788,0,0,0-.558.061.2.2,0,0,1-.183.014,1.089,1.089,0,0,0-.919.07c-.062.014-.127.016-.188.035a.238.238,0,0,0-.067.035c-.081.064-.189.027-.276.064-.023.008-.048.015-.072.021a.412.412,0,0,1-.513-.1.215.215,0,0,0-.082-.02,1.936,1.936,0,0,1-.746-.056c-.29.037-.583.045-.875.067-.362.011-.723-.006-1.083.011a.534.534,0,0,1-.35-.116.283.283,0,0,0-.066-.031.222.222,0,0,0-.072-.012l-.072-.006c-.437,0-.875-.01-1.313-.025a13.853,13.853,0,0,0,1.441,0,3.923,3.923,0,0,1,.735,0c.8.024,1.591,0,2.391-.005a.4.4,0,0,0,.307-.084.208.208,0,0,0,.026-.23.24.24,0,0,0-.1-.063.423.423,0,0,0-.114-.037l-.077-.009c-.108-.006-.194-.074-.3-.066a7.932,7.932,0,0,1-1.729,0,.492.492,0,0,0-.216-.01,2.907,2.907,0,0,1-.324.024.1.1,0,0,0,.036-.1.633.633,0,0,0-.2-.129.862.862,0,0,1,.219.138c.146.035.269-.074.41-.059.218.022.293-.082.3-.258a.112.112,0,0,1,.131-.08l.072.007a.584.584,0,0,0,.073.011,5.888,5.888,0,0,1,.714-.068l.075.018a2.356,2.356,0,0,0,.241.107.585.585,0,0,0,.643-.185,1.225,1.225,0,0,0-.7-.366c-.158-.033-.319-.047-.48-.066.6.046,1.206-.014,1.809-.014.753,0,1.5-.16,2.253-.114a2.655,2.655,0,0,0,.436-.057c.245-.029.27-.215.284-.375s-.118-.214-.275-.26a6.049,6.049,0,0,0-1.37-.093,9.659,9.659,0,0,0-1.076.027c.122-.034.285.016.435-.026a3.734,3.734,0,0,1,.977-.1c.35-.005.7.029,1.044.029a.4.4,0,0,0,.343-.127.914.914,0,0,0-.158-.964c-.058-.044-.114-.084-.091-.166.044-.162-.072-.246-.2-.331a.26.26,0,0,0,.141.009c.151-.036.251-.125.238-.268-.017-.167-.171-.145-.3-.145a15.72,15.72,0,0,1-1.61-.014,3.593,3.593,0,0,1-1.03-.044.275.275,0,0,0-.211.036,1.259,1.259,0,0,1-1.1-.07.088.088,0,0,1-.064-.076c.005-.056.06-.056.105-.056a.47.47,0,0,1,.21.056.583.583,0,0,0,.426.041.893.893,0,0,1,.542-.06c.053-.012.1-.047.153-.056.147-.027.278-.074.254-.238s-.159-.2-.324-.212a3.241,3.241,0,0,1-.659-.062.593.593,0,0,1,.376-.037c.133,0,.262-.046.269-.167.009-.156.175-.374-.05-.456a2.566,2.566,0,0,0-.933-.275c-.2,0-.362-.028-.389-.259-.017-.147-.172-.184-.3-.157a4.389,4.389,0,0,1-1.145-.006,9.27,9.27,0,0,1-.983-.127c-.074-.012-.166-.02-.19-.126.772-.119,1.544-.011,2.308-.073a.539.539,0,0,0,.564.442c.21.01.289-.057.267-.246a.345.345,0,0,1,.16-.371.408.408,0,0,0,.191-.419c-.012-.075-.028-.157.058-.2a.441.441,0,0,0,.247-.49c-.009-.1.059-.175.172-.108a.547.547,0,0,0,.546-.021.648.648,0,0,1,.652.025l.016.009a.317.317,0,0,0,.434-.116c.2-.254.251-.28.566-.254-.143-.011-.287.015-.3.153s.1.211.243.23a3.918,3.918,0,0,1,.473.135c.2.054.316,0,.373-.184a3.018,3.018,0,0,0,.15-.842.8.8,0,0,0-.426-.794,1.322,1.322,0,0,1-.477-.448c-.125-.186-.222-.385-.332-.579a.725.725,0,0,0-.526-.371,6.586,6.586,0,0,0-1.036-.152.571.571,0,0,1-.586-.372.988.988,0,0,0-.869-.6c-.465-.079-.934-.069-1.4-.115-.66-.066-1.32-.113-1.982-.126a.621.621,0,0,1-.649-.365.492.492,0,0,0-.391-.285c-.132-.027-.264-.069-.4-.089-1.081-.165-2.15-.387-3.225-.579-1.175-.21-2.353-.4-3.52-.645a16.193,16.193,0,0,0-2.952-.353c-1-.022-2-.125-3-.169-1.248-.055-2.5-.175-3.748-.189-.387,0-.774,0-1.161,0V52.242c.6.005,1.2.009,1.8,0,1.481-.016,2.963,0,4.445.007.956,0,1.912.015,2.868.015,3.19-.008,6.38.033,9.569-.023a21.976,21.976,0,0,0,3.477-.219.505.505,0,0,1,.11-.008c.563.025,1.11-.158,1.675-.112a.454.454,0,0,0,.137-.015c.517-.132,1.059-.068,1.584-.168.282-.052.58-.032.873-.087a10.9,10.9,0,0,1,1.551-.151,1.176,1.176,0,0,0,1.055-.546,2.437,2.437,0,0,0,.179-.282,1.155,1.155,0,0,1,.649-.554c.109-.05.209-.11.319-.15a.423.423,0,0,0,.3-.431.66.66,0,0,1,.537-.678c.17-.043.384-.106.421-.292a6.467,6.467,0,0,1,.281-.893.586.586,0,0,0-.018-.445.593.593,0,0,1,.066-.574,4.181,4.181,0,0,0,.467-2.025.508.508,0,0,0-.048-.158.5.5,0,0,0-.671-.224,1.229,1.229,0,0,1-.672.089.575.575,0,0,1-.468-.262c.233.022.416.142.622.075a.381.381,0,0,1,.441-.1.351.351,0,0,0,.243-.014.334.334,0,0,1,.074-.035c.153-.029.3-.066.264-.252-.028-.164-.167-.158-.309-.184-.245-.045-.495.017-.795-.054a1.7,1.7,0,0,1,.487-.047c.178-.01.3-.068.31-.249s.076-.384-.224-.436a3.965,3.965,0,0,0-.955-.219.221.221,0,0,1-.037,0,.166.166,0,0,1-.163-.168.324.324,0,0,0-.072-.2.5.5,0,0,0,.36.061c.176-.014.288-.066.2-.256l-.008-.017a.253.253,0,0,1,.141-.329c.063-.04.15-.076.15-.14a1.034,1.034,0,0,1,.355-.738c.081-.074-.006-.225.007-.319s.05-.176.172-.068a.43.43,0,0,0,.483.041,7.678,7.678,0,0,1,.987-.274,5.994,5.994,0,0,1,1.446-.107c.273,0,.558.066.712-.269.06-.13.067-.18-.013-.241a1.662,1.662,0,0,1,.46.314.209.209,0,0,0,.064.046.694.694,0,0,0,.434.03,5.4,5.4,0,0,1,.958-.086c.673-.068,1.35-.089,2.023-.168a1.341,1.341,0,0,0,1.186-.762c.013-.031,0,.008.013-.022a.6.6,0,0,1,.683-.351.723.723,0,0,0,.662-.288,2.972,2.972,0,0,0,.474-.676.7.7,0,0,1,.57-.443c.313-.054.6-.2.6-.577a1.164,1.164,0,0,1,.151-.481.708.708,0,0,0,.016-.68.348.348,0,0,1,.035-.382,1.919,1.919,0,0,0,.157-.293,6.32,6.32,0,0,0,.369-3.02,2.536,2.536,0,0,1,.032-1.12,6.117,6.117,0,0,0,.506-2.073,7.935,7.935,0,0,0-.366-3.592l0-.009a.206.206,0,0,1,.077-.282A.5.5,0,0,0,179.909,24.167Zm-25.43-9.946c.141.013.283.012.425.012-.01,0-.02,0-.03,0a5.708,5.708,0,0,1-1.161-.036A3.271,3.271,0,0,1,154.479,14.221Zm-.626.43c.062,0,.156-.039.15.084a.127.127,0,0,0,.039.11,1.582,1.582,0,0,1-.554-.232C153.553,14.7,153.709,14.646,153.853,14.651Zm-.335-.475c-.032-.006-.065-.006-.1-.011l-.037-.008A.5.5,0,0,0,153.518,14.176Zm1.46-2.167h.068a.9.9,0,0,1,.142.046.639.639,0,0,0-.222-.037h-.015C154.988,12.018,154.942,12,154.978,12.009ZM165.3,42.134a6.024,6.024,0,0,1-2.209-.151.143.143,0,0,1-.141-.14c.8-.006,1.594.01,2.394-.016l.005.027a.492.492,0,0,0,.19.287A.382.382,0,0,0,165.3,42.134Z" transform="translate(-135.213 2.636)"/></svg>
