<?xml version="1.0" encoding="utf-8"?>
<svg xmlns="http://www.w3.org/2000/svg" width="51.302" height="54.383" viewBox="0 0 51.302 54.383"><defs><style>.a{fill:#002e6d;}</style></defs><path class="a" d="M-78.748-2.146c-.248.013-.495.026-.744.016-.486-.021-.969.041-1.456.041-.631.006-1.265.046-1.9.066a1.451,1.451,0,0,0-.411-.008,2.378,2.378,0,0,1-.849.048.5.5,0,0,0-.27.015,1.123,1.123,0,0,1-.7.071.906.906,0,0,0-.411.008,2.135,2.135,0,0,1-.656.07,7.994,7.994,0,0,1-1.507.065.163.163,0,0,0-.082.009,2.856,2.856,0,0,1-.792.081,6.852,6.852,0,0,1-1.424.058.3.3,0,0,0-.136.017,2.3,2.3,0,0,1-.9.056.389.389,0,0,0-.217,0,1.115,1.115,0,0,1-.7.069.987.987,0,0,0-.412.015,6.287,6.287,0,0,1-1.608.109,24.592,24.592,0,0,1-3.182-.3c-.687-.06-1.366-.184-2.06-.191-1.1-.01-2.188.1-3.288.046a.552.552,0,0,0-.542.262,6.255,6.255,0,0,0-.488.958,1.95,1.95,0,0,1-.491.721.3.3,0,0,0-.106.223.916.916,0,0,0,.17.65,1.7,1.7,0,0,0,.93.026,2.247,2.247,0,0,1-.482.073l-.08.008a.26.26,0,0,0-.155.045l-.012.016a.2.2,0,0,0,.052.278c.17.16.295.355.47.511a.242.242,0,0,0,.1.056l.079.006a.776.776,0,0,1,.25.11c-.03,0-.061,0-.091,0a.265.265,0,0,0-.048-.007.275.275,0,0,0-.287.261c-.01.182.126.23.29.215a3.618,3.618,0,0,1,.947-.022.426.426,0,0,0-.05.006.188.188,0,0,0-.062.02.232.232,0,0,0-.056.03.449.449,0,0,0-.052.037.775.775,0,0,1-.368.066,1.563,1.563,0,0,0-.812.127c-.085.125-.008.2.1.264a1.492,1.492,0,0,0,.488.148c.309.048.622.084.93.148.213.013.425.007.638.008-.052,0-.1,0-.156,0-.206-.017-.375.14-.586.1a.21.21,0,0,0-.077.024.184.184,0,0,0-.054.057.171.171,0,0,0-.017.074.2.2,0,0,0,.041.1.259.259,0,0,0,.056.048.272.272,0,0,0,.069.019c.011,0,.021.014.032.014.033.016.067.029.1.043.156.065.329,0,.488.046.22-.088.451.018.673-.035a1.363,1.363,0,0,1,.2-.031h.079a.867.867,0,0,0,.294-.052,3.677,3.677,0,0,1-.36.082.15.15,0,0,0-.125.172.159.159,0,0,0,.142.162,1.112,1.112,0,0,0,.2.007c0,.005-.015.005-.015.005-.046.017-.1.02-.1.1s.069.1.133.1c.193.013.393.005.593.005a.355.355,0,0,0,.086-.01.572.572,0,0,1,.407-.158,1.646,1.646,0,0,0,.35-.031c.074,0,.15,0,.223,0s.135-.059.211-.028a1.561,1.561,0,0,0,.755.178,3.252,3.252,0,0,1,.96.019,3.324,3.324,0,0,0-.927.092c-.06.106-.2.133-.27.226a.12.12,0,0,0,.016.069,1.774,1.774,0,0,0,.359.167,5.666,5.666,0,0,0,.83.219.4.4,0,0,0,.119.015.387.387,0,0,1,.194.007,1.345,1.345,0,0,0-.287.067.939.939,0,0,1-.241.032c-.068.009-.134.024-.138.1s.048.082.1.092l-.065.005a.75.75,0,0,1-.08-.015,3.737,3.737,0,0,0-.449,0,7.177,7.177,0,0,0-1.225.087c-.036.006.01,0-.027,0a5.12,5.12,0,0,1-1.093,0,.542.542,0,0,0-.3.041.7.7,0,0,1-.324.047,6.227,6.227,0,0,0-.906.017,1.065,1.065,0,0,0-.555.107.309.309,0,0,1-.305.028c-.09-.048-.21-.089-.28-.029a.653.653,0,0,1-.623.078.518.518,0,0,0-.171.02.341.341,0,0,0-.255.229,1,1,0,0,0,.058.347c.058.235,0,.3-.274.31A2.01,2.01,0,0,1-104,6.8a.425.425,0,0,0-.341.062.6.6,0,0,1-.5.093.921.921,0,0,0-.545.005,2.352,2.352,0,0,1-.832.124,4.908,4.908,0,0,1-1.382.137.115.115,0,0,0-.078.024,1.17,1.17,0,0,1-.85.11.442.442,0,0,0-.342.055.65.65,0,0,1-.522.1,1.027,1.027,0,0,0-.72.083.4.4,0,0,1-.243.036c-.6-.055-1.163.261-1.769.145a.145.145,0,0,0-.1.032,1.043,1.043,0,0,1-.769.106.527.527,0,0,0-.4.046.682.682,0,0,1-.52.1c-.581-.058-1.127.195-1.706.171-.034,0,.008-.006-.024.01a1.051,1.051,0,0,1-.9,0,1.182,1.182,0,0,0-.985-.045.448.448,0,0,1-.161.035c-.6.025-1.182.164-1.775.238a23.527,23.527,0,0,1-3.195.173,2.913,2.913,0,0,1-.436-.051c-.353-.061-.695-.163-1.047-.224-.332-.062-.446.027-.489.338,0,.042,0,.089-.039.114-.228.135-.279.395-.473.551a.514.514,0,0,0-.169.552,1.806,1.806,0,0,0,.173.477,2.925,2.925,0,0,1,.262,1.044,1.371,1.371,0,0,0,.439,1.044.338.338,0,0,1,.12.432.263.263,0,0,0,.091.318.631.631,0,0,1-.218.865.374.374,0,0,0-.323.383,3.771,3.771,0,0,0,.068,1.175,9.4,9.4,0,0,1,.348,1.111,3.084,3.084,0,0,0,.244.977,1.3,1.3,0,0,1,.093.9.258.258,0,0,0,.248.245c-.08.008-.156.016-.236.02a.2.2,0,0,0-.071.04.276.276,0,0,0-.086.135.247.247,0,0,0-.017.194.155.155,0,0,0,.037.069.227.227,0,0,0,.068.042c.211.013.028.162.1.223.063.139.3.131.315.307a.78.78,0,0,0,.747.009,2.137,2.137,0,0,1,.574-.178h.075c.075,0,.15.005.224.005.179,0,.369-.08.532.033a.721.721,0,0,0,.444.107,4.459,4.459,0,0,1,1.182.049,3.348,3.348,0,0,0-.979.034.254.254,0,0,0-.162.1c-.033.069-.123.081-.16.145a.134.134,0,0,0,0,.069.619.619,0,0,0,.643.32,1.32,1.32,0,0,1,.537.057.132.132,0,0,1-.093.133c-.09.031-.263-.023-.231.131.025.124.182.067.282.08h.081c.464-.039.933-.07,1.4-.12.53-.057,1.066-.029,1.6-.067-.725.051-1.451.042-2.178.125a4.821,4.821,0,0,1-1.634.04,6.807,6.807,0,0,0-1.283.094.253.253,0,0,1-.055,0,5.3,5.3,0,0,1-1.069,0,.848.848,0,0,0-.3.042,4.2,4.2,0,0,1-.651.184,8.779,8.779,0,0,1-1.256-.039,5.982,5.982,0,0,0-1.579.12c-.168.019-.336.134-.468-.066-.03-.047-.119-.038-.182-.038-.314.016-.626-.017-.94-.007a.5.5,0,0,0-.416.207,3.543,3.543,0,0,0-.4.69,3.359,3.359,0,0,1-.56.977.419.419,0,0,0-.111.3,1.555,1.555,0,0,0,.531,1.253.547.547,0,0,1,.063.044.65.65,0,0,1,.1.913c-.187.287-.065.457.277.568.044.015.089.023.131.041a.578.578,0,0,1,.111.063.587.587,0,0,1,.13.819,2.336,2.336,0,0,0-.294.454.32.32,0,0,1-.262.2.319.319,0,0,0-.273.252,1.882,1.882,0,0,0-.044.873,10.379,10.379,0,0,0,.562,1.787,2.563,2.563,0,0,1,.023,2.085c-.151.3-.09.419.236.552a1.213,1.213,0,0,0,.235.075c.22.041.284.163.233.351a3.587,3.587,0,0,1-.853,1.617c-.21.217-.221.31-.081.565.046.081.1.158.153.239a.535.535,0,0,1-.007.66c-.149.193-.063.311.2.311h1a2.037,2.037,0,0,1,.578.03,5.81,5.81,0,0,0,2.243.146,13.184,13.184,0,0,1,2.274.025c-.366-.026-.732-.005-1.1.005a9.3,9.3,0,0,0-1.613.166.936.936,0,0,0-.575.27c-.117.144-.077.27.114.3a5.305,5.305,0,0,0,1.2.089c.707-.052,1.4.039,2.1.048.184,0,.346-.123.506-.064a1.839,1.839,0,0,0,.649.035,3.276,3.276,0,0,1,.634-.011c.492-.027.986-.025,1.416-.09-.326.082-.726.018-1.111.1-.067.007-.125.058-.2.038a.34.34,0,0,0-.144-.028c-.2.038-.426.014-.562.2a.316.316,0,0,1-.186.093.265.265,0,0,0-.157.168.119.119,0,0,0,.025.072c.169.154.369.1.569.089a3.937,3.937,0,0,1,.657-.092c.157.01.313-.03.471-.007.06-.013.121-.056.178.008a.257.257,0,0,0,.113.318.375.375,0,0,0,.075.019.488.488,0,0,1,.5.072.363.363,0,0,0,.229.076c.014,0,.028,0,.041,0l-.017,0h-.072c-.034-.008-.067-.017-.1-.027a.337.337,0,0,0-.1-.015,1.646,1.646,0,0,1-.172,0h-.14a.285.285,0,0,0-.071.012,1.1,1.1,0,0,1-.141.029,1,1,0,0,1-.11.009.853.853,0,0,1-.51,0h-.27a2.867,2.867,0,0,0-1.146.107c-.145.093-.18.2-.038.321a5.258,5.258,0,0,0,1.064.042c.79.019,1.575-.112,2.369-.074a.8.8,0,0,0-.108.016.922.922,0,0,0-.207.051.349.349,0,0,0-.07.057c-.007.007-.016.013-.022.018-.148.075-.246-.061-.374-.076a.2.2,0,0,0-.111.027.444.444,0,0,1-.557.007.339.339,0,0,0-.078,0,.206.206,0,0,0-.072.029c-.019.015-.038.03-.056.047a.863.863,0,0,1-.391.031,6.111,6.111,0,0,0-.663-.009.755.755,0,0,0-.082.007,4.248,4.248,0,0,1-.887.053,4.49,4.49,0,0,0-.836,0,3.945,3.945,0,0,0-.944.106c.02-.144-.066-.218-.216-.227a.978.978,0,0,0-.8.158.233.233,0,0,1-.317.015c-.261-.17-.325-.157-.546.063-.047.108-.28.12-.219.255.024.053.08.072.136.092a.575.575,0,0,1-.12-.064c-.133-.189-.3-.118-.456-.131a.163.163,0,0,0-.192.107c-.024.089.043.142.116.174s.172.042.194.125c.053.2.206.174.377.148.012,0,0,.008,0,.008a.2.2,0,0,0-.087.02.194.194,0,0,0-.054.049c-.049.088-.15.166-.074.283.071.091.171.069.271.091.377.085.8-.114,1.149.14.056.04.144,0,.215-.016a2.34,2.34,0,0,1,.3-.047c.619-.075,1.245-.059,1.865-.129a2.708,2.708,0,0,1,.847-.049,2.2,2.2,0,0,0,.849,0c.163-.031.327-.069.449.083a.308.308,0,0,0,.073.016c.134,0,.286.045.4-.029a.643.643,0,0,1,.434-.069c.35.011.695-.045,1.042-.055h.08c.365,0,.732-.027,1.1-.047.071,0,.13-.042.2-.042a.7.7,0,0,0,.078.012.635.635,0,0,0,.213-.019c-.452.081-.452.081-.36.391-.027.04-.057.095-.107.107-.3.072-.537.3-.876.255a.516.516,0,0,0-.191.021c-.081.023-.176.031-.186.123s.081.12.159.147a1.253,1.253,0,0,0,.408.055,6.869,6.869,0,0,0,1.839-.291,5.244,5.244,0,0,1,.62-.128.2.2,0,0,0,.189-.158c.014-.086-.062-.117-.118-.137.2.033.445-.035.638.053a2.015,2.015,0,0,0,.971.087,1.8,1.8,0,0,1,.728.1,2.232,2.232,0,0,0,.743.164c1.241.058,2.476.19,3.716.275,1.257.09,2.515.176,3.77.29.623.057,1.251.064,1.873.125.723.074,1.449.118,2.173.174.369.027.49.1.579.427a2.375,2.375,0,0,1-.122,1.819c-.1.193-.047.336.153.446a1.512,1.512,0,0,0,.277.111c.334.1.384.175.295.481a3.722,3.722,0,0,1-.881,1.606l-.009.007a.384.384,0,0,0-.036.541,2.882,2.882,0,0,1,.185.28.5.5,0,0,1,.053.1.509.509,0,0,1-.273.666,1.974,1.974,0,0,1-.612.227,1.527,1.527,0,0,0-.749.4c-.384.384-.375.566.084.857a.675.675,0,0,1,.379.815c-.074.234.04.358.24.473a3.2,3.2,0,0,0,1.578.39c1.3.015,2.592-.036,3.892-.085a.632.632,0,0,0,.137-.015,9.9,9.9,0,0,1,1.612-.159,10,10,0,0,1,1.728-.131.4.4,0,0,0,.109-.015,9.91,9.91,0,0,1,1.584-.158c.583-.051,1.169-.114,1.755-.151a7.889,7.889,0,0,0,1.149-.093,7.515,7.515,0,0,1,1.62-.116c2.363.005,4.727-.005,7.09-.012Zm-46.471,42.584a1.244,1.244,0,0,0-.244.006.553.553,0,0,1-.309-.037c.073.015.155.02.224.031a.962.962,0,0,0,.374-.031.309.309,0,0,1,.261.04c.105.029.082.124.121.187,0,.005.011.006.015.011A1.165,1.165,0,0,1-125.219,40.438Zm.8.25h0Zm.043,0c.313,0,.618-.052.8-.052C-123.759,40.634-124.063,40.686-124.376,40.685Zm6.055-1.025h-.02a9.653,9.653,0,0,0,1.166-.052A8.433,8.433,0,0,1-118.321,39.66Z" transform="translate(130.05 2.146)"/></svg>
