<?xml version="1.0" encoding="utf-8"?>
<svg xmlns="http://www.w3.org/2000/svg" width="54" height="17.242" viewBox="0 0 54 17.242">
  <path id="Pfad_852" data-name="Pfad 852" d="M356.089,287.677c-.447,1.736-.783,3.051-1.124,4.361-.126.486-.264.96-.4,1.439-.331,1.187-.611,1.415-1.265,1.063-.1-.052-.23-.092-.3,0-.276.362-.566.254-.86.22a20.962,20.962,0,0,1-2.7-.325,2.284,2.284,0,0,0-1.549-.054.326.326,0,0,1-.32-.018c-.508-.349-1.068.141-1.561-.429a.124.124,0,0,0-.156-.044c-.631.448-1.278-.067-1.913.132a.584.584,0,0,1-.319-.058,14.924,14.924,0,0,0-3.047-.28c-.8-.068-1.6-.238-2.407-.359a1.292,1.292,0,0,0-.39-.023,2.775,2.775,0,0,1-1.992-.183c-.074-.044-.17-.076-.234-.014-.319.313-.629.1-.944-.012a2,2,0,0,0-1.338-.071.7.7,0,0,1-.4.015,4.173,4.173,0,0,0-.71-.249c-.205-.014-.414.188-.619.179-.66-.031-1.32-.133-1.98-.172-.343-.02-.688.058-1.031.05-1.066-.026-2.132-.1-3.2-.1-2.387-.009-4.774.019-7.161.02-.859,0-1.718-.05-2.577-.05-.828,0-1.656.036-2.485.05a12.284,12.284,0,0,1-2.328-.011,10.151,10.151,0,0,0-1.686.017q-2.012-.008-4.024-.041a3.336,3.336,0,0,1-2.179-1.046,7.345,7.345,0,0,1-.794-1.175c.231-1.039.438-1.986.653-2.926.08-.351.193-.671.267-1.027.27-1.3.671-2.264,1.382-2.54.25-.1.4-.469.514-.966.191-.855.418-1.677.629-2.512.266-1.051.634-1.712,1.255-1.7.581.006,1.164-.293,1.738.136.57-.3,1.1.008,1.637.4.1.071.213.036.32.033.617-.015,1.234-.013,1.85-.06a1.77,1.77,0,0,0,1.087-.4,1.572,1.572,0,0,1,1.665-.108.443.443,0,0,0,.451,0,.81.81,0,0,1,1.09.077.555.555,0,0,0,.39.135c1.02,0,2.041.017,3.06-.045.908-.055,1.815-.2,2.722-.318a2.974,2.974,0,0,1,1.84.171.383.383,0,0,0,.385-.015,1.75,1.75,0,0,1,1.265-.21,18.326,18.326,0,0,0,2.548-.178c.586,0,1.166-.176,1.753-.133.318.024.64-.134.96-.142.636-.015,1.273.057,1.909.015.6-.039,1.211.178,1.814-.312.373-.3.821-.6,1.191.182a3.143,3.143,0,0,0,1.586.226,2,2,0,0,1,1.109-.124,5.127,5.127,0,0,0,2.474-.194c.361-.066.74.259,1.091-.181.05-.063.152.064.231.089.235.073.476.244.7.19a11.8,11.8,0,0,1,3.516-.043c.639.038,1.278.112,1.917.18.479.051.958.119,1.472.183a7.217,7.217,0,0,1-.425,2.3,24.179,24.179,0,0,0-.7,2.967,18.026,18.026,0,0,1-.48,1.8c-.747.011-1.469.046-2.192.028-1.45-.038-2.9-.118-4.35-.156-1.556-.04-3.111-.052-4.667-.074-.347,0-.694-.007-1.041,0a38.479,38.479,0,0,0-4.331.126c-.806.105-1.6-.077-2.4-.013a7.748,7.748,0,0,0-2.483.295c-.1.043-.232.126-.318.048-.631-.566-1.27.124-1.9-.083-.092-.031-.2.082-.3.129.031.417.172.282.255.284a5.955,5.955,0,0,0,2-.049,1.735,1.735,0,0,1,1.36.148c.5.272,1-.166,1.487.217.461-.305.941-.08,1.413-.222a3.458,3.458,0,0,1,1.366,0c.505.052,1.008.191,1.513.256a20.657,20.657,0,0,0,2.067.193,1.468,1.468,0,0,0,.77-.3c.187-.119.34-.222.53.02.1.131.26.073.393.1.4.076.8.156,1.2.225a3.926,3.926,0,0,1,.642.086c.385.132.749-.826,1.14-.08.4.083.8.179,1.2.246a1.59,1.59,0,0,0,1.036-.031,1.239,1.239,0,0,1,.876-.04c.286.075.559.4.851.013.051-.067.158.013.232.066.888.63,1.072.644,2,.2a.988.988,0,0,1,.479-.084,5.755,5.755,0,0,1,1.043.125c.15.036.3.212.437.349s.281.295.4-.128c.033-.113.185-.112.282-.105a18.9,18.9,0,0,0,2.01.149c1.048-.04,2.081.483,3.13.293C355.369,288.02,355.679,287.886,356.089,287.677Z" transform="translate(-302.089 -277.564)" fill="#002e6d"/>
</svg>
