<?xml version="1.0" encoding="utf-8"?>
<svg xmlns="http://www.w3.org/2000/svg" preserveAspectRatio="none" width="53.66" height="9.777" viewBox="0 0 53.66 9.777">
  <path id="Pfad_859" data-name="Pfad 859" d="M541.837,284.793l-8.443.471c-.023.52.174.566.531.581a23.045,23.045,0,0,1,2.709.247,2.039,2.039,0,0,1,1.015,3.1,1.459,1.459,0,0,1-1.31.443c-2.061-.2-4.122-.391-6.186-.547a11.885,11.885,0,0,0-2,.042c-3.272.311-6.55.51-9.833.669-2.553.123-5.1.423-7.647.622q-2.456.192-4.919.309a3.355,3.355,0,0,1-1.257-.185c-.223-.08-.365-.39-.662-.732a19.966,19.966,0,0,1,3.5-.834c.907-.092,1.82-.13,2.731-.182,1.76-.1,3.52-.192,5.28-.3a1.762,1.762,0,0,0,.482-.178c.049-.473-.285-.251-.453-.3a2.236,2.236,0,0,0-.535-.119c-3.276-.133-6.552-.335-9.829-.364-3.227-.03-6.456.121-9.684.185-.731.014-1.463,0-2.194-.006a3.553,3.553,0,0,1-2.155-.905,10.233,10.233,0,0,1-1.579-1.738,1.748,1.748,0,0,1-.13-1.9,1.45,1.45,0,0,1,1.449-.908c1.826-.058,3.653-.093,5.479-.161s3.645-.183,5.468-.243c3.348-.11,6.7-.185,10.043-.29,2.5-.078,4.988-.212,7.484-.262,4.5-.09,9.005-.135,13.508-.2,2.312-.035,4.625-.045,6.935-.143a3.485,3.485,0,0,1,1.59.257c1.64.712,1.864,1.4.973,2.977C542.109,284.356,542.01,284.508,541.837,284.793Zm-10.5.863a.445.445,0,0,0,0-.083,1.316,1.316,0,0,0-.151-.008c0,.025,0,.071,0,.073A1.436,1.436,0,0,0,531.338,285.656Z" transform="translate(-489.054 -280.96)" fill="#fff"/>
</svg>
