<?xml version="1.0" encoding="utf-8"?>
<svg xmlns="http://www.w3.org/2000/svg" preserveAspectRatio="none" width="764.156" height="564.624" viewBox="0 0 764.156 564.624">
  <path id="Pfad_858" data-name="Pfad 858" d="M63.6,585.411a7.63,7.63,0,0,1-4-1c-1.152-.747-1.851-2.25-3-3-.1-.225,0,.228,0,0,.015-3.551-1.731-7.511-2-11-.262-3.387.108-6.6,0-10-.259-7.926-.722-16.077-1-24-.293-8.426-.58-16.583-1-25-.766-15.324-.608-30.666-1-46-.117-4.653-.886-9.35-1-14-.124-5.156.173-9.847,0-15-.244-7.17-.762-14.833-1-22-.287-8.553-.793-17.447-1-26-.2-8.176.111-15.821,0-24-.09-6.673.043-13.327,0-20-.025-4.153.049-8.85,0-13-.083-7.049-.963-13.954-1-21-.043-8.037.337-15.978,0-24-.259-6.166.068-11.84,0-18-.056-4.783-.358-10.223,0-15,.318-4.261.883-7.72,1-12,.133-4.9-.191-10.1,0-15,.086-2.263-.083-4.74,0-7,.222-5.91.772-12.093,1-18,.278-7.16.407-13.864,1-21,.3-3.647.759-7.369,1-11,.364-5.512.562-11.495,1-17,.21-2.631-.228-4.375,0-7,.614-7.009,1.521-13.985,2-21,.445-6.521.734-13.463,1-20,.031-.753-.09-1.253,0-2,.337-2.868.768-6.122,1-9,.571-7.145,1.481-13.852,2-21,.216-3.007.8-5.989,1-9,.08-1.238,0-2.586,0-4a31.023,31.023,0,0,0-3-1c-2.893-.093-5.1.015-8,0a9.443,9.443,0,0,1-6-2,14.538,14.538,0,0,0-2-1c-.54-2.584.441-4.582,1-7,.34-1.467.608-3.546,1-5a11.261,11.261,0,0,1,2-4,42.171,42.171,0,0,0,3-4c1.766.1,3.265.793,5,1a47.63,47.63,0,0,0,9,0c4.641-.281,9.35-.9,14-1,1.007-.022,2,.068,3,0,8.04-.565,15.966-.179,24,0,5.014.111,9.989.858,15,1a23.718,23.718,0,0,1,3,0c4.246.871,7.73-.074,12,0,5.913.1,12.09-.028,18,0,.127,0,.876-.022,1,0,2.992.593,6,.043,9,0,8.056-.114,15.944.015,24,0,5.413-.012,10.587.015,16,0,12.338-.04,24.662.049,37,0,6.537-.025,13.466-.012,20,0,7.04.015,13.96-.062,21,0,8.553.077,16.45-.1,25,0,3.01.034,5.99.9,9,1,2.64.086,5.36-.093,8,0,3,.1,5.99-.587,9,0a52.22,52.22,0,0,0,8,1c1.5.046,3.5-.074,5,0,3.251.161,5.746-.031,9,0a74.638,74.638,0,0,1,9,1,64.556,64.556,0,0,0,7,0c6.28.111,12.747.423,19,1,2.625.244,5.363.9,8,1,1.5.059,2.521-.55,4,0,.9.333,2-.022,3,0a73.612,73.612,0,0,1,13,1c1.322.278,2.623-.065,4,0,3.248.154,6.758.731,10,1,6.37.528,12.667-.189,19,1a12.5,12.5,0,0,0,3,0c4.428-.182,8.619.6,13,1,.994.093,2.006-.009,3,0,7.92.077,16.108.453,24,1,1.38.1,2.62.889,4,1,2.612.213,5.437-.982,8,0a5.184,5.184,0,0,0,2,0c5.033-.04,10,1.395,15,2,2.7.324,5.271-.374,8,0a172.165,172.165,0,0,0,19,1c2.378.056,4.622.762,7,1,2.588.256,5.465-.509,8,0,4.706.948,9.322-.044,14,1a3.872,3.872,0,0,0,1,0c3.52-.485,6.486,1.08,10,1a36.512,36.512,0,0,1,5,0c.5.052,1.5-.015,2,0,6.512.21,12.476,1.015,19,1,3.112-.006,6.888.778,10,1,.25.015-.247.015,0,0,4.286-.287,8.739.09,13,0,2.411-.052,4.644.836,7,1,5.768.4,12.232-.04,18,0,1.257.009,1.743-.009,3,0,6.666.049,13.337-.139,20,0a116.419,116.419,0,0,1,13,1,21.859,21.859,0,0,1,7,2c.874.445.972.88,2,1,.994.117,2.012,1,3,1,5.57-.019,11.5,1.413,17,2,6.743.713,13.226,1.509,20,2,6.388.46,12.627,1.348,19,2,2.751.281,6.261.645,9,1,5.965.772,11.115,1.787,17,3a12.073,12.073,0,0,1,3,1c3.477,1.692,7.384,3.16,11,5a56.137,56.137,0,0,0-4,4c-1.241,1.235-2.882,2.672-4,4,0,5.07.019,9.97,0,15-.006,2.01.142,4,0,6-.281,3.884-.636,7.122-1,11-.315,3.359-.651,7.641-1,11-.052.5.1.509,0,1-1.812,8.859-3.32,18.117-5,27-1.328,7.031-3.253,13.855-4,21-.862,8.247-1.99,15.768-3,24-.747,6.092-.944,12.964-2,19-1.26,7.2-2.1,13.775-3,21-.932,7.469-1.639,15.478-2,23-.185,3.875-.611,8.131-1,12-.364,3.619-.66,6.378-1,10-.244,2.628-.738,5.375-1,8-.272,2.739-.725,5.261-1,8-.426,4.255-.608,8.745-1,13-.148,1.624-.006,3.367,0,5a64.868,64.868,0,0,1-1,11,23.65,23.65,0,0,0,0,6c.386,6.209-1.592,12.865-2,19-.367,5.524-.858,10.47-1,16a86.66,86.66,0,0,0,0,9c.157,1.924-.639,4.03-1,6a8.327,8.327,0,0,0,0,2c.225,2.8.251,5.391-1,8a2.223,2.223,0,0,0,0,2c.753,1.1.142,1.892,0,3-.3,2.334.112,4.718-1,7-.327.673-.031,2.123,0,3,.09,2.733.436,5.369-1,8a5.734,5.734,0,0,0,0,5c.457.966.222.981,0,2-.3,1.34.028,3.635,0,5-.059,3.023-.645,6.014-1,9-.432,3.594-.812,6.375-1,10-.071,1.377.636,2.678,0,4-.3.624-1.12,2.3-1,3a29.323,29.323,0,0,1,0,9c-.321,2.35.083,4.616,0,7-.059,1.612.229,2.629-1,4-.142.161-1.071.827-1,1,1.025,2.529.343,5.57,0,8-.4,2.847-.694,5.156-1,8-.426,4,.284,7.989,0,12-.148,2.109-1.077,3.8-1,6,.117,3.23-.8,6.767-1,10-.195,3.137.191,5.866,0,9a47.375,47.375,0,0,0,0,5,62.67,62.67,0,0,1-1,14c-.485,2.81-.142,5.135,0,8a50.945,50.945,0,0,1-1,11c-.256,1.51-1.324,3.465-1,5a33.179,33.179,0,0,1,1,4c3.838,2.087,7.156,3.91,11,6-.386.476-.957.741-1,1-.4,2.3-.962,3.715-3,5-.522,2.455-2.6,3.268-4,5-.923,1.139-4.416,2.716-6,3-5.289.954-10.8-.42-16-1-7.988-.892-16-1.237-24-2-6.37-.608-12.633-1.349-19-2-3.625-.37-7.369-.676-11-1-.5-.046-.537.148-1,0-4.372-1.383-9.517-1.559-14-2-4.5-.445-8.541-.312-13-1-5.836-.9-12.158-.885-18-2-5.774-1.1-12.118-1.463-18-2-3.758-.343-7.242-.651-11-1-1.5-.139-2.5.1-4,0-9.152-.6-18.857-1.293-28-2-6.771-.522-13.238-1.389-20-2-4-.361-8.023-.515-12-1-6.74-.818-13.247-.392-20-1-5.373-.488-10.615-.626-16-1-4-.275-8.008-.639-12-1-.877-.077-2.123-.932-3-1-5.885-.469-12.115-.537-18-1-.877-.068-1.123.053-2,0-7.145-.438-14.84-.9-22-1a96.833,96.833,0,0,1-13-1c-2.143-.312-4.86.432-7,0-2.044-.417-3.873.043-6,0a34.645,34.645,0,0,1-5,0c-3.353-.54-6.6-1.411-10-1a49.075,49.075,0,0,1-8,0c-4.264-.247-8.733-.883-13-1-6.163-.17-11.834,0-18,0-27.7-.009-55.3-.028-83,0-7.167.006-14.837-.161-22,0-6.66.148-13.361,1.241-20,1-5.323-.191-9.757.633-15,1-4.644.324-9.39-.438-14,0-7.537.716-15.463.787-23,1-8.145.232-15.861.626-24,1-3.137.145-6.866.793-10,1-5.512.364-10.488.608-16,1-5.141.364-10.859.629-16,1-4.511.327-8.5.617-13,1-.627.052-1.373-.04-2,0-9.035.577-17.972,1.364-27,2-4.264.3-8.751.515-13,1C66.151,582.8,66.126,582.889,63.6,585.411Zm5-25c5.144-.182,10.115.275,15,0,6.262-.355,12.741-1.558,19-2,3.517-.247,6.526-.475,10-1,5.49-.831,11.492-.58,17-1,5.265-.4,10.742-.518,16-1,7.006-.642,13.972-.784,21-1,3.523-.108,6.477.142,10,0,4.52-.182,9.48-.79,14-1,5.527-.256,11.47-.781,17-1,5.9-.232,11.1.222,17,0,6.521-.244,13.479-.744,20-1,3.52-.136,6.48.139,10,0,3.267-.13,6.73-.944,10-1,5.91-.1,12.09.065,18,0,6.154-.065,11.849.025,18,0,5.277-.018,10.726-.043,16,0,2.14.019,4.86.037,7,0,5.641-.1,11.356.077,17,0,3.5-.046,6.492.009,10,0,3.369-.009,6.631-1.059,10-1,8.4.148,16.6.833,25,1,4.026.08,7.974-.1,12,0,7.676.2,16.327.719,24,1,2.513.089,4.49-.1,7,0,8.927.355,18.077.636,27,1,1.365.053,2.663,1.1,4,1,7.312-.516,14.738.642,22,1,6.509.321,12.482.608,19,1,5.518.334,11.488,1.577,17,2,6.635.506,13.362.525,20,1,7.889.565,15.114,1.4,23,2,6.518.5,13.482,1.484,20,2,3.381.269,6.622-.3,10,0,6.75.608,13.25,1.41,20,2,4.882.426,10.115.608,15,1,2.631.21,5.409.528,8,1,3.965.729,8,.6,12,1,5.376.537,10.652,1.03,16,2,2.09.377,3.882.812,6,1,4.258.371,8.742.66,13,1,2.76.222,5.286-.485,8,0,6.064,1.081,12.979,1.657,19,3,.238.056-.222.043,0,0,3.171-.611,6.891-.235,10,0,6.253.469,11.76,1.364,18,2a24.2,24.2,0,0,0,3,0v-2c-.022-9.439.08-19.586,1-29,.256-2.624.9-5.366,1-8,.37-10.189.66-19.811,1-30,.022-.63-.049-1.373,0-2,.67-8.528,1.327-17.472,2-26,.525-6.645.512-13.349,1-20,.719-9.785,1.336-19.212,2-29,.383-5.647.639-11.353,1-17,.621-9.671,1.494-19.323,2-29,.562-10.8,1.169-21.208,2-32,.423-5.524.565-11.479,1-17,.593-7.509,1.364-14.494,2-22,.343-4.008.41-8.032,1-12,.719-4.845.506-10.257,2-15a3.87,3.87,0,0,0,0-1c-.374-7.583.793-14.552,2-22,.139-.871-.077-2.123,0-3,.374-4.255.6-8.748,1-13s1.46-7.754,2-12c.618-4.854,1.166-10.177,2-15,.408-2.347.757-4.564,0-7-.133-.429.926-.506,1-1,.741-4.842,1.228-10.162,2-15s1.154-9.177,2-14c.519-2.97,1.7-6.008,2-9a127.561,127.561,0,0,1,4-23c1.028-3.489,2.132-6.461,3-10,1.136-4.638,1.706-9.405,3-14,1.266-4.486,2.978-9.3,3-14a17.388,17.388,0,0,1,0-3c1.374-6.527,2.66-12.34,3-19a22.6,22.6,0,0,0,0-3c-1.084-.312-2.148-1.173-3-1-3.251.667-6.758-.124-10,0a55.157,55.157,0,0,1-7,0c-3.134-.278-6.869-.722-10-1-4.008-.355-8-.629-12-1-1.121-.1-1.892-.762-3-1-3.06-.652-5.928-1.416-9-2-2.834-.54-6.193-.364-9-1-2.791-.633-5.412-.4-8-2-3.542-.324-6.644-2-10-3a26.715,26.715,0,0,0-5-1c-1.071-.1-1.9.818-3,1-1.454,2.013-3.95,1.818-6,1a6.032,6.032,0,0,0-2,0c-1.127.022-1.873,0-3,0-3.891,0-8.116-.735-12,0a12.827,12.827,0,0,1-3,0c-2.371-.114-4.629.031-7,0-6.509-.083-12.534.266-19-1a3.02,3.02,0,0,0-1,0c-2.124.59-3.894.269-6,0a39.282,39.282,0,0,0-4,0c-2.77-.025-5.233-.13-8,0-2.869.133-6.107-.926-9,0-.531.17-.379.083-1,0-.868-.114-2.129-.963-3-1-4.777-.2-9.226.232-14,0-6.145-.3-12.859-.642-19-1-4.641-.272-9.362-.682-14-1-8.785-.605-17.209-1.487-26-2-9.288-.54-18.734-1.055-28-2-5-.513-9.979.278-15,0-4.774-.262-9.229-.741-14-1-1.877-.1-4.126-.864-6-1-4.011-.29-7.989.244-12,0-7.16-.432-13.84-1.626-21-2-.5-.028-1.5.046-2,0-7.38-.682-14.58-1-22-1-1.26,0-2.743.08-4,0-6.895-.442-14.1-.574-21-1-2.872-.179-5.125-.824-8-1-5.265-.318-10.732-.716-16-1-6.518-.355-13.488-.549-20-1-11.159-.775-21.826-.617-33-1-4.9-.167-10.1-.833-15-1-1.63-.056-3.37.025-5,0-12.579-.191-24.421-.87-37-1-5.527-.056-11.47.932-17,1-7.049.086-13.951-.071-21,0-20.394.195-40.606-.111-61,0-5.91.031-12.087.08-18,0s-12.087-.157-18,0c-6.036.164-11.96-.188-18,0-5.4.17-10.59-.907-16-1-5.793-.1-12.207,0-18,0a22.077,22.077,0,0,0-3,0c-.281,2.835-.772,5.391-1,8-.176,2-.012,5,0,7,.022,3.523-.1,6.477,0,10,.056,2,.429,4.1,0,6-.645,2.853.152,6.233-1,9-.083.2-.043-.244,0,0,.7,3.866,1.3,8.187,0,12a2.276,2.276,0,0,0,0,1,39.808,39.808,0,0,1,0,8c-.244,2.115-1.086,3.866-1,6,.216,5.53.865,11.5,0,17-.469,2.97-.744,6-1,9-.191,2.245-.71,4.771-1,7-.228,1.741.528,3.166,0,5-.506,1.763.108,3.123,0,5-.423,7.281-.592,14.716-1,22-.176,3.137-.812,6.863-1,10-.09,1.5.077,2.5,0,4-.176,3.39-.833,6.61-1,10-.284,5.774.247,12.223,0,18-.207,4.777-.833,9.22-1,14-.1,2.767-.093,5.246,0,8,.2,5.793-.861,12.22-1,18-.114,4.888.127,9.115,0,14-.065,2.513-.031,5.484,0,8,.025,2.137-.046,3.86,0,6,.114,5.4-.012,10.6,0,16,.006,3.628-.6,7.366,0,11a27.025,27.025,0,0,1,0,4c-.031,2.134-.046,3.869,0,6,.077,3.52.728,7.5,1,11,.278,3.628-.182,6.363,0,10,.1,2,.049,4,0,6-.09,3.647.173,7.36,0,11-.269,5.66-.266,11.353,0,17,.157,3.35.979,6.647,0,10a4.059,4.059,0,0,0,0,2c.781,1.569-.006,3.376,0,5,.019,4.52-.253,8.492,0,13a51.65,51.65,0,0,0,1,9,10.728,10.728,0,0,1,0,3,18.856,18.856,0,0,0,0,7,96.672,96.672,0,0,1,1,13c.2,4.23-.08,8.745,0,13,.09,4.656.022,9.344,0,14a7.879,7.879,0,0,0,0,2c1.081,3.7-.2,7.264,0,11,.151,2.745-.034,5.246,0,8,.059,5.027.876,9.976,1,15,.015.627-.238,1.469,0,2,.766,1.7-.025,3.255,0,5,.062,4.53-.025,9.47,0,14a14.151,14.151,0,0,0,1,3c.923,3.224.046,5.752,0,9A43.826,43.826,0,0,0,68.6,560.411Z" transform="translate(-40.447 -35.116)" fill="#008FC3"/>
</svg>
