<?xml version="1.0" encoding="utf-8"?>
<svg xmlns="http://www.w3.org/2000/svg" preserveAspectRatio="none" width="55" height="55" viewBox="0 0 55 55">
  <g id="Gruppe_586" data-name="Gruppe 586" transform="translate(15805 -6226)">
    <path id="Pfad_826" data-name="Pfad 826" d="M38.536,103.257h.227a.9.9,0,0,0,.662,0h.269a.818.818,0,0,0,.472.056,3.918,3.918,0,0,1,.856,0,5.679,5.679,0,0,0,.672,0c.73-.017,1.461.029,2.191.037.606.007,1.212.024,1.818.069.5.038.991.065,1.486.12a5.947,5.947,0,0,0,1.362.1c.558-.067,1.117.007,1.674-.064.472-.061.944.009,1.415-.052.562-.073,1.123,0,1.684-.067.489-.062.978,0,1.467-.05.379-.037.759.016,1.136-.051a.44.44,0,0,1,.444.21c.086.11.182.089.276.083a.813.813,0,0,1,.614.179,1.616,1.616,0,0,1,.406,1.146.633.633,0,0,0,.112.358,7.844,7.844,0,0,1,.492.753,3.99,3.99,0,0,1,.37,1.936c0,.546.007,1.091-.013,1.638-.023.645.009,1.291.026,1.934.022.817,0,1.628-.017,2.44a.475.475,0,0,1-.01.115,2.592,2.592,0,0,0-.052.925c.015.316.01.636,0,.954-.006.231-.045.387-.128.446a.6.6,0,0,1-.2.118c-.053.01-.072.08-.031.2a2.935,2.935,0,0,1,.114.754,1.167,1.167,0,0,0,.091.447,2.477,2.477,0,0,1,.165,1.031c0,.614.023,1.228,0,1.843a6.472,6.472,0,0,0,.019.683,23.051,23.051,0,0,1-.068,2.691c-.013.256-.014.515-.028.771a.771.771,0,0,0,.08.44,1.194,1.194,0,0,1,.079.93,2.964,2.964,0,0,0-.05.294.7.7,0,0,0,.066.541,2.751,2.751,0,0,1,.245.588.779.779,0,0,1,0,.478,4.048,4.048,0,0,0-.094,1.753,15.394,15.394,0,0,1,.095,2.233,4.031,4.031,0,0,0,.073.941,4.657,4.657,0,0,1,.063.837c.047,1.305.078,2.614.029,3.926a4.751,4.751,0,0,1-.153,1.15,1.507,1.507,0,0,0-.056.347c-.051.926-.162,1.258-.49,1.462-.152.094-.3.165-.457.245a.429.429,0,0,0-.166.121.784.784,0,0,0,.306.247,2.58,2.58,0,0,1,.513.178.759.759,0,0,1,.187.169c.179.219.2.329.195.889-.007.431.033.848.045,1.274a10.485,10.485,0,0,1-.046,1.85.608.608,0,0,0,.017.3,1.007,1.007,0,0,1,.035.463c-.039.423-.085.84-.126,1.261-.036.365-.062.733-.08,1.108a1.071,1.071,0,0,0,.11.663,1.732,1.732,0,0,1,.159.5,13.093,13.093,0,0,1,.342,3.1,1.206,1.206,0,0,0,.01.261v1.91c-.022.171-.008.353-.02.529-.029.423-.093.65-.237.713a1.336,1.336,0,0,0-.4.34,1.213,1.213,0,0,1-1,.538,5.3,5.3,0,0,0-.786-.006.968.968,0,0,1-.453-.092c-.192-.095-.384.036-.577.058a.9.9,0,0,1-.185.031,4.2,4.2,0,0,0-1.1.2c-.3.055-.6.135-.9.208a9.449,9.449,0,0,1-2.54.189c-1.958-.056-3.915-.031-5.873-.016-.965.008-1.93.037-2.894.012-1.42-.036-2.84-.022-4.26-.013-.538,0-1.075-.011-1.613.028-.451.033-.9,0-1.352.026-.427.029-.854.024-1.282.027h-2.2c-.517.018-1.033-.027-1.55-.037-.454-.009-.908-.031-1.361-.059a10.789,10.789,0,0,0-1.5-.136c-.737.061-1.475-.014-2.212.061a10.475,10.475,0,0,1-1.654.036c-1.975-.112-3.949-.061-5.924-.031-1.1.015-2.191.009-3.287.045-.266.008-.529-.092-.795-.064-.539.055-1.079.114-1.618.149a5.218,5.218,0,0,1-1.369-.041,5.771,5.771,0,0,0-.868-.013c-.3-.014-.606.038-.909.034a1.379,1.379,0,0,1-.644-.156.448.448,0,0,0-.246-.086,1.773,1.773,0,0,1-1.027-.261.567.567,0,0,0-.3-.041.743.743,0,0,1-.649-.3c-.222-.272-.458-.434-.676-.713a3.741,3.741,0,0,1-.459-2.364c.053-1.322.12-2.641.192-3.958.031-.572.143-1.05.2-1.6a.481.481,0,0,1,.151-.33c.095-.114.1-.219.037-.442a1.9,1.9,0,0,0-.147-.373,2.292,2.292,0,0,1-.211-.916c-.016-.224-.028-.45-.041-.675a4.918,4.918,0,0,0-.131-.961,2.527,2.527,0,0,1-.036-1.046,13.387,13.387,0,0,0,.093-2.574c0-.04,0-.08,0-.119-.019-1.25.058-1.322.377-1.574a4.614,4.614,0,0,0,.356-.313.35.35,0,0,0,.025-.4c-.051-.119-.111-.2-.16-.328a5.248,5.248,0,0,1-.226-1.315c-.034-.388-.043-.786-.056-1.181-.011-.328-.032-.647-.057-.968a1.967,1.967,0,0,1,.122-1.049.653.653,0,0,0,.057-.355c-.027-.38-.028-.8-.087-1.13-.127-.715-.16-1.519-.284-2.231a6.015,6.015,0,0,1-.07-1.014c0-1.511.05-3.018.044-4.529a2.233,2.233,0,0,1,.083-.658,1.079,1.079,0,0,0,0-.594,2.146,2.146,0,0,0-.123-.358,4.08,4.08,0,0,1-.281-1.559c-.008-.437-.016-.873-.016-1.31,0-.231-.016-.453-.034-.677a24.169,24.169,0,0,1,.008-3.747c.018-.235.05-.455.082-.675a1.31,1.31,0,0,1,.307-.813,5.035,5.035,0,0,0,.383-.365.3.3,0,0,0,.046-.324,10.946,10.946,0,0,1-.331-2.707c-.008-.178-.013-.357-.028-.531a12.883,12.883,0,0,1,0-2.029c.052-.727.024-1.486.011-2.231a3.742,3.742,0,0,1,.186-1.431A1.321,1.321,0,0,1,5.941,104c.184-.072.364.009.546.009,2.054,0,4.109.052,6.163-.014,2.347-.076,4.694.03,7.041-.057,2.33-.086,4.66.026,6.989-.064,1.2-.046,2.391,0,3.587-.047.739-.027,1.479-.08,2.218-.146a9,9,0,0,0,1.538-.112A12.673,12.673,0,0,1,36.5,103.4a4.637,4.637,0,0,1,.856-.053c.381.047.76-.081,1.14-.065C38.511,103.286,38.524,103.28,38.536,103.257Z" transform="translate(-15809.445 6122.743)" fill="#002e6d"/>
    <path id="Pfad_827" data-name="Pfad 827" d="M458.988,254.957c-1.951,1.233-3.235,1.434-4.622,2.311-1.664,1.055-3.046,2.684-4.622,3.852a7.456,7.456,0,0,0-2.311,2.311,1.449,1.449,0,0,0,0,1.541,1.712,1.712,0,0,0,2.311.77c.365-.154,1.2.2,1.541,0,3.312-1.939,6.772-4.12,10.015-6.163,4.332-2.733,3.946-7.692-.77-10.015-1.77-.87-3.647-1.4-5.393-2.311-1.564-.822-3.125-2.143-4.622-3.082s-3.168-.823-3.852,0-.293,3.139.77,3.852c2.03,1.358,4.013,2.672,6.163,3.852C455.145,252.728,456.694,253.826,458.988,254.957Z" transform="translate(-16232.321 5998.491)" fill="#fff"/>
  </g>
</svg>
