<?xml version="1.0" encoding="utf-8"?>
<svg xmlns="http://www.w3.org/2000/svg" preserveAspectRatio="none" width="367.543" height="55" viewBox="0 0 367.543 55">
  <path id="Pfad_823" data-name="Pfad 823" d="M232.26,103.257h1.52a38.7,38.7,0,0,0,4.424,0H240c1.046.077,2.1.074,3.156.056,1.908-.034,3.814-.029,5.722,0,1.5.022,2.994.009,4.492,0,4.88-.017,9.76.029,14.643.037q6.073.01,12.151.069c3.31.038,6.622.065,9.931.12,3.036.05,6.071.155,9.1.1,3.731-.067,7.462.007,11.186-.064,3.154-.061,6.308.009,9.458-.052,3.753-.073,7.508,0,11.254-.067,3.27-.062,6.538,0,9.8-.05,2.533-.037,5.071.016,7.593-.051a13.566,13.566,0,0,1,2.97.21,9.659,9.659,0,0,0,1.842.083,31.019,31.019,0,0,1,4.106.179c1.384.173,2.373.517,2.713,1.146.1.184.36.283.746.358,1.134.219,2.211.483,3.29.753,1.761.439,2.428,1.113,2.472,1.936a5.564,5.564,0,0,1-.086,1.638,4.687,4.687,0,0,0,.175,1.934,7.737,7.737,0,0,1-.112,2.44.122.122,0,0,1-.07.115c-.621.275-.452.6-.349.925a2,2,0,0,1,.013.954c-.039.231-.3.387-.853.446-.447.047-.888.1-1.351.118-.358.01-.478.08-.206.2a1.245,1.245,0,0,1,.759.754c.057.191.254.334.608.447.8.256,1.094.592,1.1,1.03a6.037,6.037,0,0,1-.02,1.843,1.045,1.045,0,0,0,.125.683c.382.914-.14,1.8-.456,2.691-.09.256-.1.515-.184.771-.066.193.118.334.537.44.991.253,1.127.52.529.93a1.46,1.46,0,0,0-.331.294c-.23.293-.173.39.439.541a8.419,8.419,0,0,1,1.638.588c.331.158.371.318.033.478-1.1.525-1.2,1.127-.625,1.753a2.7,2.7,0,0,1,.634,2.233.922.922,0,0,0,.487.941c.388.248.355.553.423.837a8.165,8.165,0,0,1,.2,3.926,1.718,1.718,0,0,1-1.024,1.15.706.706,0,0,0-.375.347c-.342.926-1.086,1.258-3.275,1.462-1.013.094-2.038.165-3.055.245a10.354,10.354,0,0,0-1.108.121,16.8,16.8,0,0,0,2.042.247c1.141.065,2.3.073,3.426.178.43.04.847.095,1.25.169,1.2.219,1.355.329,1.3.889a4.6,4.6,0,0,0,.3,1.274,1.762,1.762,0,0,1-.307,1.85c-.108.108-.108.219.114.3.355.132.34.288.235.463-.259.423-.57.84-.844,1.261a4.544,4.544,0,0,0-.533,1.108c-.1.3.057.522.735.663a2.9,2.9,0,0,1,1.062.5c1.507.93,2.294,1.96,2.288,3.1,0,.086-.059.179.066.261v1.91c-.149.171-.05.353-.132.529-.191.423-.621.65-1.584.713a26.472,26.472,0,0,0-2.641.34,35.658,35.658,0,0,1-6.67.538c-1.746-.036-3.5-.009-5.251-.006-1.013,0-2.018-.017-3.025-.092-1.283-.095-2.568.036-3.856.058-.41.008-.825.037-1.239.031-2.47-.033-4.911.136-7.367.2-2,.055-3.99.135-5.986.208-5.648.207-11.311.212-16.972.189-13.083-.056-26.164-.031-39.245-.016-6.446.008-12.895.037-19.341.012-9.488-.036-18.977-.022-28.465-.013-3.593,0-7.185-.011-10.776.028-3.014.033-6.025,0-9.034.026-2.856.029-5.709.024-8.565.027h-14.7c-3.452.018-6.9-.027-10.359-.037q-4.547-.014-9.1-.059c-3.336-.029-6.67-.176-10-.136-4.926.061-9.857-.014-14.779.061q-5.527.084-11.05.036c-13.2-.112-26.392-.061-39.587-.031-7.321.015-14.645.009-21.966.045-1.774.008-3.538-.092-5.312-.064-3.6.055-7.207.114-10.813.149-3.047.029-6.1.05-9.146-.041-1.928-.057-3.867,0-5.8-.013-2.024-.014-4.049.038-6.073.034-1.448,0-2.88-.045-4.3-.156-.542-.043-1.09-.1-1.643-.086-2.318.049-4.6-.089-6.865-.261-.665-.05-1.331-.045-2-.041a23.582,23.582,0,0,1-4.338-.3c-1.485-.272-3.058-.434-4.518-.713-2.279-.434-3.371-1.233-3.066-2.364.358-1.322.8-2.641,1.283-3.958.208-.572.954-1.05,1.307-1.6.132-.2.6-.257,1.009-.33.632-.114.691-.219.25-.442a5.131,5.131,0,0,0-.983-.373,2,2,0,0,1-1.41-.916c-.107-.224-.184-.45-.276-.675a1.8,1.8,0,0,0-.873-.961c-.577-.32-.636-.7-.243-1.046A2.365,2.365,0,0,0,7.1,141.4a1.152,1.152,0,0,1-.024-.119c-.127-1.25.388-1.322,2.52-1.574q1.2-.141,2.378-.313c.6-.087.654-.23.164-.4-.338-.119-.744-.2-1.068-.328a2.7,2.7,0,0,1-1.511-1.315,3.839,3.839,0,0,1-.373-1.181,3.836,3.836,0,0,0-.379-.968c-.213-.408-.134-.8.818-1.049.3-.08.454-.2.384-.355-.178-.38-.189-.8-.579-1.13-.851-.715-1.07-1.519-1.9-2.231a1.253,1.253,0,0,1-.469-1.014c-.007-1.511.336-3.018.294-4.529-.007-.246.171-.472.557-.658.408-.2.364-.391.029-.594a4.3,4.3,0,0,0-.825-.358c-1.16-.4-1.8-.9-1.88-1.559a10.141,10.141,0,0,1-.105-1.31,1.5,1.5,0,0,0-.226-.677,3.855,3.855,0,0,1,.055-3.747,3.008,3.008,0,0,1,.551-.675,3.258,3.258,0,0,1,2.053-.813c.864-.1,1.706-.24,2.557-.365.395-.058.654-.163.3-.324a3.6,3.6,0,0,1-2.215-2.707,2.351,2.351,0,0,0-.186-.531,2.059,2.059,0,0,1,.015-2.029,3.9,3.9,0,0,0,.072-2.231c-.064-.557.178-1.016,1.246-1.431A16.915,16.915,0,0,1,14.442,104c1.23-.072,2.435.009,3.65.009,13.728,0,27.458.052,41.184-.014,15.685-.076,31.369.03,47.049-.057,15.57-.086,31.139.026,46.7-.064,7.99-.046,15.981,0,23.971-.047q7.412-.041,14.823-.146c3.428-.045,6.874.021,10.278-.112,5.523-.217,11.043-.11,16.564-.164,1.906-.018,3.816-.088,5.718-.053,2.546.047,5.078-.081,7.62-.065A.916.916,0,0,0,232.26,103.257Z" transform="translate(-4.445 -103.257)" fill="#fff"/>
</svg>
