<?xml version="1.0" encoding="utf-8"?>
<svg xmlns="http://www.w3.org/2000/svg" preserveAspectRatio="none" width="1650.636" height="472.102" viewBox="0 0 1650.636 472.102">
  <path id="Pfad_863" data-name="Pfad 863" d="M1016.928,227.427h1.235a25.873,25.873,0,0,0,7.452,0h8.7a7.137,7.137,0,0,0,3.019.2c11.065.023,22.142-.133,33.208.047,18.9.313,37.809.164,56.719.234,10.19.031,20.414-.055,30.6.016,19.83.133,39.661.015,59.48.18,14.051.117,28.034,1.149,42.063,1.625,11.245.375,22.445,1.266,33.7,1.454a235.951,235.951,0,0,1,33.129,3.032c13.1,2.079,26.317,3.736,39.5,5.533,12.064,1.649,24.061,3.556,36.193,4.971,1.526.172,3.008.531,4.523.766,2.042.32,3.614,1.032,4.388,2.446,1.291,2.321,3.715,3.087,7.283,3.134,7.429.109,14.836.516,22.243,1.078,5.23.4,10.493.3,15.723.985,4.657.61,8.125,1.9,9.752,5.15,1.066,2.118,3.165,3.126,6.577,3.2a94.88,94.88,0,0,1,11.627,1.305,8.389,8.389,0,0,1,5.9,3.181c1.234,1.665,2.323,3.376,3.726,4.971a13.96,13.96,0,0,0,5.353,3.845c3.827,1.547,4.837,4.087,4.781,6.815a20.538,20.538,0,0,1-1.683,7.229c-.64,1.571-1.9,2.04-4.186,1.579a53.238,53.238,0,0,0-5.308-1.157c-1.549-.164-2.873-.79-2.727-1.977.168-1.313,1.762-1.407,3.322-1.313-3.535-.227-4.108-.039-6.352,2.18a4.24,4.24,0,0,1-5.05.922,9.241,9.241,0,0,0-7.317-.211c-2.009.672-3.939,1.188-6.127.18-1.268-.578-2.031.047-1.93.93.179,1.79-.3,3.267-2.772,4.2-.965.367-.786,1.071-.651,1.751.3,1.469-.471,2.751-2.144,3.6s-2,1.876-1.8,3.189c.247,1.626-.64,2.2-3,2.11q-5.3-.2-6.33-3.79c-8.574.531-17.238-.391-25.9.625.269.907,1.3.977,2.132,1.079,3.659.422,7.272.969,11.032,1.094,4.3.148,8.529.766,12.85.055,1.437-.234,3.176.086,3.367,1.344.3,1.985,2.121,2.243,4.365,2.219,3.861-.039,7.1,1.407,10.471,2.36,2.525.7.662,2.595.561,3.915-.079,1.039-1.526,1.454-3.019,1.43-1.279-.023-2.6-.391-4.22.32a46.269,46.269,0,0,0,7.4.531c1.852.117,3.344.414,3.636,1.821.292,1.43-1.2,1.813-2.851,2.04-.606.078-1.111.375-1.717.484a12.96,12.96,0,0,0-6.083.516A8.345,8.345,0,0,1,1457,320.5a6.525,6.525,0,0,0-2.357-.477c-.505.016-1.111.016-1.178.485-.045.3.337.539.718.649,4,1.2,8.013,2.29,12.3.6a3.918,3.918,0,0,1,2.368-.312c3.8,1.141,7.71.086,11.559.375,6,.445,12.042.148,18.068.117,1.448,0,3.176-.188,3.333,1.243.146,1.227-.976,1.993-2.671,2.3a3.673,3.673,0,0,1-1.583-.078c1.437.727,2.738,1.454,2.222,2.837-.258.7.37,1.047,1.021,1.422,2.458,1.422,3.535,6.526,1.773,8.277-.943.938-2.368,1.086-3.849,1.094-3.906.023-7.789-.289-11.716-.25a54.3,54.3,0,0,0-10.965.867c-1.683.36-3.513-.07-4.882.227,3.793-.156,7.934-.414,12.075-.234,5.129.227,10.325-.32,15.375.8,1.762.391,3.243.836,3.086,2.235-.146,1.43-.438,2.97-3.187,3.22a36.674,36.674,0,0,1-4.893.492c-8.484-.391-16.834.961-25.285.977-6.79.016-13.624.524-20.358.117a105.538,105.538,0,0,0-11.582-.289c5.185-1.078,11.032.664,17.025.86,2.839.094,5.578,1.618,7.811,3.142-1.145,1.493-4.624,2.274-7.216,1.586-.943-.25-1.818-.6-2.7-.922-.281-.055-.561-.109-.842-.156-2.716-.141-5.331.484-8.013.586a7.025,7.025,0,0,1-.819-.094c-.269-.023-.539-.047-.808-.063-.752-.039-1.257.172-1.47.688-.079,1.509-.92,2.407-3.356,2.212-1.582-.125-2.963.8-4.6.508-1.2-1.016-2.929-1.344-4.613-1.727-.247,0-.505-.008-.763-.008-.4-.062.112.078-.3.078-.224-.008-.168,0,.169,0a8.647,8.647,0,0,1,5.319,1.563c.191.617-.258.977-1,1.211a4.126,4.126,0,0,1-.831.125,23.869,23.869,0,0,0-3.737-.156,40.753,40.753,0,0,0,8.8-.508,7.2,7.2,0,0,1,2.424.086c6.464.946,12.928.156,19.4.015,1.19-.07,2.155.516,3.311.571l.864.078a6.161,6.161,0,0,1,1.279.32,3.033,3.033,0,0,1,1.178.539c.561.7.2,1.344-.292,1.977-.92.742-2.29.711-3.445.719-8.944.047-17.889.25-26.833.047a59.252,59.252,0,0,0-8.249.023c-5.376.383-10.774.039-16.172-.016,4.916.125,9.831.242,14.735.211.269.016.539.039.808.055a3.42,3.42,0,0,1,.808.1,3.73,3.73,0,0,1,.741.266,7.191,7.191,0,0,0,3.928.993c4.04-.148,8.091.016,12.154-.094,3.277-.188,6.565-.258,9.82-.578a28.305,28.305,0,0,0,8.372.477,3.237,3.237,0,0,1,.92.172c1.538,1.485,3.558,1.469,5.757.867.269-.055.55-.109.808-.18.976-.32,2.188-.016,3.1-.547a3.236,3.236,0,0,1,.752-.3c.685-.164,1.414-.18,2.11-.3a15.641,15.641,0,0,1,10.314-.6,2.88,2.88,0,0,0,2.054-.117c1.964-.946,4.1-.742,6.262-.524,3.086.313,4.4,1.219,4.332,3.415-.034,1.266.494,2.61-.516,3.8-.449.547.2.766.449,1.125,1.919,2.8.393,4.549-4.074,4.338-5.331-.25-10.673-.25-16-.555-2.626-.148-5.32-.078-7.991-.07-2.155,0-4.276.313-6.341-.406a3.454,3.454,0,0,0-2.121.055c-2.985,1.024-6.038.625-9.1.313-2.615-.156-5.353-.656-7.34,1.165a13.647,13.647,0,0,1-3.142.078c-1.93-.61-3.726-1.563-6.06-1.157-4.3.735-8.664.446-13.018.344-3.053-.07-6.06-.735-9.169-.211a7.141,7.141,0,0,1-3.12-.336c.157.031.337.055.415.07,5.4,1.375,10.908.281,16.307.586,1.908.109,3.928-.383,5.623.625.236,1.243-1.448,1.985-1.695,3.1-3.647.672-6.913,2.29-10.942,2.016-1.436-.094-2.851-.078-2.75-1.43.067-1.055-.988-.7-1.683-.719-1.616-.047-3.367.383-4.1-.328,3,1.282,6.61,2.829,11.167,2.431,1.493-.125,2.682-.32,3.468,1.039.483.86,2.6.281,3.659,1.047.606.438,1.863.531,1.661,1.36-.2.766-1.212,1.032-2.155.969-5.51-.36-10.83.758-16.25,1.016-3.849.282-5.331-1.43-6.273-3.595-4.5-.664-8.956-1.516-13.557-1.8a7.7,7.7,0,0,1-2.132-.164c-.965-.344-1.818-.8-1.56-1.665.247-.829,1.1-1.165,2.323-1.032.819.086,1.65-.008,2.11.07-3.984.031-8.428-.477-12.412,1.344a5.3,5.3,0,0,1-2.11.266c-4.714-.031-9.45-.3-12.794.539a88.1,88.1,0,0,1,11.739.477c1.751.234,2.952.766,2.244,2.22a32.8,32.8,0,0,0-2.985,2.274c-2.222,1.555-5.163.954-7.788,1.2a11.437,11.437,0,0,0-3.187.531,3.42,3.42,0,0,1-.853.133c-.662.071-1.347-.352-2.076.086a14.382,14.382,0,0,1,2.289.422,3.7,3.7,0,0,1,.808.289c.64.383,1.167.781.662,1.415a2.311,2.311,0,0,1-1.246.414c-11.111-.727-22.255-.938-33.41-.922,5.69.008,11.391-.078,17.081.188,3.558.164,7.115.242,10.673.359,3.793.117,7.553.7,11.38.219,3.457-.43,7.048.086,10.437-.828,1.1-.3,2.155.438,3.277.5a107.96,107.96,0,0,0,14.747.281,22.472,22.472,0,0,1,4.635-.086c5.454.7,10.942.258,16.407.352,2.132.039,4.354-.32,5.825,1.305.426.469,1.537.281,2.346.36,3.591-.227,7.238.3,10.8-.375,3.928-.172,7.732.719,11.548.625h-.034c-.37,0-.629-.008-.92-.016-.64-.078-1.178-.188-1.167-.742a12.035,12.035,0,0,1,6.633-1.86c7.609.547,15.285.094,22.905.641a54.45,54.45,0,0,0,10.213-.219,20.262,20.262,0,0,1,6.711.445c5.376,1.188,11,1.149,16.576,1.352,7.531.266,15.027.836,22.546,1.227,7.2.383,14.4.907,21.615,1.18,8.451.32,16.89.9,25.341,1.18,6.4.211,12.738.915,19.146,1.016a39.9,39.9,0,0,1,12.412,2.306,16.686,16.686,0,0,0,4.523.61c4.018.258,7.979.8,12,1.063,4.455.289,8.181,2.305,12.637,2.681.976.078,2.043.586,1.953,1.446-.1.883-1.212,1.063-2.267,1.18a66.676,66.676,0,0,1-11.728.289,137.015,137.015,0,0,0-25.935.875c4.545.406,9.012,1.2,13.546,1.461,11.324.641,22.6,1.688,34.016,1.462q6.986-.141,13.894-.735c3.322-.289,5.836.2,7.463,2.454.965,1.344,2,2.681,3.086,3.986a15.518,15.518,0,0,0,11.683,6.049c4.051.289,6.655,1.774,8.316,4.455a19.708,19.708,0,0,0,10.011,8.558c1.246.485,1.336,1.336,1.582,2.2,1.268,4.47-.28,8.87-.572,13.3a10.987,10.987,0,0,0,1.4,6.963v.867c-1.47.813-1.526,1.985-1.6,3.134a4.085,4.085,0,0,1-2.536,3.752,1.571,1.571,0,0,0-.808,2.5c5.791,10,4.523,20.429,4.108,30.831-.236,6.213-2.682,12.013-5.679,17.8-1.616,3.111-.606,6.393-.359,9.613.673,8.792.729,17.545-4.141,25.924a16.04,16.04,0,0,1-1.762,2.517,2.434,2.434,0,0,0-.393,3.282c1.391,1.977,1.032,3.908-.18,5.838a8.422,8.422,0,0,0-1.695,4.126c.034,3.267-3.221,4.486-6.756,4.955-3.479.461-5.162,1.766-6.4,3.8a26.614,26.614,0,0,1-5.319,5.8,9.32,9.32,0,0,1-7.429,2.47c-3.636-.328-6.217.641-7.665,3.017-.157.258.011-.078-.146.188-2.458,4.142-7.014,5.963-13.31,6.542-7.553.68-15.151.875-22.7,1.438-3.569.273-7.2-.024-10.751.734a10.036,10.036,0,0,1-4.871-.258,2.269,2.269,0,0,1-.718-.4,19.9,19.9,0,0,0-5.163-2.7c.9.523.819.953.146,2.071-1.728,2.876-4.927,2.337-7.991,2.306a87.972,87.972,0,0,0-16.228.922,109.853,109.853,0,0,0-11.077,2.352c-2.009.578-3.76.774-5.421-.352-1.369-.93-1.784-.227-1.93.586-.18.914.83,2.1-.078,2.735a8.292,8.292,0,0,0-3.984,6.338c-.056.547-.976.891-1.683,1.2-1.6.711-2.2,1.719-1.493,2.97.931,1.634-.325,2.079-2.3,2.2-3.6.219-6.318-1.219-6.677-3.509-8.933.219-17.878.086-26.867.141.135.961.909,1.118,1.582,1.2,8.193,1.071,16.318,2.571,24.791,1.3,2.851-.43,3.76.07,4,2.1.123,1.1,1.077,1.462,2.188,1.414,3.883-.172,7.093,1.391,10.718,1.884,3.322.445,2.581,2.188,2.514,3.743-.067,1.594-1.481,2.048-3.479,2.134a25,25,0,0,0-5.465.406c3.367.61,6.172.078,8.922.461,1.594.219,3.154.172,3.468,1.578.359,1.594-1.246,1.915-2.963,2.165a4.716,4.716,0,0,0-.83.3,5.035,5.035,0,0,1-2.727.117c-2.076-.742-3.5-.055-4.949.828-2.312.578-4.365-.453-6.98-.641a7.094,7.094,0,0,0,5.252,2.251,17.548,17.548,0,0,0,7.542-.766c3.423-1.274,8.08.578,8.069,3.275a29.181,29.181,0,0,1-5.241,17.382c-1.178,1.657-1.807,3.15-.741,4.924a3.967,3.967,0,0,1,.2,3.821,47.068,47.068,0,0,0-3.154,7.667c-.415,1.594-2.817,2.134-4.725,2.509-4.343.868-5.836,3.025-6.027,5.823-.112,1.758-.92,3.009-3.4,3.7-1.234.344-2.357.9-3.58,1.29-3.165,1.016-5.858,2.415-7.283,4.759a20.082,20.082,0,0,1-2.009,2.423c-2.671,3.157-6.24,4.517-11.84,4.689a159.991,159.991,0,0,0-17.406,1.3c-3.288.469-6.632.3-9.8.75-5.892.852-11.975.313-17.777,1.446a6.333,6.333,0,0,1-1.537.133c-6.341-.391-12.48,1.18-18.8.961a8.05,8.05,0,0,0-1.234.07c-12.895,1.751-25.969,1.7-39.021,1.876-35.789.477-71.589.125-107.389.2-10.729.024-21.458-.094-32.187-.125-16.632-.054-33.264-.2-49.885-.062-16.553.133-33.1-.133-49.638-.281q-22.019-.211-44.038-.539c-15.386-.25-30.772-.672-46.17-.828q-25.419-.27-50.839-.852c-13.535-.3-27.08-.43-40.6-.82-16.531-.469-33.073-.555-49.593-.907-14.679-.3-29.347-.617-44.015-.844-15.5-.242-30.986-.727-46.5-.9-17.148-.18-34.308-.531-51.456-.836-16.43-.289-32.86-.641-49.29-.852-66.528-.852-133.056-.172-199.572-.274a110.069,110.069,0,0,0-18.181.993c-4.175.688-8.63.594-12.895.8-6.576.321-13.153.875-19.7,1.3-5.9.375-11.963.25-17.777,1.352a5.376,5.376,0,0,1-1.223.133c-6.543-.352-12.984.625-19.393,1.125-6.015.469-12.188.149-18.091,1.368a9.108,9.108,0,0,1-1.537.133c-14.556.422-29.112.883-43.679.727a44.853,44.853,0,0,1-17.709-3.345c-2.256-.984-3.524-2.055-2.693-4.056,1.257-3.063-.662-5.252-4.253-6.995-5.151-2.5-5.252-4.064-.943-7.354a19.221,19.221,0,0,1,8.406-3.462,26.454,26.454,0,0,0,6.868-1.946c3.614-1.743,4.388-3.775,2.469-6.541a26.123,26.123,0,0,0-2.076-2.407c-1.493-1.657-1.481-3.149.505-4.7a30.7,30.7,0,0,0,9.887-13.786c1-2.626.438-3.244-3.311-4.127a19.281,19.281,0,0,1-3.109-.953c-2.222-.946-2.884-2.173-1.717-3.83,3.558-5.072,3.243-10.324,1.369-15.615-1-2.845-2.357-3.431-6.5-3.665-8.125-.477-16.273-.883-24.387-1.493-6.98-.523-14.028-.586-21.02-1.071-14.084-.977-28.2-1.759-42.309-2.485-13.916-.727-27.776-1.86-41.7-2.36a31.571,31.571,0,0,1-8.339-1.407,26.029,26.029,0,0,0-8.17-.875c-3.692.11-7.295.516-10.9-.75-2.166-.758-4.9-.172-7.16-.453.629.172,1.482.438,1.324,1.18-.168.813-1.01,1.235-2.121,1.352-2.357.258-4.669.641-6.958,1.1-6.745,1.36-13.535,2.579-20.638,2.5a17.823,17.823,0,0,1-4.579-.469c-.875-.234-1.9-.469-1.784-1.258s1.178-.883,2.087-1.055a7.69,7.69,0,0,1,2.144-.18c3.8.4,6.509-1.571,9.831-2.188a2.252,2.252,0,0,0,1.2-.922c-1.032-2.665-1.032-2.665,4.04-3.353a9.014,9.014,0,0,1-2.39.164c-.292-.039-.584-.078-.875-.1-.786,0-1.448.32-2.222.359-4.13.172-8.249.422-12.379.406-.3-.008-.606-.016-.9-.039-3.894.086-7.766.571-11.694.469-1.683-.062-3.288-.227-4.871.594-1.223.633-2.929.219-4.433.25a4.113,4.113,0,0,1-.819-.133c-1.369-1.305-3.21-.977-5.039-.711a32.18,32.18,0,0,1-9.528.024c-3.21-.493-6.386.156-9.505.422-6.958.6-13.984.461-20.93,1.11-1.134.1-2.245.2-3.344.406-.8.149-1.784.477-2.413.133-3.973-2.181-8.664-.469-12.895-1.2-1.077-.187-2.267-.023-3.041-.782-.853-1.008.281-1.672.83-2.43a2.2,2.2,0,0,1,.606-.422,3.05,3.05,0,0,1,.976-.172c-.09-.008.079-.055-.056-.07-1.919.227-3.636.454-4.231-1.274-.247-.711-1.358-.8-2.177-1.071-.909-.3-1.571-.727-1.3-1.493s1.178-.985,2.155-.922c1.784.109,3.625-.5,5.117,1.125.887.954,3.389,1.29,5.387,1.1a20.1,20.1,0,0,1,2.738-.054c2.727,1.235,5.409,2.571,8.956,2.149,3.681.062,7.306-.461,9.506-.469-2.188.031-5.8.516-9.483.469-1.178-.086-2.368.062-3.546-.1a1.8,1.8,0,0,1-.662-.359c-.438-.539-.18-1.352-1.358-1.6a4.431,4.431,0,0,0-2.929-.344,13.853,13.853,0,0,1-4.2.266c-1.65-.188-3.928-.125-4.612-1.29-.617-1.071,1.93-1.258,2.458-2.188,2.48-1.891,3.2-2,6.128-.539a3.228,3.228,0,0,0,3.558-.125c2.592-1.829,5.813-1.509,8.967-1.352,1.683.078,2.648.711,2.424,1.946,3.468-.969,7.093-.586,10.594-.907,3.12-.524,6.24.094,9.382.008a61.26,61.26,0,0,0,10.179-.719c.3-.031.606-.055.92-.063,2.491-.274,4.972.148,7.441.078a12.341,12.341,0,0,0,4.388-.266c.2-.148.415-.273.628-.406a2.979,2.979,0,0,1,.808-.25,5.444,5.444,0,0,1,.875.008c2.1.867,4.186,1.321,6.251-.062a2.894,2.894,0,0,1,1.246-.234c1.436.125,2.536,1.3,4.2.649.067-.047.168-.094.247-.156a4.152,4.152,0,0,1,.786-.492,13.419,13.419,0,0,1,2.323-.438,11.626,11.626,0,0,1,1.268-.141c.292-.008.572-.016.864-.016a121.605,121.605,0,0,0,12.861-.445c-2.918.367-8.114.43-13.344.453-9.057-.383-18.012.8-27.024.625-3.962-.07-7.991.328-11.941-.359-1.594-1.055-1.2-1.954.426-2.759,4.119-1.344,8.541-.9,12.861-.922,1.01-.008,2.031.008,3.03-.039a12.317,12.317,0,0,0,5.723.008c.415-.015.831-.047,1.234-.078a14.916,14.916,0,0,0,1.583-.25,5.4,5.4,0,0,1,.8-.1c.258-.008.527-.016.786-.016s.527.016.786.032c.64.047,1.279,0,1.93-.016a5.056,5.056,0,0,1,1.145.133c.382.078.752.187,1.134.234.269.023.539.031.808.031.83.055,1.6-.18,2.424-.2,1.111-.016,2.222-.008,3.064-.008-1.751-.109-3.76.11-5.757.2a4.922,4.922,0,0,1-2.57-.648c-1.706-1.18-3.625-1.055-5.667-.618a4.87,4.87,0,0,1-.842-.164,1.982,1.982,0,0,1-1.268-2.727c-.64-.547-1.324-.18-2-.071-1.773-.2-3.524.148-5.286.063-2.57-.235-4.871.711-7.373.789-2.222.078-4.511.555-6.386-.766a.886.886,0,0,1-.281-.617,2.653,2.653,0,0,1,1.762-1.446,4,4,0,0,0,2.087-.8c1.526-1.594,4.063-1.391,6.307-1.712a4.815,4.815,0,0,1,1.616.242c.842.172,1.493-.266,2.278-.328,4.321-.7,8.81-.156,12.468-.836-4.826.555-10.37.539-15.891.774-2.39-.375-4.736.125-7.115.094-2.435-.039-4.8.414-7.283-.3-1.8-.508-3.614.563-5.679.547-7.845-.078-15.633-.875-23.534-.414a77.1,77.1,0,0,1-13.512-.766c-2.143-.258-2.592-1.336-1.279-2.532,1.627-1.485,3.984-1.93,6.453-2.313a136.49,136.49,0,0,1,18.1-1.422c4.13-.086,8.238-.266,12.356-.047a193,193,0,0,0-25.52-.211c-8.372.61-16.935.657-25.172-1.25a29.9,29.9,0,0,0-6.487-.258q-5.589-.024-11.178.016c-2.952.016-3.917-1.016-2.289-2.673,1.93-1.954,1.56-3.767.078-5.666-.55-.7-1.2-1.352-1.717-2.055-1.571-2.188-1.448-2.985.909-4.853a29.284,29.284,0,0,0,9.573-13.88c.572-1.618-.146-2.657-2.615-3.009a17.29,17.29,0,0,1-2.637-.641c-3.659-1.141-4.343-2.165-2.649-4.736,3.984-6.018,2.391-11.958-.258-17.9-2.267-5.088-5.286-10.019-6.307-15.341a12.432,12.432,0,0,1,.494-7.5,3.349,3.349,0,0,1,3.064-2.165,3.608,3.608,0,0,0,2.94-1.7,20.4,20.4,0,0,1,3.3-3.9c2.57-2.337,1.156-6.292-2.7-7.573-.471-.156-.977-.227-1.47-.352-3.838-.954-5.207-2.415-3.109-4.877,2.592-3.025,2.1-5.689-1.818-8.214a12.113,12.113,0,0,1-5.959-10.754A3.191,3.191,0,0,1,58,449.47c3.041-2.469,4.545-5.463,6.285-8.386a30.079,30.079,0,0,1,4.455-5.924,6.354,6.354,0,0,1,4.669-1.774c3.524-.086,7.026.2,10.549.062.707-.031,1.706-.078,2.043.328,1.481,1.758,3.412.727,5.252.563,5.869-.516,11.481-1.7,17.72-1.032a127.5,127.5,0,0,0,14.1.336c2.447-.023,4.77-1.2,7.306-1.579a12.157,12.157,0,0,1,3.333-.359c4.006.539,8,.125,12,.039a4.17,4.17,0,0,0,.617.023,99.406,99.406,0,0,1,14.4-.8c6.139,1.086,12.356.172,18.338-.344,8.159-.711,16.306-.633,24.443-1.071-5.993.328-12.008.086-18,.578-5.241.43-10.5.7-15.757,1.032-.3,0-.606.023-.909,0-1.133-.109-2.884.375-3.165-.688-.359-1.321,1.582-.867,2.592-1.125.741-.2,1.044-.633,1.044-1.141a19.183,19.183,0,0,0-6.026-.492c-3.625.25-5.589-.828-7.216-2.743a.834.834,0,0,1,.011-.594c.415-.547,1.425-.656,1.8-1.243a2.65,2.65,0,0,1,.606-.445,3.368,3.368,0,0,1,1.212-.383c3.67.016,7.261-1.125,10.987-.289-4.388-.86-8.832-.461-13.265-.422a10.12,10.12,0,0,1-4.983-.922c-1.829-.969-3.962-.281-5.97-.281-.83.016-1.672-.07-2.514-.047-.281,0-.561-.016-.842-.039a30.083,30.083,0,0,0-6.442,1.532,11.157,11.157,0,0,1-8.383-.078c-.2-1.508-2.828-1.446-3.535-2.634-.808-.524,1.246-1.805-1.089-1.915a2.584,2.584,0,0,1-.763-.36,1.221,1.221,0,0,1-.415-.594,1.683,1.683,0,0,1,.191-1.665,2.435,2.435,0,0,1,.965-1.157,2.684,2.684,0,0,1,.8-.344c3.064-.117,6.105-.477,8.978-.563-1.414.086-3.019.133-4.624.344-2.289.3-4.13-.141-4.455-2.048a8.838,8.838,0,0,0-1.044-7.753c-1.706-2.595-2.222-5.51-2.738-8.386-.583-3.3-2.783-6.315-3.905-9.535-1.167-3.369-.988-6.721-.763-10.09.1-1.563.954-2.79,3.625-3.29,3.109-.586,4.691-5.8,2.447-7.425-1.111-.813-1.638-1.673-1.021-2.727.853-1.493.247-2.759-1.347-3.712-3.962-2.392-4.5-5.768-4.927-8.964a20.464,20.464,0,0,0-2.94-8.964,13.436,13.436,0,0,1-1.942-4.1,3.845,3.845,0,0,1,1.9-4.736c2.177-1.337,2.75-3.572,5.308-4.728.471-.211.382-.617.438-.977.483-2.673,1.762-3.4,5.488-2.9,3.95.524,7.788,1.4,11.75,1.923a40.953,40.953,0,0,0,4.893.438,342.94,342.94,0,0,0,35.856-1.485c6.655-.633,13.187-1.829,19.92-2.04a6.225,6.225,0,0,0,1.807-.3c3.793-1.329,7.463-.742,11.054.383a15.055,15.055,0,0,0,10.123.008c.359-.141-.112-.1.269-.086,6.5.2,12.625-1.969,19.146-1.469,2.155.172,4.074.148,5.836-.868,1.324-.75,2.94-.531,4.478-.391,3.008.266,5.993.524,8.63-.907a2.037,2.037,0,0,1,1.156-.274c6.8.993,13.119-1.759,19.853-1.243a5.658,5.658,0,0,0,2.727-.313c2.547-1.188,5.308-1.024,8.08-.711a9.109,9.109,0,0,0,5.858-.852,6.3,6.3,0,0,1,3.838-.469c3.3.266,6.621.633,9.539-.946a1.592,1.592,0,0,1,.875-.2c5.331.625,10.347-.672,15.51-1.172,3.12-.3,6.285.109,9.337-1.063,1.728-.664,4.063-.32,6.116-.047a8.369,8.369,0,0,0,5.566-.8,6.043,6.043,0,0,1,3.827-.531,28.694,28.694,0,0,0,3.389.2c3.041-.055,3.726-.641,3.075-2.665a6.775,6.775,0,0,1-.651-2.978c.37-1.078,1.493-1.618,2.862-1.969a7.5,7.5,0,0,1,1.919-.172c2.435.391,4.792.774,6.992-.672.786-.516,2.132-.164,3.142.25a4.382,4.382,0,0,0,3.423-.242c1.762-.93,4.13-.828,6.229-.914a91.845,91.845,0,0,1,10.168-.149,10.136,10.136,0,0,0,3.636-.406,7.9,7.9,0,0,1,3.322-.352c4.108.61,8.181.063,12.266,0,.415-.008-.1.055.3.008a104.618,104.618,0,0,1,13.748-.75c1.683-.023,3.367-.1,5.039.023.3.055.595.1.9.133,5.129.094,10.168-.555,15.251-.883,5.7-.359,11.481-.719,17.238-.531a39.736,39.736,0,0,1,4.9-.063c-11.447-.086-22.344.672-33.241,1.516-1.044-.008-2.076.039-3.1-.047-.729-.063-1.526-.2-1.481-.836.034-.6.786-.781,1.549-.821a13.3,13.3,0,0,0,2.7-.274,19.322,19.322,0,0,1,3.221-.578,5.634,5.634,0,0,0-2.177-.063,5.83,5.83,0,0,1-1.335-.125c-3.086-.664-6.33-.844-9.315-1.884a23.258,23.258,0,0,1-4.029-1.43.856.856,0,0,1-.18-.594c.808-.8,2.357-1.032,3.03-1.938,3.692-.946,7.564-.656,10.4-.789a47.594,47.594,0,0,0-10.774-.164c-3.176.3-5.757-.758-8.473-1.524-.853-.266-1.549.258-2.368.242-.83.031-1.672.008-2.5.039a23.685,23.685,0,0,1-3.928.266,7.616,7.616,0,0,0-4.568,1.352,5.033,5.033,0,0,1-.965.086c-2.222-.008-4.444.07-6.655-.047-.718-.039-1.459-.211-1.493-.821-.022-.508.606-.672,1.122-.813.056,0,.18-.023.168-.047a15.428,15.428,0,0,1-2.289-.063c-1.089-.148-1.549-.68-1.594-1.391s.337-1.289,1.4-1.477c1.448-.258,2.94-.391,4.04-.7a12.275,12.275,0,0,1-3.3.446c-.3-.008-.595-.016-.887-.016a20.986,20.986,0,0,0-2.233.266c-2.491.453-5.084-.453-7.553.3-1.784-.359-3.726.164-5.477-.4-.37-.117-.752-.234-1.122-.367-.124-.031-.236-.086-.359-.117a3.34,3.34,0,0,1-.718-.3,2.7,2.7,0,0,1-.628-.414,1.515,1.515,0,0,1-.46-.883,1.169,1.169,0,0,1,.191-.633,1.85,1.85,0,0,1,.606-.492,2.9,2.9,0,0,1,.864-.2c2.368.344,4.265-1,6.576-.891a120.613,120.613,0,0,0,20.021-.813c-8.428,1.149-16.935.93-25.431.75-3.457-.547-6.969-.829-10.437-1.274a20.246,20.246,0,0,1-5.477-1.266c-1.212-.532-2.076-1.2-1.089-2.267a22.5,22.5,0,0,1,9.113-1.086,10.975,10.975,0,0,0,4.13-.563,6.026,6.026,0,0,1,.583-.32,3.463,3.463,0,0,1,.629-.258,2.811,2.811,0,0,1,.7-.172c.247-.039.494-.055.752-.07.269,0,.528-.008.8-.008,4.747-.07,9.517.2,14.163-.743-4.972.969-10.056.688-15.139.758-3.591-.469-7.1-.055-10.639.188-1.841.125-3.344-.281-3.255-1.844.079-1.407,1.717-2.462,3.76-2.181,3.176.445,6.33-.047,9.45.148.662-.039,1.324.117,2.009.117a59.184,59.184,0,0,0-8.731.047,3.708,3.708,0,0,1-.831.023c-1.2-.445-2.188-1.2-3.681-1.235l-.887-.055a2.957,2.957,0,0,1-1.178-.477c-1.964-1.336-3.333-3.017-5.275-4.384-.965-.672-1.437-1.586-.449-2.524a3.565,3.565,0,0,1,1.74-.383l.9-.07a32.011,32.011,0,0,0,5.409-.625,24.736,24.736,0,0,1-10.437-.227,6.549,6.549,0,0,1-1.908-5.58,2.373,2.373,0,0,1,1.19-1.915,17.291,17.291,0,0,0,5.51-6.19c1.695-2.782,3.142-5.635,5.477-8.222,1.437-1.594,3.142-2.36,6.083-2.251,12.3.469,24.589-.485,36.9-.391,7.788.063,15.409,1.125,23.119,1.641,11.918.8,23.736,2.931,35.711,2.548,5.97-.188,12.143.445,18.046-.938a14.743,14.743,0,0,1,4.624-.125c2.7.25,5.342.445,7.844-.594a5.657,5.657,0,0,1,2.435-.047c3.4.148,6.823.391,10.134-.485a4.34,4.34,0,0,1,1.526-.149c5.376.594,10.662-.242,15.981-.5,2.985-.148,6.015.086,8.888-.7a2.307,2.307,0,0,1,.92-.078c5.712.852,11.268-.586,16.912-.555a30.908,30.908,0,0,0,7.362-.6,13.421,13.421,0,0,1,4.613-.07,16.136,16.136,0,0,0,7.856-.61,7.191,7.191,0,0,1,3.03-.125c3.2.117,6.408.352,9.528-.414,1.549-.375,3.075.109,4.613.07,7.126-.172,14.241-.516,21.345-.563,5.465-.031,10.886-.531,16.34-.352,7.149.234,14.241-.5,21.379-.539,5.97-.031,11.93-.469,17.911-.32,6.835.164,13.624-.391,20.448-.563,6.184-.148,12.356-.453,18.551-.313,6.621.141,13.209-.4,19.819-.531,6.7-.133,13.389-.383,20.1-.414,6.251-.023,12.547-.164,18.809-.477,1.021-.055,2.054-.227,3.086-.2,11.9.258,23.758-.508,35.654-.485,19.034.039,38.067-.156,57.1-.281,16.183-.109,32.366.062,48.538-.2,14.129-.234,28.258,0,42.388-.188,22.221-.289,44.442-.148,66.651-.2A5.5,5.5,0,0,0,1016.928,227.427Z" transform="translate(-56.754 -227.427)" fill="#008fc3"/>
</svg>
