<?xml version="1.0" encoding="utf-8"?>
<svg xmlns="http://www.w3.org/2000/svg" preserveAspectRatio="none" width="167.006" height="6.001" viewBox="0 0 167.006 6.001">
  <path id="Pfad_819" data-name="Pfad 819" d="M414.542,326.123a7.4,7.4,0,0,1,1.535-.333,17.422,17.422,0,0,1,2.741.234c.695.123,1.147-.208,1.718-.224.553-.015.969.338,1.708.1a6.582,6.582,0,0,1,2.683-.252c1.1.127,2.236.166,3.359.212a7.5,7.5,0,0,0,2.772-.119,2.488,2.488,0,0,1,.828-.038c1.164.058,2.332.105,3.487.209a8.192,8.192,0,0,1,1.351.359,1.728,1.728,0,0,1,1.705-.253,11.92,11.92,0,0,0,3.746.052,9.29,9.29,0,0,1,2.463.165,6.071,6.071,0,0,0,1.577.035,15.012,15.012,0,0,1,2.9.2c.258.024.563.184.751.132a8.718,8.718,0,0,1,4.095.1,8.5,8.5,0,0,0,2.016-.063,9.568,9.568,0,0,1,4.187.426,2.616,2.616,0,0,0,1.3.007,8.762,8.762,0,0,1,2.828.045,2.493,2.493,0,0,0,1.246,0,1.65,1.65,0,0,1,1.534.17.726.726,0,0,0,.45.162,8.974,8.974,0,0,1,3.427.086c.974.086,1.946.21,2.929.247,1.057.04,2.118.037,3.177.054a2.449,2.449,0,0,1,1.5.417,2.192,2.192,0,0,0,2.038.228,3.818,3.818,0,0,1,2.272,0c1.623.26,3.23.588,4.874.751,1.044.1,1.843.524,2.815.692.147.025.354.269.3.343a.85.85,0,0,1-.555.33c-.841.028-1.686-.009-2.53-.011-.55,0-1.105.043-1.651.011a6.567,6.567,0,0,1-1.151-.213c-.513-.124-1.009-.4-1.52,0a.423.423,0,0,1-.244.07c-1.112-.622-2.538.06-3.685-.389-1.375.244-2.633-.578-4.063-.174a4.458,4.458,0,0,1-1.525-.038,28.589,28.589,0,0,0-4.854-.144,6.965,6.965,0,0,1-1.818-.4c-.161-.038-.38-.142-.475-.106-1.422.542-2.817-.134-4.247-.034-1.186.082-2.425-.19-3.622-.134a43.867,43.867,0,0,1-6.345-.314c-.745-.072-1.567.193-2.209-.29a1.022,1.022,0,0,0-.618.1,2.5,2.5,0,0,1-1.68.249c-1.985-.1-3.946-.347-5.931-.416-1.236-.043-2.477-.009-3.716-.007-1.3,0-2.6-.031-3.889.014-3,.1-6-.042-9-.116-1.607-.04-3.217-.15-4.83-.091-.732.027-1.458.161-2.189.169-.666.008-1.334-.125-2-.129a12.7,12.7,0,0,0-3.873.223,1.213,1.213,0,0,1-.66-.029,5.731,5.731,0,0,0-3.122-.029,2.983,2.983,0,0,1-.914.108,9.586,9.586,0,0,0-3.423.206,3.571,3.571,0,0,1-2-.082,3.435,3.435,0,0,0-1.631-.1,8.028,8.028,0,0,1-2.356.1,2.5,2.5,0,0,0-.973.019,8.546,8.546,0,0,1-3.4.056c-1.353-.044-2.718.011-4.073.07a5,5,0,0,0-2.271.266,1.047,1.047,0,0,1-.415.025c-2.473-.066-4.946-.149-7.419-.2-1.447-.028-2.9.006-4.343,0a6.29,6.29,0,0,1-.669-.062,3.279,3.279,0,0,0-2.1.228,1.323,1.323,0,0,1-1.4-.01,2.656,2.656,0,0,0-1.7-.244c-1.732.06-3.466.089-5.2.129a2.807,2.807,0,0,0-.7.017,8.673,8.673,0,0,1-4.125.085,2.361,2.361,0,0,0-1.073.094,4.147,4.147,0,0,1-2.432.076,8.387,8.387,0,0,0-2.629-.085c-1.471.14-2.967.167-4.451.254-.51.03-1.013.124-1.524.149-.738.038-1.48.043-2.22.057a4.786,4.786,0,0,0-.686-.01,18.922,18.922,0,0,1-4.335.156,13.013,13.013,0,0,0-2.315.275c-.408.054-.811.136-1.224.163-.974.064-1.951.139-2.929.147-2.575.022-5.144.275-7.73.051-.742-.064-1.241-.328-1.3-.707a5.055,5.055,0,0,1,.194-1.91c.032-.126.6-.294.9-.276,3.632.218,7.213-.2,10.816-.329,1.373-.05,2.752-.014,4.128-.03.368,0,.735-.06,1.1-.083,1.114-.067,2.246-.071,3.338-.209a17.445,17.445,0,0,1,3.891-.014,7.136,7.136,0,0,0,1.244-.118,14.465,14.465,0,0,1,2.776-.206,41.853,41.853,0,0,0,7.813-.074,16.986,16.986,0,0,1,4.439.113,4.318,4.318,0,0,0,.842-.014c1.957-.037,3.915-.109,5.873-.1,1.931.01,3.86.112,5.79.158.466.011.935-.052,1.4-.062a25.074,25.074,0,0,1,4.76-.022c1.384.252,2.528-.42,3.781-.073a2.43,2.43,0,0,1,1.7-.016,2.062,2.062,0,0,0,.7.015,13.977,13.977,0,0,1,3.957-.077,27.27,27.27,0,0,0,2.811-.135c.932-.023,1.869-.069,2.8-.026,1.889.089,3.785-.088,5.68.177a3.707,3.707,0,0,0,2.34-.221,1.806,1.806,0,0,1,.666-.057c.187,0,.448.073.552.016,1.42-.78,3,.069,4.475-.187C413.936,325.807,414.313,326.047,414.542,326.123Z" transform="translate(-324.373 -325.109)" fill="#fff" stroke="#fff" stroke-width="1"/>
</svg>
