<?xml version="1.0" encoding="utf-8"?>
<svg xmlns="http://www.w3.org/2000/svg" preserveAspectRatio="none" width="191" height="6" viewBox="0 0 191 6">
  <path id="Pfad_767" data-name="Pfad 767" d="M428.047,326.225a8.21,8.21,0,0,1,1.766-.4,19.24,19.24,0,0,1,3.153.281c.8.147,1.319-.25,1.977-.268.636-.018,1.115.406,1.965.125a7.277,7.277,0,0,1,3.088-.3c1.271.153,2.573.2,3.865.255a8.277,8.277,0,0,0,3.19-.142,2.745,2.745,0,0,1,.953-.046c1.339.07,2.683.127,4.012.251a9.118,9.118,0,0,1,1.555.43,1.924,1.924,0,0,1,1.962-.3,13.16,13.16,0,0,0,4.31.062,10.253,10.253,0,0,1,2.834.2,6.7,6.7,0,0,0,1.814.042,16.58,16.58,0,0,1,3.337.241c.3.029.648.221.864.158a9.63,9.63,0,0,1,4.711.114,9.382,9.382,0,0,0,2.32-.076,10.582,10.582,0,0,1,4.817.511,2.889,2.889,0,0,0,1.5.008,9.673,9.673,0,0,1,3.254.054,2.754,2.754,0,0,0,1.434,0,1.833,1.833,0,0,1,1.765.2.814.814,0,0,0,.518.194c1.341-.408,2.652-.016,3.943.1,1.121.1,2.239.252,3.371.3,1.217.048,2.437.045,3.656.065a2.733,2.733,0,0,1,1.724.5,2.435,2.435,0,0,0,2.345.273,4.219,4.219,0,0,1,2.614,0c1.867.312,3.716.706,5.608.9,1.2.124,2.121.628,3.24.83.169.03.408.323.349.412a.972.972,0,0,1-.639.4c-.968.033-1.94-.01-2.911-.014-.633,0-1.272.051-1.9.014a7.276,7.276,0,0,1-1.324-.256c-.59-.149-1.161-.48-1.749,0a.472.472,0,0,1-.281.084c-1.279-.746-2.92.072-4.24-.467-1.583.292-3.029-.693-4.675-.209a4.922,4.922,0,0,1-1.755-.045,31.545,31.545,0,0,0-5.585-.172,7.731,7.731,0,0,1-2.092-.481c-.186-.046-.437-.171-.547-.127-1.636.651-3.241-.161-4.887-.041-1.365.1-2.79-.228-4.167-.161a48.429,48.429,0,0,1-7.3-.376c-.857-.087-1.8.232-2.541-.348a1.134,1.134,0,0,0-.712.118,2.77,2.77,0,0,1-1.933.3c-2.284-.12-4.54-.416-6.824-.5-1.422-.052-2.851-.01-4.276-.009-1.492,0-2.987-.037-4.475.017-3.456.124-6.909-.05-10.352-.14-1.849-.048-3.7-.18-5.557-.11-.843.032-1.677.193-2.518.2-.766.01-1.534-.15-2.3-.155a14.019,14.019,0,0,0-4.456.267,1.341,1.341,0,0,1-.76-.034,6.333,6.333,0,0,0-3.593-.035,3.3,3.3,0,0,1-1.051.13,10.59,10.59,0,0,0-3.939.247,3.946,3.946,0,0,1-2.306-.1,3.8,3.8,0,0,0-1.877-.124,8.861,8.861,0,0,1-2.711.119,2.761,2.761,0,0,0-1.119.023c-1.31.5-2.6.112-3.911.067-1.556-.053-3.127.014-4.686.084a5.534,5.534,0,0,0-2.613.319,1.157,1.157,0,0,1-.477.03c-2.846-.079-5.691-.179-8.536-.235-1.665-.033-3.332.007-5,0a6.943,6.943,0,0,1-.77-.075,3.631,3.631,0,0,0-2.417.274,1.47,1.47,0,0,1-1.616-.012,2.945,2.945,0,0,0-1.955-.292c-1.993.072-3.988.107-5.983.155a3.1,3.1,0,0,0-.8.02,9.58,9.58,0,0,1-4.746.1,2.61,2.61,0,0,0-1.234.113,4.585,4.585,0,0,1-2.8.092,9.258,9.258,0,0,0-3.025-.1c-1.693.168-3.414.2-5.121.305-.587.036-1.166.148-1.753.179-.849.046-1.7.052-2.554.068a5.287,5.287,0,0,0-.789-.013,20.889,20.889,0,0,1-4.988.187,14.391,14.391,0,0,0-2.664.33c-.47.065-.934.163-1.408.2-1.121.077-2.245.167-3.37.177-2.963.026-5.918.33-8.894.061-.854-.077-1.428-.394-1.492-.848a6.308,6.308,0,0,1,.223-2.292c.036-.151.695-.353,1.04-.331,4.178.262,8.3-.237,12.444-.395,1.579-.06,3.167-.017,4.75-.036.424-.005.846-.072,1.27-.1,1.282-.08,2.584-.085,3.841-.251a19.251,19.251,0,0,1,4.477-.017,7.887,7.887,0,0,0,1.432-.141,15.967,15.967,0,0,1,3.194-.247,46.186,46.186,0,0,0,8.989-.089,18.747,18.747,0,0,1,5.108.136,4.764,4.764,0,0,0,.968-.017c2.252-.044,4.505-.13,6.757-.117,2.221.012,4.441.135,6.662.19.536.013,1.076-.062,1.615-.075a27.666,27.666,0,0,1,5.477-.027c1.593.3,2.909-.5,4.35-.087.647-.387,1.3-.126,1.961-.019a2.278,2.278,0,0,0,.806.018,15.427,15.427,0,0,1,4.552-.092,30.089,30.089,0,0,0,3.234-.162c1.072-.028,2.151-.083,3.217-.031,2.173.107,4.355-.105,6.535.213a4.1,4.1,0,0,0,2.692-.266,2,2,0,0,1,.767-.068c.215,0,.515.087.635.019,1.634-.936,3.449.083,5.149-.224C427.35,325.846,427.783,326.134,428.047,326.225Z" transform="translate(-324.869 -325.612)" fill="#002e6d"/>
</svg>
