<svg xmlns="http://www.w3.org/2000/svg" width="33.85" height="33.5" viewBox="0 0 33.85 33.5"><g transform="translate(-1016 -4656)"><path d="M25.427,103.257h.14a.558.558,0,0,0,.407,0h.165a.508.508,0,0,0,.291.034,2.436,2.436,0,0,1,.527,0,3.528,3.528,0,0,0,.414,0c.449-.01.9.018,1.349.023.373,0,.746.014,1.119.042.3.023.61.04.915.073a3.7,3.7,0,0,0,.839.061c.344-.041.687,0,1.03-.039.29-.037.581.005.871-.032.346-.044.691,0,1.036-.041.3-.038.6,0,.9-.031.233-.023.467.01.7-.031a.272.272,0,0,1,.274.128c.053.067.112.054.17.051a.5.5,0,0,1,.378.109.979.979,0,0,1,.25.7.383.383,0,0,0,.069.218,4.773,4.773,0,0,1,.3.458,2.409,2.409,0,0,1,.228,1.179c0,.333,0,.665-.008,1-.014.393.005.786.016,1.178.014.5,0,.991-.01,1.486a.286.286,0,0,1-.006.07,1.563,1.563,0,0,0-.032.564c.009.192.006.387,0,.581,0,.141-.028.236-.079.271a.37.37,0,0,1-.124.072c-.033.006-.044.049-.019.125a1.771,1.771,0,0,1,.07.459.7.7,0,0,0,.056.272,1.5,1.5,0,0,1,.1.628c0,.374.014.748,0,1.123a3.9,3.9,0,0,0,.012.416,13.894,13.894,0,0,1-.042,1.639c-.008.156-.009.314-.017.469a.466.466,0,0,0,.049.268.721.721,0,0,1,.049.566,1.791,1.791,0,0,0-.031.179.426.426,0,0,0,.04.33,1.667,1.667,0,0,1,.151.358.47.47,0,0,1,0,.291,2.441,2.441,0,0,0-.058,1.068,9.279,9.279,0,0,1,.058,1.36,2.431,2.431,0,0,0,.045.573,2.81,2.81,0,0,1,.039.51c.029.8.048,1.592.018,2.391a2.866,2.866,0,0,1-.094.7.908.908,0,0,0-.035.211c-.032.564-.1.766-.3.89-.093.057-.188.1-.281.15a.264.264,0,0,0-.1.074.482.482,0,0,0,.188.151,1.6,1.6,0,0,1,.316.109.465.465,0,0,1,.115.1c.11.133.125.2.12.542,0,.263.02.517.028.776a6.32,6.32,0,0,1-.028,1.127.367.367,0,0,0,.01.184.607.607,0,0,1,.022.282c-.024.258-.053.512-.078.768-.022.222-.038.446-.049.675a.647.647,0,0,0,.068.4,1.048,1.048,0,0,1,.1.305,7.9,7.9,0,0,1,.211,1.889.727.727,0,0,0,.006.159v1.163c-.014.1,0,.215-.012.322-.018.258-.057.4-.146.434a.82.82,0,0,0-.243.207.749.749,0,0,1-.614.327,3.3,3.3,0,0,0-.484,0,.6.6,0,0,1-.279-.056c-.118-.058-.237.022-.355.035a.556.556,0,0,1-.114.019,2.61,2.61,0,0,0-.679.124c-.184.034-.367.082-.551.126a5.873,5.873,0,0,1-1.563.115c-1.2-.034-2.41-.019-3.614-.01-.594,0-1.188.023-1.781.007-.874-.022-1.748-.013-2.622-.008-.331,0-.662-.007-.992.017-.278.02-.555,0-.832.016s-.526.014-.789.016H21.271c-.318.011-.636-.016-.954-.023-.279-.006-.559-.019-.838-.036a6.7,6.7,0,0,0-.921-.083c-.454.037-.908-.009-1.361.037a6.515,6.515,0,0,1-1.018.022c-1.215-.068-2.431-.037-3.646-.019-.674.009-1.349.006-2.023.027-.163.005-.326-.056-.489-.039-.332.033-.664.069-1,.091a3.245,3.245,0,0,1-.842-.025,3.587,3.587,0,0,0-.534-.008c-.186-.009-.373.023-.559.021a.856.856,0,0,1-.4-.1.277.277,0,0,0-.151-.053,1.1,1.1,0,0,1-.632-.159.352.352,0,0,0-.184-.025.459.459,0,0,1-.4-.184c-.137-.166-.282-.264-.416-.434a2.259,2.259,0,0,1-.282-1.44c.033-.805.074-1.609.118-2.411.019-.348.088-.64.12-.972a.292.292,0,0,1,.093-.2c.058-.069.064-.133.023-.269a1.147,1.147,0,0,0-.09-.227,1.384,1.384,0,0,1-.13-.558c-.01-.136-.017-.274-.025-.411a2.966,2.966,0,0,0-.08-.585,1.524,1.524,0,0,1-.022-.637,8.07,8.07,0,0,0,.057-1.568c0-.024,0-.049,0-.073-.012-.762.036-.805.232-.959a2.829,2.829,0,0,0,.219-.191.211.211,0,0,0,.015-.245c-.031-.072-.068-.121-.1-.2a3.167,3.167,0,0,1-.139-.8c-.021-.236-.026-.479-.034-.719-.006-.2-.019-.394-.035-.59a1.187,1.187,0,0,1,.075-.639.394.394,0,0,0,.035-.217c-.016-.232-.017-.488-.053-.688-.078-.435-.1-.925-.175-1.359a3.626,3.626,0,0,1-.043-.618c0-.92.031-1.838.027-2.758a1.347,1.347,0,0,1,.051-.4.651.651,0,0,0,0-.362,1.3,1.3,0,0,0-.076-.218,2.463,2.463,0,0,1-.173-.949c-.005-.266-.01-.532-.01-.8,0-.141-.01-.276-.021-.412a14.569,14.569,0,0,1,.005-2.283c.011-.143.031-.277.051-.411a.794.794,0,0,1,.189-.5,3.085,3.085,0,0,0,.236-.222.182.182,0,0,0,.028-.2,6.6,6.6,0,0,1-.2-1.649c0-.109-.008-.218-.017-.323a7.766,7.766,0,0,1,0-1.236c.032-.443.015-.9.007-1.359a2.257,2.257,0,0,1,.115-.871.807.807,0,0,1,.468-.539c.113-.044.224.006.336.006,1.264,0,2.529.032,3.793-.009,1.445-.046,2.889.018,4.333-.035s2.868.016,4.3-.039c.736-.028,1.472,0,2.208-.029.455-.017.91-.048,1.365-.089a5.6,5.6,0,0,0,.947-.068,7.881,7.881,0,0,1,1.526-.1,2.884,2.884,0,0,1,.527-.032c.235.029.468-.049.7-.04C25.411,103.275,25.42,103.271,25.427,103.257Z" transform="translate(1011.555 4552.743)" fill="#002e6d"/><g transform="translate(366.962 4205.578)"><g transform="translate(656.038 456.422)"><path d="M16.048,20.989H5.029a5.83,5.83,0,0,1-1.5-.334,5.02,5.02,0,0,1-1.247-.68,5.518,5.518,0,0,1-1.018-1,7.364,7.364,0,0,1-.808-1.29A3.986,3.986,0,0,1,.107,16.6a6.406,6.406,0,0,1-.09-1.135c0-1.027,0-2.07.009-3.08C.036,10.134.046,7.8,0,5.512A4.888,4.888,0,0,1,.425,3.45,5.718,5.718,0,0,1,.941,2.52a6.074,6.074,0,0,1,.679-.826A5.958,5.958,0,0,1,3.356.462,5.159,5.159,0,0,1,4.347.12,4.571,4.571,0,0,1,5.379,0H5.4c.8,0,1.637.006,2.62.006L10.3,0h.187l2.1,0c1.189,0,2.168,0,3.082.008A5.055,5.055,0,0,1,17.294.3a5.68,5.68,0,0,1,1.474.773,5.8,5.8,0,0,1,1.2,1.164,5.3,5.3,0,0,1,.8,1.459,3.171,3.171,0,0,1,.137.776,3.64,3.64,0,0,0,.1.672v10.9a5.7,5.7,0,0,1-.293,1.34,5.1,5.1,0,0,1-.58,1.151,5.614,5.614,0,0,1-.846.979,7.253,7.253,0,0,1-1.092.823,3.822,3.822,0,0,1-1.024.433c-.352.1-.72.159-1.076.219h0l-.039.007ZM10.5,1.9c-1.6,0-3.2.011-4.737.033A3.832,3.832,0,0,0,3.033,3.1a4.017,4.017,0,0,0-1.1,2.786c-.006,1.07,0,2.156,0,3.207v.053c0,.432,0,.879,0,1.318,0,.493,0,.988,0,1.466v0c0,1.08-.006,2.2.006,3.3a3.975,3.975,0,0,0,1.1,2.726,3.763,3.763,0,0,0,2.671,1.16c1.615.026,3.245.039,4.845.039s3.226-.013,4.805-.04a3.779,3.779,0,0,0,1.457-.317,3.9,3.9,0,0,0,2.007-2.005,3.7,3.7,0,0,0,.31-1.437c.042-3.535.042-6.651,0-9.526a3.98,3.98,0,0,0-1.121-2.761,3.852,3.852,0,0,0-2.715-1.13C13.675,1.914,12.064,1.9,10.5,1.9Z" transform="translate(0 0)" fill="#fff" stroke="rgba(0,0,0,0)" stroke-miterlimit="10" stroke-width="1"/><path d="M776.217,487.64a1.342,1.342,0,0,1-1.374-1.3,1.366,1.366,0,0,1,1.321-1.425,1.389,1.389,0,0,1,1.383,1.372A1.36,1.36,0,0,1,776.217,487.64Z" transform="translate(-760.034 -481.366)" fill="#fff"/><path d="M702.711,497.669a5.385,5.385,0,1,0,5.418,5.426A5.391,5.391,0,0,0,702.711,497.669Zm.052,8.914a3.528,3.528,0,0,1-.055-7.055,3.528,3.528,0,1,1,.055,7.055Z" transform="translate(-692.205 -492.527)" fill="#fff"/></g></g></g></svg>