<svg xmlns="http://www.w3.org/2000/svg" preserveAspectRatio="none" width="554.459" height="215.204" viewBox="0 0 554.459 215.204"><path d="M348.116,103.257h2.293a22.609,22.609,0,0,0,6.674,0h2.71a20.482,20.482,0,0,0,4.761.219c2.879-.133,5.754-.115,8.633,0,2.256.085,4.516.033,6.776.015,7.362-.067,14.724.115,22.089.145,6.108.026,12.223.093,18.331.271,4.993.148,9.989.256,14.982.471,4.579.2,9.159.6,13.735.39,5.628-.263,11.256.026,16.875-.252,4.758-.237,9.516.033,14.267-.2,5.661-.286,11.326.011,16.977-.263,4.934-.241,9.864-.011,14.79-.2,3.822-.145,7.65.063,11.455-.2a8.37,8.37,0,0,1,4.48.823,5.791,5.791,0,0,0,2.779.326,18.451,18.451,0,0,1,6.194.7,5.627,5.627,0,0,1,4.093,4.485,1.893,1.893,0,0,0,1.125,1.4,52.6,52.6,0,0,1,4.963,2.945c2.657,1.717,3.663,4.355,3.729,7.574a56.01,56.01,0,0,1-.129,6.41,46.648,46.648,0,0,0,.265,7.567,77.883,77.883,0,0,1-.169,9.548.789.789,0,0,1-.106.449c-.936,1.076-.682,2.333-.526,3.62a20.075,20.075,0,0,1,.02,3.732,1.723,1.723,0,0,1-1.287,1.743,10.776,10.776,0,0,1-2.038.46c-.539.041-.721.312-.311.8a5.432,5.432,0,0,1,1.145,2.949,2.508,2.508,0,0,0,.917,1.747,4.849,4.849,0,0,1,1.664,4.032,60.932,60.932,0,0,1-.03,7.211,9.929,9.929,0,0,0,.189,2.671c.576,3.576-.212,7.04-.688,10.531-.136,1-.146,2.014-.278,3.016a1.647,1.647,0,0,0,.811,1.721c1.5.99,1.7,2.037.8,3.639a5.618,5.618,0,0,0-.5,1.15c-.347,1.146-.261,1.525.662,2.118a10.475,10.475,0,0,1,2.472,2.3,1.344,1.344,0,0,1,.05,1.869,6.711,6.711,0,0,0-.943,6.859,23.909,23.909,0,0,1,.956,8.736,6.553,6.553,0,0,0,.735,3.683,7.5,7.5,0,0,1,.638,3.275,81.588,81.588,0,0,1,.294,15.36,8.466,8.466,0,0,1-1.545,4.5,2.848,2.848,0,0,0-.566,1.358c-.516,3.624-1.638,4.922-4.94,5.72-1.529.367-3.074.645-4.609.961a6.644,6.644,0,0,0-1.671.475,11.048,11.048,0,0,0,3.08.968c1.721.256,3.464.286,5.168.7a9.585,9.585,0,0,1,1.886.66c1.807.857,2.045,1.287,1.962,3.479a43.325,43.325,0,0,0,.457,4.985c.182,2.444.45,4.885-.463,7.241a1.031,1.031,0,0,0,.172,1.179,1.722,1.722,0,0,1,.354,1.81c-.39,1.654-.86,3.286-1.274,4.933a35.4,35.4,0,0,0-.8,4.336A2.252,2.252,0,0,0,553.752,285a5,5,0,0,1,1.6,1.962,22.36,22.36,0,0,1,3.451,12.133,1.883,1.883,0,0,0,.1,1.02v7.474a13.851,13.851,0,0,0-.2,2.07c-.288,1.654-.936,2.545-2.389,2.79a17.663,17.663,0,0,0-3.984,1.332,22.16,22.16,0,0,1-10.062,2.1c-2.634-.141-5.281-.033-7.921-.022a23.622,23.622,0,0,1-4.563-.36c-1.936-.371-3.875.141-5.817.226-.619.03-1.244.145-1.869.123-3.726-.13-7.408.53-11.114.8-3.011.215-6.019.527-9.03.812a242.77,242.77,0,0,1-25.6.738c-19.737-.219-39.47-.123-59.2-.063-9.724.03-19.452.145-29.177.048-14.314-.141-28.627-.085-42.941-.052-5.42.015-10.839-.044-16.256.111-4.546.13-9.089-.018-13.629.1-4.308.115-8.613.093-12.921.1H280.045c-5.208.071-10.416-.1-15.627-.145-4.573-.037-9.149-.122-13.721-.23-5.033-.115-10.062-.69-15.088-.53-7.431.237-14.87-.056-22.294.237q-8.338.328-16.67.141c-19.906-.438-39.814-.237-59.72-.122-11.045.059-22.093.037-33.137.174-2.677.033-5.337-.36-8.014-.252-5.436.215-10.873.445-16.312.582a134.89,134.89,0,0,1-13.8-.159c-2.908-.223-5.833,0-8.752-.052-3.054-.056-6.108.148-9.162.134a32.914,32.914,0,0,1-6.492-.612,9.887,9.887,0,0,0-2.478-.338,41.8,41.8,0,0,1-10.356-1.02,14.171,14.171,0,0,0-3.014-.16,14.459,14.459,0,0,1-6.545-1.183c-2.24-1.065-4.612-1.7-6.816-2.789-3.438-1.7-5.086-4.826-4.626-9.251.539-5.174,1.211-10.334,1.936-15.487.314-2.237,1.439-4.11,1.972-6.243.2-.786.907-1.005,1.522-1.291.953-.445,1.042-.857.377-1.729a6.769,6.769,0,0,0-1.482-1.458,5.3,5.3,0,0,1-2.128-3.583c-.162-.875-.278-1.762-.417-2.641a8.749,8.749,0,0,0-1.317-3.761,4.111,4.111,0,0,1-.367-4.091c1.413-3.253,1.175-6.651.933-10.071-.013-.156-.03-.312-.036-.467-.192-4.893.586-5.174,3.8-6.158,1.2-.367,2.4-.779,3.587-1.224.907-.341.986-.9.248-1.577-.51-.464-1.122-.779-1.611-1.283a10.18,10.18,0,0,1-2.28-5.145,34.367,34.367,0,0,1-.562-4.622,32.4,32.4,0,0,0-.572-3.787c-.321-1.595-.2-3.116,1.234-4.106a1.326,1.326,0,0,0,.579-1.391,19.2,19.2,0,0,0-.874-4.422c-1.284-2.8-1.615-5.942-2.865-8.728a9.6,9.6,0,0,1-.708-3.969c-.01-5.913.506-11.807.443-17.72a3.965,3.965,0,0,1,.84-2.574,1.818,1.818,0,0,0,.043-2.326,6.622,6.622,0,0,0-1.244-1.4,8.287,8.287,0,0,1-2.836-6.1c-.083-1.71-.162-3.416-.159-5.126a13.166,13.166,0,0,0-.341-2.649,37.017,37.017,0,0,1,.083-14.663,16.338,16.338,0,0,1,.831-2.641,4.75,4.75,0,0,1,3.1-3.183c1.3-.4,2.574-.938,3.858-1.428.6-.226.986-.638.46-1.269-2.488-3-2.905-6.8-3.342-10.59a20.541,20.541,0,0,0-.281-2.077,19.736,19.736,0,0,1,.023-7.938,38.84,38.84,0,0,0,.109-8.728,6.8,6.8,0,0,1,1.879-5.6,12.734,12.734,0,0,1,7.67-3.465,35.881,35.881,0,0,1,5.506.037c20.71,0,41.422.2,62.129-.056,23.661-.3,47.322.119,70.976-.223,23.489-.338,46.975.1,70.457-.249,12.054-.178,24.108-.015,36.161-.185,7.455-.108,14.913-.312,22.361-.571,5.172-.174,10.37.082,15.5-.438,8.332-.849,16.66-.43,24.988-.642,2.875-.071,5.757-.345,8.626-.208,3.841.185,7.66-.315,11.495-.256A.608.608,0,0,0,348.116,103.257Z" transform="translate(-4.445 -103.257)" fill="#008fc3"/></svg>