<svg xmlns="http://www.w3.org/2000/svg" width="42" height="42" viewBox="0 0 42 42"><g transform="translate(-1355 -154)"><path d="M30.478,103.257h.174a.685.685,0,0,0,.506,0h.205a.624.624,0,0,0,.361.043,2.992,2.992,0,0,1,.654,0,4.336,4.336,0,0,0,.513,0c.558-.013,1.115.022,1.673.028.463.005.926.018,1.389.053.378.029.757.05,1.135.092a4.541,4.541,0,0,0,1.04.076c.426-.051.853.005,1.278-.049.36-.046.721.007,1.081-.04.429-.056.858,0,1.286-.051.374-.047.747,0,1.12-.038.289-.028.579.012.868-.039a.336.336,0,0,1,.339.161c.066.084.139.068.211.064a.621.621,0,0,1,.469.137,1.234,1.234,0,0,1,.31.875.483.483,0,0,0,.085.274,5.99,5.99,0,0,1,.376.575,3.047,3.047,0,0,1,.282,1.478c0,.417.005.833-.01,1.251-.018.492.007.986.02,1.477.017.624,0,1.243-.013,1.863a.363.363,0,0,1-.008.088,1.979,1.979,0,0,0-.04.707c.012.241.008.486,0,.728,0,.177-.035.3-.1.34a.457.457,0,0,1-.154.09c-.041.008-.055.061-.024.156a2.241,2.241,0,0,1,.087.576.891.891,0,0,0,.069.341,1.891,1.891,0,0,1,.126.787c0,.469.018.937,0,1.407a4.943,4.943,0,0,0,.014.521,17.6,17.6,0,0,1-.052,2.055c-.01.2-.011.393-.021.589a.589.589,0,0,0,.061.336.912.912,0,0,1,.06.71,2.264,2.264,0,0,0-.038.224.538.538,0,0,0,.05.413,2.1,2.1,0,0,1,.187.449.6.6,0,0,1,0,.365,3.091,3.091,0,0,0-.071,1.339,11.755,11.755,0,0,1,.072,1.7,3.079,3.079,0,0,0,.056.719,3.557,3.557,0,0,1,.048.639c.036,1,.06,2,.022,3a3.629,3.629,0,0,1-.117.878,1.151,1.151,0,0,0-.043.265c-.039.707-.124.961-.374,1.116-.116.072-.233.126-.349.187a.328.328,0,0,0-.127.093.6.6,0,0,0,.233.189,1.97,1.97,0,0,1,.392.136.579.579,0,0,1,.143.129c.137.167.155.251.149.679-.005.329.025.648.035.973a8.007,8.007,0,0,1-.035,1.413.464.464,0,0,0,.013.23.769.769,0,0,1,.027.353c-.03.323-.065.641-.1.963-.027.279-.047.56-.061.846a.818.818,0,0,0,.084.506,1.322,1.322,0,0,1,.121.383,10,10,0,0,1,.261,2.368.921.921,0,0,0,.008.2v1.459c-.017.13-.006.269-.015.4-.022.323-.071.5-.181.544a1.02,1.02,0,0,0-.3.26.926.926,0,0,1-.762.41,4.049,4.049,0,0,0-.6,0,.739.739,0,0,1-.346-.07c-.147-.072-.293.028-.441.044a.684.684,0,0,1-.142.024,3.208,3.208,0,0,0-.842.156c-.228.042-.456.1-.684.159a7.216,7.216,0,0,1-1.939.144c-1.5-.043-2.99-.024-4.485-.012-.737.006-1.473.028-2.21.009-1.084-.027-2.169-.017-3.253-.01-.411,0-.821-.009-1.231.022-.344.025-.689,0-1.032.02-.326.022-.652.018-.979.02h-1.68c-.394.014-.789-.02-1.184-.028-.346-.007-.693-.024-1.039-.045a8.237,8.237,0,0,0-1.143-.1c-.563.046-1.126-.011-1.689.046a8,8,0,0,1-1.263.028c-1.508-.085-3.016-.046-4.524-.024-.837.012-1.674.007-2.51.034-.2.006-.4-.07-.607-.049-.412.042-.824.087-1.236.114a3.984,3.984,0,0,1-1.045-.031,4.408,4.408,0,0,0-.663-.01c-.231-.011-.463.029-.694.026a1.052,1.052,0,0,1-.492-.119.342.342,0,0,0-.188-.066,1.354,1.354,0,0,1-.784-.2.433.433,0,0,0-.228-.031.567.567,0,0,1-.5-.231c-.17-.208-.349-.332-.516-.544a2.857,2.857,0,0,1-.35-1.805c.041-1.01.092-2.017.147-3.022.024-.436.109-.8.149-1.218a.367.367,0,0,1,.115-.252c.072-.087.079-.167.029-.337A1.447,1.447,0,0,0,5,137.1a1.75,1.75,0,0,1-.161-.7c-.012-.171-.021-.344-.032-.515a3.756,3.756,0,0,0-.1-.734,1.93,1.93,0,0,1-.028-.8,10.223,10.223,0,0,0,.071-1.965c0-.03,0-.061,0-.091-.015-.955.044-1.01.288-1.2a3.524,3.524,0,0,0,.272-.239.267.267,0,0,0,.019-.308c-.039-.09-.085-.152-.122-.25a4.008,4.008,0,0,1-.173-1c-.026-.3-.033-.6-.043-.9-.008-.25-.024-.494-.043-.739a1.5,1.5,0,0,1,.093-.8.5.5,0,0,0,.044-.271c-.02-.29-.022-.612-.066-.863-.1-.546-.122-1.16-.217-1.7a4.593,4.593,0,0,1-.054-.775c0-1.154.038-2.3.034-3.458a1.705,1.705,0,0,1,.064-.5.824.824,0,0,0,0-.454,1.639,1.639,0,0,0-.094-.274,3.116,3.116,0,0,1-.215-1.19c-.006-.334-.012-.667-.012-1,0-.177-.012-.346-.026-.517A18.456,18.456,0,0,1,4.5,112.98c.014-.18.038-.347.063-.515a1,1,0,0,1,.235-.621,3.845,3.845,0,0,0,.292-.279.23.23,0,0,0,.035-.248,8.359,8.359,0,0,1-.253-2.067c-.006-.136-.01-.273-.021-.405a9.838,9.838,0,0,1,0-1.549c.04-.555.018-1.134.008-1.7a2.857,2.857,0,0,1,.142-1.092,1.008,1.008,0,0,1,.581-.676c.141-.055.278.007.417.007,1.569,0,3.138.04,4.706-.011,1.792-.058,3.585.023,5.376-.043s3.558.02,5.337-.049c.913-.035,1.826,0,2.739-.036.565-.021,1.13-.061,1.694-.111a6.874,6.874,0,0,0,1.174-.085,9.678,9.678,0,0,1,1.893-.125,3.541,3.541,0,0,1,.653-.041c.291.036.58-.062.871-.05C30.459,103.279,30.469,103.274,30.478,103.257Z" transform="translate(1350.555 50.743)" fill="#002e6d"/><g transform="translate(1363 163.439)"><path d="M10.556,0c-.013.02-.044.035-.047.056a10.2,10.2,0,0,1-.614,1.394,6.026,6.026,0,0,1-.51,1c-.268.486-.545.968-.819,1.451a8.451,8.451,0,0,1-.824,1.312A4.984,4.984,0,0,0,7.3,6c-.451.8-.871,1.622-1.371,2.4a8.626,8.626,0,0,1-1,1.511c-.092.094-.084.265-.142.393a6.224,6.224,0,0,0-.637,1.25c-.021.106-.158.188-.214.293Q3.248,13.123,2.573,14.4c-.1.191-.151.4-.25.6-.167.322-.176.318-.63.181-.1.224-.191.431-.29.633-.148.3-.33.592-.45.9a6.96,6.96,0,0,0-.253.932c-.027.114.006.251-.16.292a.37.37,0,0,1-.368-.157.454.454,0,0,1-.135-.525c.228-.541.446-1.085.687-1.621.192-.427.412-.844.62-1.266.175-.355.348-.711.527-1.065.031-.062.1-.107.139-.167a3.38,3.38,0,0,0,.193-.33,2.275,2.275,0,0,1,.268-.543A2.527,2.527,0,0,0,3,11.209a.991.991,0,0,1,.335-.55.733.733,0,0,0,.188-.265c.136-.282.258-.569.388-.854.02-.044.034-.107.071-.124.308-.144.341-.421.445-.679.253-.628.514-1.257.83-1.86.17-.325.345-.651.521-.975.121-.223.314-.413.453-.629.053-.082.009-.243.075-.286.345-.225.38-.575.5-.9a1.27,1.27,0,0,1,.2-.3A3.582,3.582,0,0,0,7.588,2.8a2.587,2.587,0,0,1,.285-.423C8.212,1.823,8.549,1.263,8.878.7A3.844,3.844,0,0,1,9.223.067" transform="translate(18.545 2.561) rotate(60)" fill="#fff" stroke="#fff" stroke-width="4"/></g></g></svg>