<?xml version="1.0" encoding="utf-8"?>
<svg xmlns="http://www.w3.org/2000/svg" preserveAspectRatio="none" width="255.33" height="64" viewBox="0 0 255.33 64">
  <path id="Pfad_828" data-name="Pfad 828" d="M162.706,103.257h1.056a16.07,16.07,0,0,0,3.073,0h1.248a14.547,14.547,0,0,0,2.193.065c1.326-.04,2.65-.034,3.975,0,1.039.025,2.08.01,3.121,0,3.39-.02,6.78.034,10.172.043,2.813.008,5.629.028,8.441.081,2.3.044,4.6.076,6.9.14,2.109.058,4.218.18,6.325.116,2.592-.078,5.184.008,7.771-.075,2.191-.071,4.382.01,6.57-.061,2.607-.085,5.216,0,7.818-.078,2.272-.072,4.542,0,6.811-.058,1.76-.043,3.523.019,5.275-.06a5.735,5.735,0,0,1,2.063.245,4.044,4.044,0,0,0,1.28.1,12.958,12.958,0,0,1,2.852.208,2.228,2.228,0,0,1,1.885,1.334.7.7,0,0,0,.518.417c.788.255,1.536.563,2.286.876a2.4,2.4,0,0,1,1.717,2.253,10.776,10.776,0,0,1-.059,1.906,9.005,9.005,0,0,0,.122,2.25,14.987,14.987,0,0,1-.078,2.839.173.173,0,0,1-.049.133c-.431.32-.314.694-.242,1.077a3.87,3.87,0,0,1,.009,1.11c-.027.269-.21.45-.593.518a7.35,7.35,0,0,1-.939.137c-.248.012-.332.093-.143.238a1.36,1.36,0,0,1,.527.877.725.725,0,0,0,.422.52,1.27,1.27,0,0,1,.766,1.2,11.719,11.719,0,0,1-.014,2.144,1.939,1.939,0,0,0,.087.794,6.9,6.9,0,0,1-.317,3.132c-.062.3-.067.6-.128.9-.046.225.082.388.373.512.689.295.783.606.367,1.082a1.459,1.459,0,0,0-.23.342c-.16.341-.12.453.3.63a4.645,4.645,0,0,1,1.138.684c.23.184.258.37.023.556a1.46,1.46,0,0,0-.434,2.04,4.758,4.758,0,0,1,.44,2.6,1.393,1.393,0,0,0,.338,1.1,1.575,1.575,0,0,1,.294.974,15.729,15.729,0,0,1,.136,4.568,2.029,2.029,0,0,1-.712,1.338.733.733,0,0,0-.261.4c-.238,1.078-.754,1.464-2.275,1.7-.7.109-1.416.192-2.123.286a4.423,4.423,0,0,0-.769.141,7.25,7.25,0,0,0,1.419.288c.792.076,1.6.085,2.38.207a6.187,6.187,0,0,1,.868.2c.832.255.942.383.9,1.035a8.477,8.477,0,0,0,.21,1.483,3.188,3.188,0,0,1-.213,2.153.231.231,0,0,0,.079.351.388.388,0,0,1,.163.538c-.18.492-.4.977-.587,1.467a7.294,7.294,0,0,0-.37,1.29c-.069.349.04.608.51.771a1.868,1.868,0,0,1,.737.584,5.077,5.077,0,0,1,1.589,3.608c0,.1-.041.208.046.3v2.223c-.1.2-.035.41-.091.616-.133.492-.431.757-1.1.83a11.488,11.488,0,0,0-1.835.4,15.107,15.107,0,0,1-4.634.625c-1.213-.042-2.432-.01-3.648-.007a16.717,16.717,0,0,1-2.1-.107,17.684,17.684,0,0,0-2.679.067c-.285.009-.573.043-.861.036-1.716-.039-3.412.158-5.118.237-1.387.064-2.772.157-4.158.242-3.924.24-7.858.247-11.79.22-9.089-.065-18.176-.036-27.264-.019-4.478.009-8.958.043-13.436.014-6.592-.042-13.183-.025-19.775-.015-2.5,0-4.992-.013-7.486.033-2.094.039-4.186-.006-6.276.03-1.984.034-3.966.028-5.95.031H131.36c-2.4.021-4.8-.031-7.2-.043q-3.159-.016-6.319-.068c-2.318-.034-4.634-.205-6.948-.158-3.422.071-6.847-.017-10.267.071q-3.84.1-7.676.042c-9.167-.13-18.335-.071-27.5-.036-5.086.018-10.174.011-15.26.052-1.233.01-2.458-.107-3.69-.075-2.5.064-5.007.132-7.512.173-2.116.034-4.234.058-6.354-.047-1.339-.066-2.686,0-4.03-.015-1.406-.017-2.813.044-4.219.04A23.255,23.255,0,0,1,21.4,167a6.914,6.914,0,0,0-1.141-.1,29.482,29.482,0,0,1-4.769-.3,10.067,10.067,0,0,0-1.388-.047,9.948,9.948,0,0,1-3.014-.352c-1.032-.317-2.124-.505-3.139-.83-1.583-.505-2.342-1.435-2.13-2.751.248-1.539.558-3.073.891-4.606a13.721,13.721,0,0,1,.908-1.857c.091-.234.417-.3.7-.384.439-.132.48-.255.174-.514a2.9,2.9,0,0,0-.683-.434,1.634,1.634,0,0,1-.98-1.066c-.075-.26-.128-.524-.192-.785a2.1,2.1,0,0,0-.606-1.119.874.874,0,0,1-.169-1.217,4.151,4.151,0,0,0,.43-3c-.006-.046-.014-.093-.017-.139-.088-1.455.27-1.539,1.751-1.831.555-.109,1.106-.232,1.652-.364.417-.1.454-.268.114-.469-.235-.138-.517-.232-.742-.382A2.69,2.69,0,0,1,8,142.93a6.813,6.813,0,0,1-.259-1.374,6.522,6.522,0,0,0-.264-1.126.894.894,0,0,1,.568-1.221c.209-.093.315-.236.267-.414a4,4,0,0,0-.4-1.315c-.591-.832-.744-1.767-1.32-2.6a1.991,1.991,0,0,1-.326-1.18c0-1.758.233-3.511.2-5.27a.942.942,0,0,1,.387-.766c.283-.231.253-.454.02-.692a2.61,2.61,0,0,0-.573-.417,2.265,2.265,0,0,1-1.306-1.814c-.038-.509-.075-1.016-.073-1.525a2.624,2.624,0,0,0-.157-.788,7.208,7.208,0,0,1,.038-4.361,3.753,3.753,0,0,1,.382-.785,1.958,1.958,0,0,1,1.426-.946c.6-.118,1.185-.279,1.777-.425.274-.067.454-.19.212-.377a4.469,4.469,0,0,1-1.539-3.149,4.1,4.1,0,0,0-.13-.618,3.845,3.845,0,0,1,.011-2.361,7.5,7.5,0,0,0,.05-2.6,1.651,1.651,0,0,1,.865-1.665,7.661,7.661,0,0,1,3.532-1.03c.855-.084,1.691.011,2.535.011,9.537,0,19.075.061,28.61-.017,10.9-.088,21.792.035,32.685-.066,10.817-.1,21.632.03,32.446-.074,5.551-.053,11.1,0,16.652-.055q5.149-.048,10.3-.17c2.382-.052,4.775.024,7.14-.13,3.837-.253,7.672-.128,11.507-.191,1.324-.021,2.651-.1,3.972-.062,1.769.055,3.527-.094,5.293-.076A.4.4,0,0,0,162.706,103.257Z" transform="translate(-4.445 -103.257)" fill="#002E6D"/>
</svg>
