<?xml version="1.0" encoding="utf-8"?>
<svg xmlns="http://www.w3.org/2000/svg" width="17.091" height="19.104" viewBox="0 0 17.091 19.104">
  <path id="Pfad_744" data-name="Pfad 744" d="M393.566,552.939c-.128-.214-.26-.426-.382-.643a.537.537,0,0,1-.092-.261.372.372,0,0,1,.117-.271.3.3,0,0,1,.277.051,4.523,4.523,0,0,1,.451.535c.56.749,1.109,1.505,1.672,2.251a8.954,8.954,0,0,0,1.63,1.608c.2-.208.413-.4.6-.622s.362-.461.538-.7c.285-.383.578-.761.847-1.155a2.47,2.47,0,0,1,.491-.476,7.147,7.147,0,0,0,.825-.941c.186-.228.358-.467.532-.7.258-.351.507-.708.768-1.057.2-.27.365-.286.617-.083a.664.664,0,0,1,.047,1.138,7.569,7.569,0,0,0-1.344,1.723c-.379.6-.841,1.155-1.261,1.732-.146.2-.263.423-.417.616a5.647,5.647,0,0,1-.77.922c-.407.336-.374.577.01.964.625.629,1.259,1.248,1.884,1.875.22.22.422.458.638.682a1.161,1.161,0,0,0,.348.306c.615.241.948.834,1.507,1.156a14.829,14.829,0,0,1,1.534,1.139q.406.311.8.638c.114.094.107.1.1.374-.6-.04-.953-.565-1.51-.745a1.247,1.247,0,0,0-.057.154c-.082.361-.161.4-.457.189-.558-.394-1.126-.775-1.659-1.2-.328-.26-.595-.6-.9-.888-.67-.648-1.348-1.288-2.019-1.936-.245-.237-.48-.483-.712-.732a3.245,3.245,0,0,1-.233-.307c-.6.228-.74.405-.684.843a1.681,1.681,0,0,0-.8.77c-.259.424-.573.813-.846,1.229a2.19,2.19,0,0,0-.508.928c-.009.073-.2.114-.233.2-.149.356-.489.567-.656.9a1.484,1.484,0,0,0-.051.268c-.023.087-.038.217-.1.247-.351.175-.527.524-.777.791a5.911,5.911,0,0,0-.641.975c-.08.129-.138.273-.206.409a.893.893,0,0,1-.128.245,6.782,6.782,0,0,0-1.285,1.607,2.957,2.957,0,0,1-.639.673.4.4,0,0,1-.258.078,1.011,1.011,0,0,1-.737-.747c0-.147.244-.443.381-.4.22.076.256-.071.359-.179.244-.255.524-.476.754-.742a2.411,2.411,0,0,0,.27-.544,2.2,2.2,0,0,1,.354-1.987,5.13,5.13,0,0,1,.613-.959c.358-.406.432-1,.9-1.319.087-.06.159-.159.253-.185a.543.543,0,0,0,.371-.326,9.322,9.322,0,0,1,1.157-1.769c.5-.655,1.011-1.3,1.51-1.949a3.977,3.977,0,0,0,.25-.429c-.463-.469-.9-.93-1.36-1.374-.637-.621-1.276-1.239-1.932-1.84-.425-.39-.872-.758-1.328-1.112a.746.746,0,0,1-.279-.9C392.512,551.862,392.934,552.556,393.566,552.939Zm.405,9.205-.271.377.08.087a1.279,1.279,0,0,0,.266-.17C394.071,562.413,394.016,562.311,393.971,562.144Z" transform="translate(-388.943 -549.835)" fill="#fff" stroke="#fff" stroke-width="1"/>
</svg>
