<?xml version="1.0" encoding="utf-8"?>
<svg xmlns="http://www.w3.org/2000/svg" width="13.632" height="17.552" viewBox="0 0 13.632 17.552">
  <path id="Pfad_746" data-name="Pfad 746" d="M453.708,556.526c-.106-.087-.192-.157-.278-.229a.4.4,0,0,1-.119-.592c.02-.041.04-.081.063-.119.191-.324.188-.32-.058-.584a5.135,5.135,0,0,1-1.02-1.576c-.1-.25-.236-.486-.349-.731-.336-.723-.667-1.449-1-2.171-.133-.286-.271-.57-.418-.849-.265-.506-.539-1.008-.808-1.513a.808.808,0,0,1-.047-.126c-.093-.28-.088-.294.177-.437-.038-.253-.293-.435-.239-.718.155-.126.287-.053.4.05a6.344,6.344,0,0,1,.665.674,17,17,0,0,1,1.619,2.412c.308.574.638,1.137.929,1.719.237.472.431.964.642,1.443.14.054.222-.016.225-.128a1.458,1.458,0,0,1,.3-.738.563.563,0,0,0,.088-.215,1.574,1.574,0,0,1,.252-.785,1.7,1.7,0,0,0,.154-.681,3.859,3.859,0,0,1,.516-1.273,1.2,1.2,0,0,0,.264-.706.3.3,0,0,1,.051-.158c.189-.328.4-.644.567-.984.275-.573.67-1.072.961-1.633a15.939,15.939,0,0,1,1.5-2.307c.168-.219.288-.475.458-.692a2.45,2.45,0,0,1,.387-.312.6.6,0,0,0,.149-.163,3.466,3.466,0,0,1,.959-1.092,6.72,6.72,0,0,0,.64-.676c.162-.168.331-.331.5-.487a.191.191,0,0,1,.155-.023.438.438,0,0,1,.213.532c-.36.647-.727,1.289-1.089,1.935-.11.2-.2.4-.313.6-.34.6-.671,1.211-1.031,1.8-.393.648-.818,1.276-1.221,1.918-.347.552-.678,1.113-1.025,1.664-.179.283-.391.545-.563.832-.219.366-.413.747-.616,1.122-.138.255-.282.508-.4.771-.108.231-.189.475-.283.712a.7.7,0,0,1-.094.211,2.381,2.381,0,0,0-.421.872c-.217.638-.483,1.259-.725,1.889q-.223.58-.435,1.166A.553.553,0,0,1,453.708,556.526Zm7.643-15.138-.065-.065a.662.662,0,0,0-.2.093c-.133.132-.248.281-.377.418a8.57,8.57,0,0,1-.745.765c-.265.219-.4.535-.67.754a3.109,3.109,0,0,0-.482.67c-.2.286-.4.573-.6.857-.09.127-.2.24-.282.374-.337.584-.664,1.174-1,1.76-.06.106-.152.2-.2.3-.119.253-.221.513-.331.77s-.235.534-.345.8a13.171,13.171,0,0,1-.668,1.727,1.219,1.219,0,0,0-.083.342l.062.034c.051-.046.12-.083.15-.139a5.05,5.05,0,0,1,.308-.626c.2-.286.35-.6.525-.9.219-.374.5-.709.746-1.07.131-.194.235-.406.349-.612a2.195,2.195,0,0,1,.1-.206,7.128,7.128,0,0,1,.7-.949,2.9,2.9,0,0,0,.605-.966.589.589,0,0,1,.084-.105,11.017,11.017,0,0,0,.752-1.032c.453-.79.862-1.6,1.3-2.4C461.1,541.78,461.229,541.587,461.351,541.388Zm-7.913,12.341.077-.034a4.417,4.417,0,0,0-.321-1.146c-.347-.718-.62-1.471-1.032-2.158-.3-.5-.582-1.013-.907-1.5-.234-.347-.528-.654-.795-.979a3.9,3.9,0,0,0,.207.706q.349.871.713,1.735a4.852,4.852,0,0,0,.34.734C452.283,551.976,452.864,552.851,453.438,553.729Z" transform="translate(-449.102 -539.611)" fill="#fff" stroke="#fff" stroke-width="1"/>
</svg>
