<svg xmlns="http://www.w3.org/2000/svg" viewBox="0 0 1656 1135">
  <defs/>
  <g fill="#fff" data-name="Gruppe 588">
    <path d="M1494 133z" data-name="Pfad 856"/>
    <path d="M1650 384a24 24 0 000-11c-1-1-1-3-3-3a4 4 0 01-3-2 29 29 0 00-3-6c-3-3-2-9 2-11h2c4-1 5-3 3-7-3-4-2-8 2-12s6-9 6-15a5 5 0 00-2-3l-6-12a45 45 0 00-4-9 6 6 0 00-5-2h-11-2c-1 3-3 1-5 1-6 0-11-2-18-1a90 90 0 01-14 0l-7-2a9 9 0 00-3 0h-12a3 3 0 01-1 0l-14-2c-6 2-13 1-19 0l-24-2 18 1 16 2a9 9 0 001 0l3-1c0-2-2-1-3-2a2 2 0 01-1-1 14 14 0 016-1c4 0 6-1 7-4a2 2 0 000-1l-1-2a3 3 0 00-1 0 3 3 0 00-1-1h-10l12-1a8 8 0 005-1h6l2-1a7 7 0 001 0 23 23 0 017 3 8 8 0 008-1c0-2 3-2 4-3 0-1-2-3 1-3a2 2 0 001-1 3 3 0 000-3 3 3 0 00-1-1 2 2 0 00-1-1h-3c2 0 3-1 3-3a17 17 0 011-11l3-12c0-4 3-9 4-13l1-14c-1-3-1-4-4-5s-5-8-3-11c2-1 2-2 1-3a4 4 0 012-6c4-3 4-8 5-12a38 38 0 013-13 23 23 0 002-6c0-2 0-5-2-7-2-1-3-5-6-6v-2c-1-3-2-4-6-4l-11 3a29 29 0 01-5 1 244 244 0 01-36-2c-7-1-13-3-20-3a5 5 0 01-2-1c-4-2-7-1-11 1-3 1-7 2-10 0-7 0-13-3-19-2-2 0-4 0-6-2h-5c-3 0-6 1-8-1a2 2 0 00-1-1c-7 2-14-2-20-2a4 4 0 01-3 0c-3-2-5-1-8-1l-6-1-4-1c-3 0-6 1-9-1a1 1 0 00-1-1c-6 1-11 0-16-1-3-1-6 0-9-2h-6a6 6 0 01-6-1 5 5 0 00-4-1 20 20 0 01-3 1c-3 0-4-1-3-4a13 13 0 001-4 4 4 0 00-3-3 5 5 0 00-2 0c-3 0-5 1-7-1h-3a3 3 0 01-4 0c-1-2-4-1-6-2a65 65 0 00-10 0 7 7 0 01-4 0 6 6 0 00-3-1h-13a74 74 0 00-13-1 40 40 0 00-5 0 9 9 0 01-1 0h-2 1l1-1-1-1a10 10 0 01-3 0 14 14 0 00-3-1h2a4 4 0 001 0l9-3a19 19 0 004-2 2 2 0 001-1c-1-1-3-1-3-3l-11-1a34 34 0 0111 0l8-2h5a17 17 0 004 1 6 6 0 015 1 4 4 0 001 1h6l2-2-1-1a11 11 0 002 0 2 2 0 002-2 2 2 0 00-2-2l-2-1a9 9 0 001 1h1a15 15 0 013 0h13l1-1a3 3 0 001 0 3 3 0 000-1 3 3 0 001-1 2 2 0 00-1-2 2 2 0 00-1 0l-5-1h4l10-2a16 16 0 006-2c1-1 2-2 1-3-3-2-6-2-9-2a8 8 0 01-4 0 6 6 0 00-1-1 2 2 0 00-1-1 5 5 0 00-1 0l11 1c2 0 3-1 3-3a3 3 0 00-3-3 3 3 0 00-1 0 13 13 0 01-1 0l3-1h1a3 3 0 001-1l6-6a3 3 0 000-4 3 3 0 00-2 0h-1a23 23 0 01-5-1 18 18 0 0010-1 12 12 0 002-8 4 4 0 00-1-2c-3-3-4-6-5-9l-6-12a6 6 0 00-6-3h-37l-23 2c-12 1-24 4-36 4-6-1-12 0-18-2a11 11 0 00-4 0c-3 0-6 1-8-1h-13a3 3 0 00-1-1h-16l-9-1a2 2 0 00-1 0c-6 1-11-1-17-1a22 22 0 01-7-1 10 10 0 00-5 0l-8-1h-3l-9-1h-5l-21-1h-17l-21-1h-18l-20-1h-19l-20-1-20-1-19-1a29 29 0 00-3 0h-35l-58-1h-90l-67-1a4 4 0 01-3 0h-1a18 18 0 01-7 0h-45l-57 1h-90l-42 2-34 2a169 169 0 00-33 5l-39 7-37 7-4 2a6 6 0 00-4 3c-2 3-4 4-8 4l-22 2-16 1c-4 1-8 3-9 8-2 3-4 4-7 4a69 69 0 00-12 2 8 8 0 00-6 4l-3 7a15 15 0 01-6 6c-3 2-4 6-4 10a39 39 0 001 10c1 2 2 3 4 2a40 40 0 016-2c1 0 3-1 2-2 0-2-1-2-3-2 4-1 4 0 7 3 1 2 3 2 5 1 2-2 4-1 7 0h6c1-1 2 0 2 1 0 3 0 5 3 6v3a5 5 0 003 5 4 4 0 011 4c0 3 1 3 3 3q6 0 7-5c8 1 17-1 26 1l-3 1a96 96 0 01-11 2h-12c-2 0-4 0-4 2 0 3-2 3-4 3-4 0-7 2-11 3-2 1 0 4 0 6 0 1 1 2 3 2h4l-7 1c-2 0-4 1-4 3s1 2 3 3h2a9 9 0 016 1 6 6 0 004-1 5 5 0 013 0h1a1 1 0 01-1 1c-4 2-8 4-12 1a3 3 0 00-2 0h-30c-2 0-3 0-3 2-1 2 1 3 2 3a3 3 0 002 0c-2 1-3 2-2 4l-1 2c-3 2-4 10-2 12l4 2 11-1a39 39 0 0111 2l-7-1c-5 1-10 0-15 2-2 0-3 1-3 3s0 4 3 4l5 1c8-1 17 1 25 1l20 1 2-1a52 52 0 01-7 1l-8 5c1 2 5 3 7 2a26 26 0 003-1h9a5 5 0 001 0h1a1 1 0 011 1c0 2 1 4 3 3l5 1a6 6 0 012-1 7 7 0 00-2 1 1 1 0 001 1 29 29 0 01-4 0 5 5 0 00-2 0h-20l-3 1h-1a5 5 0 00-1 0 3 3 0 00-2 1 3 3 0 001 3l3 1h27a42 42 0 018 0h16-15a3 3 0 00-1 0 3 3 0 00-1 1 6 6 0 01-4 1h-12l-10-1a20 20 0 01-8 1 2 2 0 00-1 0c-1 2-3 2-6 1l-3-1a3 3 0 00-1 0h-2a11 11 0 00-11-1 2 2 0 01-2 0c-2-2-4-2-6-1-3 0-4 2-4 5v7c-2 4-1 6 4 6l16-1h8l6-1a3 3 0 012 0c3 2 6 1 9 1s6-1 8 1a10 10 0 003 1c2-1 4-3 6-2a26 26 0 005 1 4 4 0 00-2 0l2 5 9 3h-1c-2-1-3-1-4 1 0 1-2 0-3 2l-2 1a2 2 0 002 2c6-1 11 1 17 1 3 1 5-2 6-5l13-2a6 6 0 002-1l2-2a2 2 0 00-1-1c3 0 6 0 9 2a4 4 0 002 0l13 1a63 63 0 00-12 0c-2 1-3 1-2 4l3 3c2 2 5 1 8 1a8 8 0 013 1 3 3 0 001 0h2a11 11 0 00-2 1 3 3 0 00-1 0l-1 2a2 2 0 001 1 22 22 0 01-5 0l-11-1h-3l-15 1a16 16 0 00-4 0h-17c-2 0-4 0-6 2l-2 1-11-1-11 1h1l1-1a10 10 0 00-7-3l-23 1a39 39 0 01-10 0 15 15 0 00-7 0c-5 2-11 2-16 2l-23 2-21 2-26 1-19 2a30 30 0 00-12 3 12 12 0 01-5 1l-12 1c-4 1-8 4-13 4a2 2 0 00-2 2c1 2 2 2 3 2a47 47 0 0011 0 97 97 0 0126 2l-13 2-34 2-14-1c-3-1-6 0-7 3l-4 6c-2 4-6 8-11 8-4 1-7 3-9 7s-5 9-10 12l-1 3v19a21 21 0 01-1 9v2l2 4c0 2 0 4 2 5l1 4c-6 14-5 29-4 43 0 9 3 17 6 26v13c-1 13-1 25 4 37a24 24 0 002 3 4 4 0 010 5v8a15 15 0 012 6c0 5 3 6 7 7 3 1 5 3 6 5a36 36 0 006 9c1 2 4 3 7 3 4 0 6 1 8 4v1c2 5 6 8 12 9 0 4-1 8-3 9-3 1-4 3-4 6l1 19 4 18c0 5 1 11 3 15a29 29 0 011 15l2 4h-2a2 2 0 00-1 1 5 5 0 00-1 2 6 6 0 000 3 3 3 0 000 1 2 2 0 001 1c2 0 0 2 1 3 1 3 3 2 4 5a7 7 0 008 0 20 20 0 016-2 6 6 0 001 0h3c2 0 4-2 6 0a6 6 0 005 2h12l-10 1a2 2 0 00-1 1 4 4 0 00-1 1l-2 2a3 3 0 000 1c2 4 4 6 8 5a11 11 0 016 1 2 2 0 01-1 2c-1 1-3 0-3 3 0 2 2 1 3 1a6 6 0 001 0l16-2 18-1-25 2c-6 1-12 3-18 0l-14 2H77l-3 1-8 2H52c-6-1-12 1-17 2-2 0-4 2-6-1l-2-1H17c-2 0-4 1-5 3a67 67 0 00-4 11l-7 16a9 9 0 00-1 5c0 8 2 15 6 20s4 10 2 15-1 8 3 9a14 14 0 011 1c4 2 6 10 3 14a42 42 0 00-3 7l-3 4c-2 0-3 2-3 4a42 42 0 00-1 14c1 10 4 19 7 28 2 11 4 22 0 34-2 4-1 6 2 9a11 11 0 003 1c3 0 3 2 3 5-2 10-5 19-10 26-2 4-2 5-1 9l2 4c1 4 2 7 0 11-2 3-1 5 2 5h18c8 4 17 4 25 3 9-2 17-1 26 0a90 90 0 00-13 0 75 75 0 00-18 3c-2 0-5 1-6 4-2 2-1 4 1 5 4 1 9 2 13 1 8-1 16 1 24 1 2 0 4-2 6-1h20a15 15 0 00-3 0l-2 1a3 3 0 00-1 0c-3 0-5 0-7 3a3 3 0 01-2 1 4 4 0 00-2 3 2 2 0 001 1c2 3 4 2 6 1l7-1h8c-1 2 0 4 1 5a3 3 0 001 0c2 0 4-1 5 2a3 3 0 001 0 3 3 0 00-1 0 11 11 0 01-2 0h-1a3 3 0 00-1 0 9 9 0 01-2 1h-10c-4 0-8-1-12 2-2 1-3 3-1 5h12c9 1 18-1 27-1a6 6 0 00-2 1 8 8 0 00-2 0 5 5 0 00-1 1v1c-2 1-3-1-4-2a2 2 0 00-1 1c-2 2-5 2-7 0a3 3 0 00-1 0l-1 1-4 1h-8a6 6 0 00-1 0l-10 1h-9c-4 1-7 0-11 2 0-3-1-4-2-4-3 0-7-1-9 3h-4c-3-3-3-3-6 1 0 2-3 2-2 4-2-3-4-2-5-2a2 2 0 00-1 0 2 2 0 00-1 2 2 2 0 001 3c1 0 2 0 2 2 1 3 2 2 4 2a2 2 0 00-1 1c-1 2-2 3-1 5l3 1c4 2 9-2 13 3l2-1a20 20 0 014 0l21-3h9a17 17 0 0010 0c1-1 3-1 5 1h5c1-2 3-1 5-1l11-1h1l13-1 2-1 1 1a5 5 0 001 0c-4 1-4 1-3 6l-1 1c-3 1-6 5-10 4a4 4 0 00-2 1c-1 0-2 0-2 2l2 2a10 10 0 004 1c7 0 14-2 21-5a46 46 0 017-2 3 3 0 002-2 2 2 0 00-1-3l7 1c3 3 7 2 11 2a15 15 0 018 1 19 19 0 008 3l42 4 42 5 21 2 25 3c4 0 5 1 6 7 2 10 2 19-1 29-1 3-1 5 1 7a14 14 0 004 2c3 1 4 3 3 7-2 10-5 19-10 26-2 3-2 6-1 9l3 4c1 6 1 9-3 13a18 18 0 01-7 3 17 17 0 00-8 7c-4 6-4 9 1 13 3 4 5 8 4 14-1 3 0 5 3 7a28 28 0 0017 6c15 1 30 0 44-1a5 5 0 002 0c6-3 12-2 18-3s13-3 19-2a3 3 0 001 0l18-3 20-2c4-1 9 0 13-2l18-1c66 0 133-2 199 0l50 2 51 1 47 2 44 1 49 2 41 2 51 1 46 2 44 1h99l33 1 107-1c13 0 26 0 39-3a4 4 0 011 0c7 0 13-3 19-2a4 4 0 002 0c5-2 12-1 17-3l10-1a88 88 0 0118-3c5 0 9-3 11-9a42 42 0 002-4 16 16 0 018-9l3-2c3-2 4-4 4-7 0-6 1-10 6-11 2-1 4-2 5-5a139 139 0 013-14 13 13 0 00-1-7c-1-4 0-6 1-10 4-10 5-21 5-32 0-5-4-8-8-6a10 10 0 01-7 1c-2 0-4-1-5-4 2 0 4 2 7 1 1-1 2-3 5-1a3 3 0 002 0l1-1c2 0 3-1 3-4s-2-3-3-3l-9-1 5-1c2 0 4-1 4-4 0-2 0-6-3-7-4 0-7-3-11-3-1 0-2-1-2-3a8 8 0 00-1-3 5 5 0 004 1c2 0 4-1 3-4a5 5 0 011-6l2-2a20 20 0 014-12v-5c0-1 0-3 2-1 1 2 3 2 5 1a69 69 0 0111-5l17-1c3 0 6 1 8-5l-1-4a20 20 0 016 5 2 2 0 000 1 6 6 0 005 1c4-2 7-1 11-2l23-2c6-1 10-5 13-13 0 0 0 1 0 0 1-4 4-6 8-6 3 1 5-1 7-4a51 51 0 005-11c2-4 3-6 7-7 3-1 7-3 7-9a25 25 0 011-8 16 16 0 000-11 8 8 0 011-6 37 37 0 002-5c5-15 4-32 4-48v-18c3-11 6-22 6-33 0-20 1-39-4-58-1-2-1-3 1-5l2-7c0-2 0-4 2-5v-2a36 36 0 01-2-13c1-8 2-16 1-25l-2-4c-5-4-8-9-10-16-1-5-4-8-8-8-6-1-9-6-12-12l-3-7c-1-4-4-5-7-5a114 114 0 01-14 2c-12 0-23-2-34-3-5 0-9-2-14-3a74 74 0 0126-1 36 36 0 0012-1c1 0 2 0 2-2a2 2 0 00-2-3c-4 0-8-4-12-5l-12-2a10 10 0 01-5-1 24 24 0 00-12-4l-20-2-25-2-21-2-23-3c-6 0-11 0-17-2a11 11 0 00-6-1 29 29 0 01-11 0l-22-1c-3 0-5 1-7 4l1 1h1l-11-1-11 1-3-1c-1-3-3-2-5-3h-17a12 12 0 00-4 0c-5 1-10 0-15-1l-4-1a10 10 0 01-3 1l5-1 24-3 21-1 43-4 41-3a23 23 0 009-2 19 19 0 018-1c4 0 7 1 11-1l7-1-1 2a2 2 0 002 2 57 57 0 017 1c7 2 13 4 20 4a13 13 0 005-1l2-2-2-1a6 6 0 00-2 0c-4 0-7-3-10-3l-1-2c0-3 1-4-3-4a6 6 0 001 0h3l12 1h13l5 1h4a3 3 0 001 0c1-2 3-1 5-1a23 23 0 0010 0l9 1 21 1a26 26 0 013 1h3c4-3 8 0 13-1 1-1 2 0 3-2 1-1-1-2-1-3a2 2 0 00-1-1 2 2 0 00-1 0c2 0 4 1 5-2l2-1 1-2a2 2 0 00-2-2c-2 0-4 0-5 2 1-2-2-2-2-3-3-3-4-3-7-1a2 2 0 01-3 0c-3-3-6-3-9-2-2 0-3 1-2 2l-11-1h-9l-11-1a8 8 0 00-1 0h-11l-1-1a2 2 0 00-1 0 4 4 0 00-1 0c-2 1-4 2-6 0a2 2 0 00-1-1c-2 1-3 2-4 1h-1a4 4 0 000-1 10 10 0 00-3 0 8 8 0 00-1 0h39c1-2 1-3-1-4-4-2-8-1-13-1h-10a11 11 0 01-1-1 4 4 0 00-1 0 19 19 0 00-2 0 14 14 0 01-2 0 4 4 0 00-1 0 4 4 0 001 0c2-2 4-2 6-1a4 4 0 001 0l1-4h7c3-1 5 1 8 1 2 0 4 1 6-1a2 2 0 000-1 3 3 0 00-1-2 3 3 0 01-3-1c-1-2-4-2-6-3a4 4 0 00-2 1l-2-1a20 20 0 00-2 0h20c2-1 4 1 6 1 8 0 15-2 23-1l14-1c2 0 2-2 1-4l-6-3a98 98 0 00-19-2 118 118 0 00-12 0h26c8 1 17 1 25-2h17c3 0 4-2 3-4-2-3-2-5 0-8l1-3c2-3 2-4 0-7-6-6-8-12-10-19-1-3 0-4 3-5a13 13 0 002-1c4-1 5-3 3-6-4-9-3-17 0-26l6-21zM1321 75h11a86 86 0 01-11 0zm19-16a4 4 0 01-1 0h1zm-9 5a27 27 0 01-6-1 29 29 0 006 1zM239 159a6 6 0 012 0h-2zm47 20h1a7 7 0 00-2 0zm-2 4a17 17 0 013-1l-3 1zm3-4zm14 26a5 5 0 002 0h-13 11zm-4 8a2 2 0 000-1c0-2 1-1 2-1a24 24 0 003 0 22 22 0 01-5 2zM114 909a44 44 0 005-1 17 17 0 01-5 1zm9 17a3 3 0 001 0h-1zm1 0h2a15 15 0 01-2 0zm4-1h2-2zm-82 19zm1 0l3 1a8 8 0 001 0 6 6 0 01-4-1zm7 1a11 11 0 00-1 0 8 8 0 001 0 3 3 0 013 0c2 1 1 2 2 3a2 2 0 000 1 21 21 0 01-5-4zm6 4a29 29 0 003 0 6 6 0 01-3 0zm3 0a28 28 0 004 0 26 26 0 01-4 0zm72-17a54 54 0 009-1 48 48 0 01-9 1zm1351 35a8 8 0 002 5 4 4 0 00-3 0c-8 3-16 0-25-2l-1-2 27-1zM1252 98h-1a9 9 0 01-1 0h2zM364 225h-7 7zm1245 297zm0 1a7 7 0 01-5 0h5zm-11 1a3 3 0 013-1 10 10 0 002 0h-1a22 22 0 01-6 3 2 2 0 001 0l1-2zm-2 2a8 8 0 01-3 0h3zm-3 0a34 34 0 01-4 0h4zm-82-13h7a44 44 0 01-7 0zm19-4h2-1-1zm2 0zm5-14l5 1a22 22 0 01-5-1z" data-name="Pfad 857"/>
  </g>
</svg>
