<?xml version="1.0" encoding="utf-8"?>
<svg xmlns="http://www.w3.org/2000/svg" width="18" height="23.411" viewBox="0 0 18 23.411">
  <path id="Pfad_850" data-name="Pfad 850" d="M460.024,255.468c-2.039,1.288-3.38,1.5-4.829,2.415-1.739,1.1-3.987,2.8-5.634,4.024a5.609,5.609,0,0,0-1.61,2.415,1.514,1.514,0,0,0,0,1.61,1.789,1.789,0,0,0,2.415.8c.382-.161,1.259.208,1.61,0,3.46-2.026,6.27-4.3,9.658-6.439,4.525-2.855,4.122-8.036-.8-10.463-1.849-.909-3.81-1.459-5.634-2.415-1.634-.859-3.264-2.239-4.829-3.219s-2.5-.859-3.219,0-.307,3.279.8,4.024c2.12,1.419,4.193,2.791,6.439,4.024C456.008,253.14,457.627,254.287,460.024,255.468Z" transform="translate(-446.79 -243.509)" fill="#fff"/>
</svg>
