<?xml version="1.0" encoding="utf-8"?>
<svg xmlns="http://www.w3.org/2000/svg" width="55" height="55" viewBox="0 0 55 55">
  <g id="Gruppe_587" data-name="Gruppe 587" transform="translate(439 439)">
    <path id="Pfad_851" data-name="Pfad 851" d="M-405.3-439h1.483a1.18,1.18,0,0,0,.279.12c1.24.183,2.483.346,3.721.539a19.872,19.872,0,0,0,4.364.31c.492-.032.982-.1,1.474-.12a15.117,15.117,0,0,1,4.9.879,15.618,15.618,0,0,0,3.7.5.52.52,0,0,1,.564.465c.073.527.118,1.059.2,1.585a18.647,18.647,0,0,1,.348,2.126c.082,2.327.137,4.656.116,6.983-.005.583-.059,1.172-.048,1.762a10.725,10.725,0,0,1-.33,4.333,3.783,3.783,0,0,0-.02,1.985c.182,1.268.293,2.547.43,3.822.044.411.081.823.121,1.234v2.136a1.493,1.493,0,0,0-.051.229c-.086,1.26-.15,2.522-.261,3.779-.08.911-.218,1.818-.338,2.725a4.212,4.212,0,0,0,.018,2.542,5.209,5.209,0,0,1,.267,2.159c.007.394.021.788.062,1.18.067.637.157,1.271.24,1.906.014.105.042.208.063.312v1.483a4.247,4.247,0,0,0-.061.435c-.062,1.53-.116,3.059-.184,4.589a1.105,1.105,0,0,1-.134.475c-.176.315-.39.609-.577.918-.173.286-.326.585-.5.872a.531.531,0,0,1-.495.252c-.817.018-1.636.036-2.449.108-1.167.1-2.331.252-3.5.385-.352.04-.7.088-1.055.136-.761.1-1.522.213-2.284.308-.831.1-1.663.208-2.5.289-1.149.111-2.3.224-3.45.293-1.212.073-2.428.069-3.639.15a18.531,18.531,0,0,0-1.9.3,11.935,11.935,0,0,1-1.414.257c-1.608.078-3.217.112-4.826.169a1.159,1.159,0,0,0-.3.093h-1.483a1.922,1.922,0,0,0-.25-.124c-.315-.1-.636-.19-.947-.3a6.847,6.847,0,0,0-1.073-.4c-.892-.154-1.793-.281-2.7-.348-1.576-.117-3.156-.179-4.734-.268-.641-.036-1.282-.077-1.921-.131-1.219-.1-2.44-.2-3.656-.334a12.493,12.493,0,0,1-2.207-.382,6.517,6.517,0,0,0-2.607-.131,3.144,3.144,0,0,1-3.106-1.278,2.541,2.541,0,0,1-.451-1.169c-.112-1.119-.154-2.247-.2-3.372s-.022-2.275-.081-3.409a41.872,41.872,0,0,1-.034-5.479,8.1,8.1,0,0,1,.45-2.876,1.256,1.256,0,0,0-.308-1.611c-.1-.081-.116-.266-.145-.408-.108-.529-.2-1.06-.305-1.59v-.949c.014-.025.041-.05.042-.076.019-.838.035-1.677.053-2.515.008-.362,0-.726.034-1.086.039-.421.152-.837.165-1.257.018-.592-.032-1.185-.044-1.778a47.849,47.849,0,0,1,.129-5.772c.035-.347.016-.717.355-.964a.376.376,0,0,0,.094-.273c0-1,.055-2-.048-2.988a25.288,25.288,0,0,1-.294-3.358c.025-.83.082-1.658.111-2.488.05-1.431.079-2.864.138-4.295a7.066,7.066,0,0,1,.17-1.072,4.44,4.44,0,0,0,.16-.53c.026-.414.343-.56.62-.75.128-.088.252-.18.381-.266.021-.014.058,0,.088,0,.81-.009,1.62-.005,2.429-.03,2.963-.091,5.925-.2,8.887-.286,1.738-.051,3.477-.09,5.216-.107,1.917-.018,3.835-.023,5.753,0,.9.013,1.792.147,2.69.171,1.156.031,2.313,0,3.47.011a3.253,3.253,0,0,0,1.245-.2c.329-.129.682-.193,1.023-.29C-405.855-438.836-405.578-438.919-405.3-439Z" fill="#002e6d"/>
  </g>
</svg>

