<?xml version="1.0" encoding="utf-8"?>
<svg xmlns="http://www.w3.org/2000/svg" width="18" height="22.409" viewBox="0 0 18 22.409">
  <path id="Pfad_849" data-name="Pfad 849" d="M451.654,254.956c1.951,1.233,3.235,1.434,4.622,2.311,1.664,1.055,3.046,2.683,4.622,3.852a7.455,7.455,0,0,1,2.311,2.311,1.449,1.449,0,0,1,0,1.541,1.712,1.712,0,0,1-2.311.77c-.365-.154-1.2.2-1.541,0-3.312-1.939-6.772-4.12-10.015-6.163-4.332-2.733-3.946-7.692.77-10.015,1.77-.87,3.647-1.4,5.393-2.311,1.564-.822,3.125-2.143,4.622-3.082s3.168-.823,3.852,0,.293,3.139-.77,3.852c-2.03,1.358-4.013,2.672-6.163,3.852C455.5,252.728,453.948,253.826,451.654,254.956Z" transform="translate(-446.321 -243.509)" fill="#fff"/>
</svg>
