<?xml version="1.0" encoding="utf-8"?>
<svg xmlns="http://www.w3.org/2000/svg" width="597.688" height="403.393" viewBox="0 0 597.688 403.393">
  <path id="Pfad_712" data-name="Pfad 712" d="M404.427,227.427h.447a4.064,4.064,0,0,0,2.7,0h3.149c.346.367.727.174,1.093.174,4.007.02,8.018-.114,12.024.04,6.843.267,13.69.14,20.538.2,3.69.027,7.392-.047,11.082.013,7.18.113,14.361.013,21.537.154,5.088.1,10.151.982,15.231,1.389,4.072.321,8.127,1.082,12.2,1.242a38.479,38.479,0,0,1,12,2.591c4.742,1.776,9.529,3.192,14.3,4.728,4.368,1.409,8.712,3.038,13.105,4.247.553.147,1.089.454,1.638.654a2.6,2.6,0,0,1,1.589,2.09c.467,1.983,1.345,2.638,2.637,2.678a56.872,56.872,0,0,1,8.054.921c1.894.341,3.8.26,5.693.842,1.686.521,2.942,1.623,3.531,4.4.386,1.81,1.146,2.671,2.381,2.731a15.876,15.876,0,0,1,4.21,1.115,3.743,3.743,0,0,1,2.137,2.718c.447,1.422.841,2.885,1.349,4.247a8.71,8.71,0,0,0,1.938,3.285c1.386,1.322,1.751,3.493,1.731,5.823a38.567,38.567,0,0,1-.61,6.177c-.232,1.342-.687,1.743-1.516,1.349a10.851,10.851,0,0,0-1.922-.988c-.561-.14-1.04-.675-.987-1.69.061-1.122.638-1.2,1.2-1.122-1.28-.194-1.487-.033-2.3,1.863-.48,1.122-1.134,1.576-1.829.788a1.689,1.689,0,0,0-2.65-.18c-.727.574-1.426,1.015-2.219.154-.459-.494-.736.04-.7.795.065,1.529-.11,2.791-1,3.593-.349.314-.284.915-.236,1.5a4.189,4.189,0,0,1-.776,3.072,3.609,3.609,0,0,0-.65,2.725c.089,1.389-.232,1.876-1.085,1.8q-1.92-.17-2.292-3.239c-3.1.454-6.242-.334-9.379.534.1.775.471.835.772.922a22.023,22.023,0,0,0,3.995.935c1.556.127,3.088.654,4.653.047.52-.2,1.15.073,1.219,1.149.11,1.7.768,1.917,1.581,1.9,1.4-.033,2.572,1.2,3.791,2.017.914.6.24,2.217.2,3.346-.028.888-.553,1.242-1.093,1.222-.463-.02-.943-.334-1.528.274a7.393,7.393,0,0,0,2.678.454c.67.1,1.211.354,1.317,1.556.106,1.222-.435,1.549-1.032,1.743-.219.067-.4.32-.622.414a2.209,2.209,0,0,0-2.2.441,1.447,1.447,0,0,1-1.731-.3,1.313,1.313,0,0,0-.853-.407c-.183.013-.4.013-.427.414a.626.626,0,0,0,.26.554c1.447,1.022,2.9,1.957,4.454.514.276-.254.6-.448.857-.267,1.378.975,2.792.073,4.186.32a35.11,35.11,0,0,0,6.542.1c.524,0,1.15-.16,1.207,1.062a1.838,1.838,0,0,1-.967,1.964.6.6,0,0,1-.573-.067,2.705,2.705,0,0,1,.8,2.424,1.418,1.418,0,0,0,.37,1.215c.89,1.215,1.28,5.576.642,7.072a1.351,1.351,0,0,1-1.394.935c-1.414.02-2.82-.247-4.242-.214a8.784,8.784,0,0,0-3.97.741c-.61.307-1.272-.06-1.768.194a21.861,21.861,0,0,1,4.372-.2c1.857.194,3.739-.274,5.567.681a1.75,1.75,0,0,1,1.117,1.91c-.053,1.222-.159,2.538-1.154,2.751a6.043,6.043,0,0,1-1.772.421c-3.072-.334-6.1.821-9.155.835-2.458.013-4.933.448-7.372.1a16.307,16.307,0,0,0-4.194-.247c1.877-.922,3.995.568,6.165.734,1.028.08,2.02,1.382,2.828,2.685-.415,1.275-1.674,1.943-2.613,1.356a8.847,8.847,0,0,1-.979-.788c-.1-.047-.2-.094-.3-.134-.983-.12-1.93.414-2.9.5a1.174,1.174,0,0,1-.3-.08c-.1-.02-.2-.04-.293-.053-.272-.033-.455.147-.532.588-.028,1.289-.333,2.057-1.215,1.89-.573-.107-1.073.688-1.666.434a3.257,3.257,0,0,0-1.67-1.476c-.089,0-.183-.007-.276-.007-.146-.053.041.067-.11.067-.081-.007-.061,0,.061,0a2.206,2.206,0,0,1,1.926,1.336,1.006,1.006,0,0,1-.362,1.035.739.739,0,0,1-.3.107,3.732,3.732,0,0,0-1.353-.134,6.479,6.479,0,0,0,3.186-.434,1.15,1.15,0,0,1,.878.073c2.341.808,4.681.133,7.026.013.431-.06.78.441,1.2.488l.313.067a1.362,1.362,0,0,1,.463.274,1.12,1.12,0,0,1,.427.461,2.553,2.553,0,0,1-.106,1.69,1.176,1.176,0,0,1-1.248.614c-3.239.04-6.477.214-9.716.04a9.141,9.141,0,0,0-2.987.02,30.654,30.654,0,0,1-5.856-.013c1.78.107,3.56.207,5.336.18.1.013.2.033.293.047a.59.59,0,0,1,.293.087,1.078,1.078,0,0,1,.268.227,1.657,1.657,0,0,0,1.422.848c1.463-.127,2.93.013,4.4-.08,1.187-.16,2.377-.22,3.556-.494a4.547,4.547,0,0,0,3.031.407.625.625,0,0,1,.333.147c.557,1.269,1.288,1.255,2.085.741a2.658,2.658,0,0,0,.293-.154c.354-.274.792-.013,1.122-.468a1.025,1.025,0,0,1,.272-.254,5.511,5.511,0,0,1,.764-.254,2.757,2.757,0,0,1,3.734-.514.518.518,0,0,0,.744-.1,1.982,1.982,0,0,1,2.268-.447c1.117.267,1.593,1.042,1.569,2.918a9.94,9.94,0,0,1-.187,3.245c-.163.468.073.654.163.962.695,2.391.142,3.887-1.475,3.706-1.93-.214-3.865-.214-5.795-.474a20.905,20.905,0,0,0-2.893-.06c-.78,0-1.548.267-2.3-.347a.591.591,0,0,0-.768.047c-1.081.875-2.186.534-3.3.267-.947-.133-1.938-.561-2.658,1a2.134,2.134,0,0,1-1.138.067c-.7-.521-1.349-1.336-2.194-.988a10.539,10.539,0,0,1-4.714.294c-1.105-.06-2.194-.628-3.32-.18a1.242,1.242,0,0,1-1.13-.287c.057.027.122.047.15.06,1.955,1.175,3.95.24,5.9.5.691.094,1.422-.327,2.036.534.085,1.062-.524,1.7-.614,2.651-1.321.574-2.5,1.957-3.962,1.723-.52-.08-1.032-.067-1-1.222.024-.9-.358-.594-.61-.614-.585-.04-1.219.327-1.483-.28,1.085,1.1,2.394,2.417,4.043,2.077.54-.107.971-.274,1.256.888.175.735.943.24,1.325.895.219.374.675.454.6,1.162-.073.654-.439.881-.78.828-2-.307-3.921.648-5.884.868-1.394.241-1.93-1.222-2.272-3.072a27.328,27.328,0,0,0-4.909-1.536c-.26-.04-.532.067-.772-.14a1.45,1.45,0,0,1-.565-1.422c.089-.708.4-1,.841-.882.3.074.6-.007.764.06-1.443.027-3.052-.407-4.494,1.149a.938.938,0,0,1-.764.227c-1.707-.027-3.422-.254-4.633.461a13.726,13.726,0,0,1,4.251.407c.634.2,1.069.654.813,1.9a22.065,22.065,0,0,0-1.081,1.943c-.8,1.329-1.869.815-2.82,1.022a2.125,2.125,0,0,0-1.154.454.619.619,0,0,1-.309.113c-.24.06-.488-.3-.752.074.284.154.581.114.829.361a1.067,1.067,0,0,1,.293.247,1.208,1.208,0,0,1,.24,1.209.638.638,0,0,1-.451.354,77.373,77.373,0,0,0-12.1-.788,57.979,57.979,0,0,1,6.185.16c1.288.14,2.576.207,3.865.307,1.373.1,2.735.6,4.12.187,1.252-.367,2.552.073,3.779-.708.4-.26.78.374,1.187.427a16.7,16.7,0,0,0,5.34.24,3.5,3.5,0,0,1,1.678-.074c1.975.6,3.962.22,5.941.3.772.033,1.577-.274,2.109,1.115.154.4.557.24.849.307,1.3-.194,2.621.26,3.909-.32,1.422-.147,2.8.614,4.182.534h-.012c-.134,0-.228-.007-.333-.013-.232-.067-.427-.16-.423-.634a2.95,2.95,0,0,1,2.4-1.589c2.755.468,5.535.08,8.294.547a8.464,8.464,0,0,0,3.7-.187,3.3,3.3,0,0,1,2.43.381c1.947,1.015,3.982.982,6,1.155,2.727.227,5.441.715,8.164,1.049,2.609.327,5.214.775,7.827,1.008,3.06.274,6.116.768,9.176,1.008,2.316.18,4.612.781,6.933.868a7.712,7.712,0,0,1,4.494,1.97,2.926,2.926,0,0,0,1.638.521c1.455.22,2.889.688,4.344.908,1.613.247,2.962,1.97,4.576,2.291.354.067.74.5.707,1.235a.939.939,0,0,1-.821,1.008,10.364,10.364,0,0,1-4.247.247,21.4,21.4,0,0,0-9.391.748c1.646.347,3.263,1.028,4.9,1.249,4.1.548,8.184,1.443,12.317,1.249a32.947,32.947,0,0,0,5.031-.628c1.2-.247,2.113.167,2.7,2.1.349,1.149.723,2.291,1.118,3.406.951,2.731,2.182,4.828,4.23,5.169,1.467.247,2.41,1.516,3.011,3.807.776,2.958,1.825,5.67,3.625,7.312a2.992,2.992,0,0,1,.573,1.883c.459,3.82-.1,7.579-.207,11.366a20.644,20.644,0,0,0,.508,5.95V422a4.617,4.617,0,0,0-.581,2.678,4.979,4.979,0,0,1-.918,3.206,2.312,2.312,0,0,0-.293,2.137c2.1,8.541,1.638,17.456,1.487,26.344a75.657,75.657,0,0,1-2.056,15.206c-.585,2.658-.219,5.463-.13,8.214.244,7.513.264,14.992-1.5,22.151a20.149,20.149,0,0,1-.638,2.15,4.3,4.3,0,0,0-.142,2.8,8.974,8.974,0,0,1-.065,4.989,13.883,13.883,0,0,0-.614,3.526c.012,2.791-1.166,3.833-2.446,4.234-1.26.394-1.869,1.509-2.316,3.245a26.45,26.45,0,0,1-1.926,4.955c-.691,1.436-1.516,2.357-2.69,2.11-1.317-.28-2.251.548-2.775,2.578-.057.221,0-.067-.053.16-.89,3.539-2.54,5.1-4.819,5.589-2.735.581-5.486.748-8.221,1.229-1.292.234-2.609-.02-3.893.628a1.672,1.672,0,0,1-1.764-.22,1.04,1.04,0,0,1-.26-.341,8.472,8.472,0,0,0-1.869-2.3c.325.447.3.815.053,1.77-.626,2.458-1.784,2-2.893,1.97a13.93,13.93,0,0,0-5.876.788,22.124,22.124,0,0,0-4.011,2.01c-.727.494-1.361.661-1.963-.3-.5-.795-.646-.193-.7.5-.065.781.3,1.8-.028,2.337a10.847,10.847,0,0,0-1.443,5.416,1.617,1.617,0,0,1-.61,1.028,2.611,2.611,0,0,0-.54,2.538c.337,1.4-.118,1.777-.833,1.877-1.3.187-2.288-1.042-2.418-3-3.235.187-6.473.073-9.728.12.049.822.329.955.573,1.029,2.966.915,5.909,2.2,8.977,1.109,1.032-.367,1.361.06,1.447,1.8.045.942.39,1.249.792,1.209,1.406-.147,2.568,1.189,3.881,1.61,1.2.38.935,1.87.91,3.2-.024,1.362-.536,1.75-1.26,1.823a4.021,4.021,0,0,0-1.979.347c1.219.521,2.235.067,3.231.394.577.187,1.142.147,1.256,1.349.13,1.362-.451,1.636-1.073,1.85-.106.033-.2.174-.3.254a.846.846,0,0,1-.987.1c-.752-.634-1.268-.047-1.792.708-.837.494-1.581-.387-2.528-.548.488,1.4,1.2,1.8,1.9,1.923a3.015,3.015,0,0,0,2.731-.654c1.239-1.088,2.926.494,2.922,2.8a51.886,51.886,0,0,1-1.9,14.852,7.4,7.4,0,0,0-.268,4.207,7.567,7.567,0,0,1,.073,3.265c-.419,2.171-.9,4.288-1.142,6.551a2.505,2.505,0,0,1-1.711,2.143c-1.573.741-2.113,2.585-2.182,4.975-.041,1.5-.333,2.571-1.231,3.159-.447.294-.853.768-1.3,1.1a6.989,6.989,0,0,0-2.637,4.067c-.187.735-.48,1.382-.727,2.07-.967,2.7-2.259,3.86-4.287,4.007a25.563,25.563,0,0,0-6.3,1.109c-1.191.4-2.4.254-3.548.641-2.133.728-4.336.267-6.437,1.235a1.037,1.037,0,0,1-.557.114c-2.3-.334-4.519,1.008-6.807.821a1.272,1.272,0,0,0-.447.06c-4.669,1.5-9.4,1.456-14.129,1.6-12.959.407-25.922.107-38.885.167-3.885.02-7.77-.08-11.655-.107-6.022-.047-12.045-.167-18.063-.053-5.994.114-11.984-.114-17.974-.241-5.315-.12-10.631-.254-15.946-.461-5.571-.214-11.143-.574-16.718-.708-6.136-.154-12.276-.414-18.408-.728-4.9-.254-9.806-.367-14.7-.7-5.986-.4-11.976-.474-17.957-.775-5.315-.26-10.626-.527-15.938-.721-5.612-.207-11.22-.621-16.836-.768-6.209-.153-12.423-.454-18.632-.715-5.949-.247-11.9-.547-17.848-.728-24.089-.728-48.179-.147-72.264-.234a17.365,17.365,0,0,0-6.583.848,17.97,17.97,0,0,1-4.669.681c-2.381.274-4.763.748-7.132,1.109-2.138.32-4.332.214-6.437,1.155a.9.9,0,0,1-.443.114c-2.369-.3-4.7.534-7.022.961-2.178.4-4.413.127-6.551,1.169a1.48,1.48,0,0,1-.557.114c-5.271.36-10.541.755-15.816.621a8.825,8.825,0,0,1-6.412-2.858,3.507,3.507,0,0,1-.975-3.466,6.743,6.743,0,0,0-1.54-5.977c-1.865-2.137-1.9-3.473-.341-6.284a6.385,6.385,0,0,1,3.044-2.958,6.344,6.344,0,0,0,2.487-1.663c1.308-1.489,1.589-3.225.894-5.589-.215-.721-.492-1.382-.752-2.057a4.513,4.513,0,0,1,.183-4.02,37.455,37.455,0,0,0,3.58-11.78c.362-2.244.159-2.771-1.2-3.526a4.876,4.876,0,0,1-1.126-.815,3.035,3.035,0,0,1-.622-3.272,30.5,30.5,0,0,0,.5-13.343c-.362-2.431-.853-2.932-2.353-3.132-2.942-.407-5.892-.755-8.83-1.275-2.528-.447-5.08-.5-7.611-.915-5.1-.835-10.212-1.5-15.32-2.124-5.039-.621-10.058-1.589-15.1-2.017a5.87,5.87,0,0,1-3.019-1.2,4.419,4.419,0,0,0-2.958-.748c-1.337.094-2.641.441-3.946-.641-.784-.648-1.776-.147-2.593-.387a.946.946,0,0,1,.48,1.008c-.061.695-.366,1.055-.768,1.155a14.132,14.132,0,0,0-2.519.942c-2.442,1.162-4.9,2.2-7.473,2.137a2.98,2.98,0,0,1-1.658-.4,1.042,1.042,0,0,1-.646-1.075c.041-.668.427-.754.756-.9a1.261,1.261,0,0,1,.776-.154c1.378.34,2.357-1.342,3.56-1.87.2-.087.325-.494.435-.788-.374-2.277-.374-2.277,1.463-2.865a1.454,1.454,0,0,1-.866.14,2.757,2.757,0,0,0-.317-.087c-.284,0-.524.274-.8.307a42.205,42.205,0,0,1-4.482.347,2.553,2.553,0,0,1-.325-.034,37.467,37.467,0,0,1-4.234.4c-.609-.053-1.191-.194-1.764.508-.443.541-1.061.187-1.605.214a.75.75,0,0,1-.3-.114c-.5-1.115-1.162-.835-1.825-.608a5.062,5.062,0,0,1-3.45.02c-1.162-.421-2.312.134-3.442.361-2.519.514-5.063.394-7.579.948a6.115,6.115,0,0,0-1.211.347c-.289.127-.646.407-.874.114-1.439-1.863-3.137-.4-4.669-1.028-.39-.16-.821-.02-1.1-.668-.309-.861.1-1.429.3-2.077a1.322,1.322,0,0,1,.219-.361.576.576,0,0,1,.354-.147c-.032-.007.028-.047-.02-.06-.695.194-1.317.388-1.532-1.088-.089-.608-.492-.681-.788-.915a1.235,1.235,0,0,1-.471-1.275c.1-.648.427-.841.78-.788.646.094,1.313-.427,1.853.962a1.682,1.682,0,0,0,1.951.941,3.1,3.1,0,0,1,.992-.047c.987,1.055,1.959,2.2,3.243,1.836a32.524,32.524,0,0,0,3.442-.4,30.525,30.525,0,0,1-3.434.4,8.3,8.3,0,0,1-1.284-.087.8.8,0,0,1-.24-.307c-.159-.461-.065-1.155-.492-1.369a.826.826,0,0,0-1.061-.294,2.238,2.238,0,0,1-1.52.227c-.6-.16-1.422-.107-1.67-1.1-.224-.915.7-1.075.89-1.87.9-1.616,1.158-1.71,2.219-.461.488.568.906.534,1.288-.107.939-1.563,2.1-1.289,3.247-1.155.61.067.959.608.878,1.663,1.256-.828,2.568-.5,3.836-.775,1.13-.448,2.259.08,3.4.007a9.793,9.793,0,0,0,3.686-.614,1.864,1.864,0,0,1,.333-.054,13.954,13.954,0,0,1,2.694.067c.532.02,1.077.2,1.589-.227.073-.127.15-.233.228-.347a.763.763,0,0,1,.293-.214.841.841,0,0,1,.317.007c.76.741,1.516,1.128,2.264-.053a.571.571,0,0,1,.451-.2c.52.107.918,1.108,1.52.554.024-.04.061-.08.089-.134a2.211,2.211,0,0,1,.284-.42,2.575,2.575,0,0,1,.841-.374,1.946,1.946,0,0,1,.459-.12c.106-.007.207-.014.313-.014a18.9,18.9,0,0,0,4.657-.381,21.5,21.5,0,0,1-4.832.387c-3.279-.327-6.522.681-9.785.534-1.434-.06-2.893.281-4.324-.307A1.8,1.8,0,0,1,90.254,536c1.491-1.149,3.092-.768,4.657-.788.366-.007.736.007,1.1-.033.687.247,1.382.528,2.072.007.15-.013.3-.04.447-.067a2.691,2.691,0,0,0,.573-.214.926.926,0,0,1,.289-.087c.093-.007.191-.013.284-.013s.191.013.285.027a3.059,3.059,0,0,0,.7-.014.858.858,0,0,1,.414.114,2.912,2.912,0,0,0,.41.2,1.45,1.45,0,0,0,.293.027c.3.047.581-.154.878-.167.4-.013.8-.007,1.109-.007a9.176,9.176,0,0,0-2.085.167,1.133,1.133,0,0,1-.931-.554,1.345,1.345,0,0,0-2.052-.528.949.949,0,0,1-.3-.14,2.752,2.752,0,0,1-.459-2.331c-.232-.468-.48-.154-.723-.06-.642-.167-1.276.127-1.914.053-.931-.2-1.764.608-2.67.675-.8.067-1.634.474-2.312-.654a1.385,1.385,0,0,1-.1-.528,1.912,1.912,0,0,1,.638-1.235,1.241,1.241,0,0,0,.756-.681c.553-1.362,1.471-1.189,2.284-1.463a.874.874,0,0,1,.585.207c.3.147.54-.227.825-.28,1.564-.6,3.19-.134,4.515-.715a37.176,37.176,0,0,1-5.754.661c-.865-.32-1.715.107-2.576.08-.882-.033-1.739.354-2.637-.254-.65-.434-1.308.481-2.056.467-2.84-.067-5.661-.748-8.522-.354a12.192,12.192,0,0,1-4.893-.655c-.776-.22-.939-1.142-.463-2.164a3.556,3.556,0,0,1,2.337-1.977A21.933,21.933,0,0,1,81.8,521.5a25.676,25.676,0,0,1,4.474-.04,29.777,29.777,0,0,0-9.241-.18c-3.031.521-6.132.561-9.115-1.068a4.7,4.7,0,0,0-2.349-.22q-2.024-.02-4.047.013c-1.069.013-1.418-.868-.829-2.284a6.558,6.558,0,0,0,.028-4.842c-.2-.594-.435-1.155-.622-1.756a4.274,4.274,0,0,1,.329-4.147A36.743,36.743,0,0,0,63.9,495.12c.207-1.382-.053-2.27-.947-2.571A3.742,3.742,0,0,1,62,492c-1.325-.975-1.573-1.85-.959-4.047,1.443-5.142.866-10.217-.093-15.293-.821-4.347-1.914-8.561-2.284-13.109a24.457,24.457,0,0,1,.179-6.4c.171-.935.467-1.716,1.109-1.85.565-.12.845-.695,1.065-1.449a21.9,21.9,0,0,1,1.195-3.332c.931-2,.418-5.376-.979-6.471a4.589,4.589,0,0,0-.532-.3c-1.39-.815-1.886-2.064-1.126-4.167a7.385,7.385,0,0,0-.658-7.018c-1.6-2.424-2.146-5.663-2.158-9.189a4.79,4.79,0,0,1,.451-2.217,33.341,33.341,0,0,0,2.276-7.165,35.718,35.718,0,0,1,1.613-5.062c.41-.988.947-1.469,1.69-1.516,1.276-.074,2.544.167,3.82.053.256-.027.618-.067.74.281.536,1.5,1.235.621,1.9.481,2.125-.441,4.157-1.449,6.416-.881a19.715,19.715,0,0,0,5.1.287c.886-.02,1.727-1.029,2.645-1.349.4-.14.809-.434,1.207-.307,1.451.461,2.9.107,4.344.033.077,0,.154.047.223.02a15.67,15.67,0,0,1,5.214-.688c2.223.928,4.474.147,6.64-.294,2.954-.608,5.9-.541,8.851-.915-2.17.28-4.348.073-6.518.494-1.9.367-3.8.594-5.705.881a1.8,1.8,0,0,1-.329,0c-.41-.093-1.044.321-1.146-.588-.13-1.129.573-.741.939-.962a1.105,1.105,0,0,0,.378-.975,3.153,3.153,0,0,0-2.182-.421c-1.313.214-2.024-.708-2.613-2.344a1.635,1.635,0,0,1,0-.508c.15-.467.516-.561.65-1.062a1.7,1.7,0,0,1,.219-.381.882.882,0,0,1,.439-.327c1.329.013,2.629-.962,3.978-.247-1.589-.735-3.2-.394-4.8-.361a2.006,2.006,0,0,1-1.8-.788c-.662-.828-1.434-.24-2.162-.24-.3.013-.605-.06-.91-.04a1.584,1.584,0,0,1-.3-.033,6.446,6.446,0,0,0-2.333,1.309,2,2,0,0,1-3.035-.067c-.073-1.289-1.024-1.235-1.28-2.25-.293-.447.451-1.543-.394-1.636a.984.984,0,0,1-.276-.307,1.516,1.516,0,0,1-.15-.508,3.159,3.159,0,0,1,.069-1.422,2.611,2.611,0,0,1,.349-.988.93.93,0,0,1,.288-.294c1.109-.1,2.211-.407,3.251-.481a10.334,10.334,0,0,0-1.674.294c-.829.26-1.5-.12-1.613-1.75a16.711,16.711,0,0,0-.378-6.625,38.015,38.015,0,0,1-.992-7.166c-.211-2.818-1.008-5.4-1.414-8.147a49.338,49.338,0,0,1-.276-8.621c.037-1.336.345-2.384,1.313-2.811,1.126-.5,1.7-4.955.886-6.344a2.972,2.972,0,0,1-.37-2.331,3.79,3.79,0,0,0-.488-3.172c-1.434-2.043-1.63-4.928-1.784-7.66a36.039,36.039,0,0,0-1.065-7.66,21.1,21.1,0,0,1-.7-3.5,5.863,5.863,0,0,1,.687-4.047c.788-1.142,1-3.052,1.922-4.04.171-.18.138-.528.158-.835.175-2.284.638-2.9,1.987-2.478,1.43.447,2.82,1.2,4.255,1.643a6.654,6.654,0,0,0,1.772.374,53.4,53.4,0,0,0,12.983-1.269c2.41-.541,4.775-1.563,7.213-1.743a1.153,1.153,0,0,0,.654-.254c1.374-1.135,2.7-.634,4,.327,1.231.908,2.442,1.1,3.665.007.13-.12-.041-.087.1-.073,2.353.174,4.572-1.683,6.933-1.255a1.846,1.846,0,0,0,2.113-.741c.479-.641,1.065-.454,1.621-.334,1.089.227,2.17.447,3.125-.775.122-.154.284-.28.419-.234,2.463.848,4.75-1.5,7.189-1.062a1,1,0,0,0,.987-.267,2.575,2.575,0,0,1,2.926-.608,1.754,1.754,0,0,0,2.121-.728,1.163,1.163,0,0,1,1.39-.4c1.195.227,2.4.541,3.454-.808.085-.113.211-.2.317-.173,1.93.534,3.747-.574,5.616-1,1.13-.26,2.276.094,3.381-.908.626-.568,1.471-.274,2.215-.04a1.615,1.615,0,0,0,2.016-.681,1.149,1.149,0,0,1,1.386-.454,4.523,4.523,0,0,0,1.227.167c1.1-.047,1.349-.548,1.113-2.277a12.769,12.769,0,0,1-.236-2.544A2.143,2.143,0,0,1,165.7,290.9a1.235,1.235,0,0,1,.695-.147c.882.334,1.735.661,2.532-.574.284-.441.772-.14,1.138.214a.813.813,0,0,0,1.239-.207c.638-.795,1.5-.708,2.255-.781a14.163,14.163,0,0,1,3.682-.127,1.742,1.742,0,0,0,1.317-.347,1.362,1.362,0,0,1,1.2-.3c1.487.521,2.962.053,4.442,0,.15-.007-.037.047.11.007a16.461,16.461,0,0,1,4.978-.641,8.774,8.774,0,0,1,1.825.02,2.076,2.076,0,0,0,.325.114,28.875,28.875,0,0,0,5.522-.755,28.007,28.007,0,0,1,6.242-.454c.545.04,1.069-.26,1.776-.053a60.356,60.356,0,0,0-12.037,1.3,6.294,6.294,0,0,1-1.122-.04c-.264-.053-.553-.174-.536-.715.012-.514.284-.668.561-.7a2.208,2.208,0,0,0,.979-.234,3.66,3.66,0,0,1,1.166-.494c-.345-.26-.569-.04-.788-.053a.961.961,0,0,1-.484-.107c-1.118-.568-2.292-.721-3.373-1.61a6.645,6.645,0,0,1-1.459-1.222,1.51,1.51,0,0,1-.065-.507c.293-.681.853-.882,1.1-1.656,1.337-.808,2.739-.561,3.767-.674a7.426,7.426,0,0,0-3.9-.14c-1.15.26-2.085-.648-3.068-1.3-.309-.227-.561.22-.857.207-.3.027-.606.007-.906.033a3.777,3.777,0,0,1-1.422.227c-.675-.033-1.187.427-1.654,1.155a.822.822,0,0,1-.35.073,20.745,20.745,0,0,1-2.41-.04c-.26-.033-.528-.18-.54-.7a.707.707,0,0,1,.406-.694c.02,0,.065-.02.061-.04a2.4,2.4,0,0,1-.829-.053c-.394-.127-.561-.581-.577-1.189s.122-1.1.508-1.262a9.131,9.131,0,0,0,1.463-.6,2.166,2.166,0,0,1-1.195.381c-.11-.007-.215-.013-.321-.013a3.545,3.545,0,0,0-.809.227c-.9.387-1.841-.387-2.735.254-.646-.307-1.349.14-1.983-.341-.134-.1-.272-.2-.406-.314-.045-.027-.085-.073-.13-.1a1.106,1.106,0,0,1-.26-.254,1.524,1.524,0,0,1-.228-.354,2.243,2.243,0,0,1-.167-.755,2.084,2.084,0,0,1,.069-.541,1.333,1.333,0,0,1,.219-.421.622.622,0,0,1,.313-.174c.857.294,1.544-.855,2.381-.761a18.86,18.86,0,0,0,7.25-.695c-3.052.982-6.132.795-9.208.641-1.252-.467-2.524-.708-3.779-1.089a4.3,4.3,0,0,1-1.983-1.082,1.641,1.641,0,0,1-.394-1.937,3.941,3.941,0,0,1,3.3-.928,1.963,1.963,0,0,0,1.5-.481,2.741,2.741,0,0,1,.211-.274,1.137,1.137,0,0,1,.228-.22.618.618,0,0,1,.252-.147,1.261,1.261,0,0,1,.272-.06c.1,0,.191-.007.289-.007,1.719-.06,3.446.167,5.128-.634-1.8.828-3.641.588-5.482.648a8.265,8.265,0,0,0-3.852.16c-.666.107-1.211-.24-1.178-1.576.028-1.2.622-2.1,1.361-1.863,1.15.381,2.292-.04,3.422.127a5.643,5.643,0,0,1,.727.1,9.14,9.14,0,0,0-3.162.04.58.58,0,0,1-.3.02c-.435-.38-.792-1.028-1.333-1.055l-.321-.047a.964.964,0,0,1-.427-.407c-.711-1.142-1.207-2.578-1.91-3.746a2.289,2.289,0,0,1-.163-2.157.758.758,0,0,1,.63-.327l.325-.06a5.4,5.4,0,0,0,1.959-.534,4,4,0,0,1-3.779-.194,11.069,11.069,0,0,1-.691-4.768,3.117,3.117,0,0,1,.431-1.636,17.6,17.6,0,0,0,2-5.289,66.252,66.252,0,0,1,1.983-7.025c.52-1.362,1.138-2.017,2.2-1.923,4.454.4,8.9-.414,13.361-.334,2.82.053,5.579.962,8.371,1.4,4.316.688,8.595,2.5,12.931,2.177,2.162-.16,4.4.381,6.534-.8a2.337,2.337,0,0,1,1.674-.107,2.733,2.733,0,0,0,2.84-.508c.264-.267.585-.074.882-.04a5.37,5.37,0,0,0,3.67-.414.732.732,0,0,1,.553-.127c1.947.508,3.86-.207,5.787-.427,1.081-.127,2.178.074,3.218-.594a.387.387,0,0,1,.333-.067c2.068.728,4.08-.5,6.124-.474a5.034,5.034,0,0,0,2.666-.514,2.133,2.133,0,0,1,1.67-.06,2.743,2.743,0,0,0,2.845-.521c.354-.334.727-.14,1.1-.107a5.461,5.461,0,0,0,3.45-.354c.561-.321,1.113.093,1.67.06,2.58-.147,5.157-.441,7.729-.481,1.979-.027,3.942-.454,5.917-.3,2.588.2,5.157-.427,7.741-.461,2.162-.027,4.32-.4,6.486-.274a64.049,64.049,0,0,0,7.4-.481,61.007,61.007,0,0,1,6.717-.267c2.4.12,4.783-.341,7.176-.454,2.426-.114,4.848-.327,7.278-.354a63.039,63.039,0,0,0,6.811-.407,6.4,6.4,0,0,1,1.118-.174c4.307.22,8.6-.434,12.91-.414,6.892.033,13.784-.134,20.676-.24,5.86-.094,11.72.053,17.575-.174,5.116-.2,10.232,0,15.348-.16,8.046-.247,16.092-.127,24.134-.174C403.842,227.607,404.155,227.734,404.427,227.427Z" transform="translate(-56.752 -227.427)" fill="#fff"/>
</svg>

