<?xml version="1.0" encoding="utf-8"?>
<svg xmlns="http://www.w3.org/2000/svg" width="13.177" height="15.419" viewBox="0 0 13.177 15.419">
  <path id="Pfad_829" data-name="Pfad 829" d="M583.393,251.246c-1.492.957-2.585,1.669-3.691,2.366-1.678,1.057-3.395,2.057-5.032,3.173a14.83,14.83,0,0,0-1.859,1.782,1.725,1.725,0,0,0,2.328,1.126,6.016,6.016,0,0,0,1.348-.5c2.645-1.655,5.194-3.473,7.919-4.98,2.538-1.4,1.725-4.931-.354-6.315-.7-.463-1.489-.78-2.232-1.175-1.317-.7-2.609-1.443-3.953-2.084a1.979,1.979,0,0,0-1.462-.155,1.233,1.233,0,0,0-.542,1.717,4.528,4.528,0,0,0,1.464,1.746c1.268.79,2.667,1.37,4,2.061C581.893,250.3,582.424,250.663,583.393,251.246Z" transform="translate(-572.812 -244.403)" fill="#002e6d"/>
</svg>
