<svg xmlns="http://www.w3.org/2000/svg" width="43.109" height="45.376" viewBox="0 0 43.109 45.376">
  <g transform="translate(-603.368 -4670.658)">
    <path id="Pfad_781" data-name="Pfad 781" d="M645.769,4913.034c-2.3-.666-17.339-1.84-25.474-13.927s-1.108-20.982-1.108-20.982,6.635-11.442,19.763-10.4,19.092,8.5,20.313,14.564-3.089,15.07-5.36,16.818-8.157,7.36-8.134,9.582S645.769,4913.034,645.769,4913.034Z" transform="translate(-13 -197)" fill="#b8d8ea"/>
    <path id="Pfad_771" data-name="Pfad 771" d="M134.8,11.545a5.586,5.586,0,0,0,4.082-1.691,5.586,5.586,0,0,0,1.691-4.081,5.586,5.586,0,0,0-1.691-4.082,5.771,5.771,0,0,0-8.163,0,5.586,5.586,0,0,0-1.691,4.081,5.586,5.586,0,0,0,1.691,4.082A5.588,5.588,0,0,0,134.8,11.545Zm-3.088-8.861a4.367,4.367,0,0,1,6.177,0,4.173,4.173,0,0,1,1.28,3.088,4.173,4.173,0,0,1-1.28,3.088,4.366,4.366,0,0,1-6.177,0,4.172,4.172,0,0,1-1.28-3.088A4.173,4.173,0,0,1,131.716,2.684Z" transform="translate(490.329 4678.063)" fill="#fff"/>
    <path id="Pfad_772" data-name="Pfad 772" d="M61.948,254.168a14.26,14.26,0,0,0-.194-1.514,11.922,11.922,0,0,0-.372-1.523,7.518,7.518,0,0,0-.626-1.42,5.351,5.351,0,0,0-.944-1.23,4.162,4.162,0,0,0-1.356-.852,4.685,4.685,0,0,0-1.731-.313,1.757,1.757,0,0,0-.938.4c-.281.183-.61.4-.977.63a5.6,5.6,0,0,1-1.265.557,4.912,4.912,0,0,1-3.094,0,5.583,5.583,0,0,1-1.264-.557c-.364-.232-.693-.445-.978-.631a1.755,1.755,0,0,0-.938-.4,4.68,4.68,0,0,0-1.731.314,4.159,4.159,0,0,0-1.356.852,5.355,5.355,0,0,0-.944,1.23,7.538,7.538,0,0,0-.626,1.42,11.96,11.96,0,0,0-.372,1.522,14.161,14.161,0,0,0-.194,1.515c-.032.458-.048.934-.048,1.415a3.98,3.98,0,0,0,1.182,3.011,4.255,4.255,0,0,0,3.046,1.111h11.54a4.255,4.255,0,0,0,3.046-1.111A3.978,3.978,0,0,0,62,255.584C62,255.1,61.98,254.625,61.948,254.168Zm-2.1,3.409a2.864,2.864,0,0,1-2.077.724H46.228a2.864,2.864,0,0,1-2.077-.724,2.6,2.6,0,0,1-.746-1.993c0-.449.015-.893.044-1.318a12.771,12.771,0,0,1,.176-1.364,10.549,10.549,0,0,1,.327-1.342,6.136,6.136,0,0,1,.509-1.155,3.967,3.967,0,0,1,.694-.909,2.761,2.761,0,0,1,.9-.561,3.231,3.231,0,0,1,1.106-.213c.049.026.137.076.279.169.289.188.622.4.989.638a6.956,6.956,0,0,0,1.587.709,6.314,6.314,0,0,0,3.958,0,6.967,6.967,0,0,0,1.588-.71c.376-.241.7-.449.989-.637.142-.092.229-.142.279-.169a3.233,3.233,0,0,1,1.106.213,2.765,2.765,0,0,1,.9.561,3.957,3.957,0,0,1,.694.909,6.111,6.111,0,0,1,.51,1.154,10.525,10.525,0,0,1,.328,1.342,12.879,12.879,0,0,1,.176,1.364h0c.03.424.045.867.045,1.318A2.6,2.6,0,0,1,59.846,257.578Z" transform="translate(573.285 4442.324)" fill="#fff"/>
  </g>
</svg>
