<svg xmlns="http://www.w3.org/2000/svg" preserveAspectRatio="none" width="676.739" height="415.015" viewBox="0 0 676.739 415.015"><g transform="translate(-705.229 -1709.613)"><path d="M60.552,417.265a7.966,7.966,0,0,1-3.473-.694c-1-.519-1.607-1.562-2.6-2.083-.088-.157,0,.159,0,0,.013-2.466-1.5-5.216-1.736-7.639-.228-2.352.094-4.586,0-6.944-.225-5.5-.627-11.165-.868-16.667-.255-5.852-.5-11.516-.868-17.361-.665-10.642-.528-21.3-.868-31.944-.1-3.231-.769-6.493-.868-9.722-.107-3.581.15-6.838,0-10.417-.212-4.979-.662-10.3-.868-15.278-.249-5.94-.689-12.116-.868-18.055-.174-5.678.1-10.987,0-16.667-.078-4.634.038-9.255,0-13.889-.021-2.884.043-6.146,0-9.028-.072-4.9-.836-9.69-.868-14.583-.038-5.581.292-11.1,0-16.667-.225-4.282.059-8.222,0-12.5a100.757,100.757,0,0,1,0-10.417c.276-2.959.766-5.361.868-8.333.115-3.405-.166-7.012,0-10.417.075-1.572-.072-3.292,0-4.861.193-4.1.67-8.4.868-12.5.241-4.973.354-9.628.868-14.583.263-2.532.659-5.117.868-7.639.316-3.827.488-7.982.868-11.806.182-1.827-.2-3.039,0-4.861.533-4.867,1.321-9.712,1.736-14.583.386-4.529.638-9.35.868-13.889a12.638,12.638,0,0,1,0-1.389c.292-1.992.667-4.252.868-6.25.5-4.962,1.286-9.619,1.736-14.583.188-2.088.7-4.159.868-6.25.07-.86,0-1.8,0-2.778-.694-.118-1.993-.677-2.6-.694-2.512-.064-4.431.011-6.946,0A9.612,9.612,0,0,1,42.319,49.9a14.094,14.094,0,0,0-1.736-.694c-.469-1.795.383-3.182.868-4.861.295-1.019.528-2.462.868-3.472A7.354,7.354,0,0,1,44.056,38.1a30.909,30.909,0,0,0,2.6-2.778c1.533.069,2.834.551,4.341.694a51.659,51.659,0,0,0,7.814,0c4.029-.2,8.118-.624,12.155-.694.874-.015,1.736.047,2.6,0,6.981-.392,13.862-.124,20.837,0,4.354.077,8.672.6,13.023.694a25.736,25.736,0,0,1,2.6,0c3.686.6,6.711-.051,10.419,0,5.134.071,10.5-.019,15.628,0,.11,0,.761-.015.868,0,2.6.412,5.208.03,7.814,0,6.994-.079,13.843.011,20.837,0,4.7-.009,9.192.011,13.892,0,10.713-.028,21.412.034,32.124,0,5.675-.017,11.692-.009,17.364,0,6.112.011,12.12-.043,18.233,0,7.426.054,14.282-.069,21.706,0,2.614.024,5.2.626,7.814.694,2.292.06,4.654-.064,6.946,0,2.6.073,5.2-.407,7.814,0a56.184,56.184,0,0,0,6.946.694c1.306.032,3.036-.051,4.341,0,2.823.111,4.988-.021,7.814,0,2.619.019,5.206.42,7.814.694,1.933.2,4.115-.028,6.078,0,5.453.077,11.068.293,16.5.694,2.279.169,4.656.624,6.946.694,1.3.041,2.189-.382,3.473,0a10.476,10.476,0,0,0,2.6,0,79.6,79.6,0,0,1,11.287.694,27.2,27.2,0,0,0,3.473,0c2.82.107,5.867.508,8.682.694,5.531.367,11-.131,16.5.694a13.549,13.549,0,0,0,2.6,0,104.272,104.272,0,0,1,11.287.694c.863.064,1.741-.006,2.6,0,6.876.054,13.985.315,20.837.694,1.2.066,2.275.617,3.473.694,2.268.148,4.721-.682,6.946,0a5.608,5.608,0,0,0,1.736,0c4.37-.028,8.686.969,13.023,1.389,2.34.225,4.576-.259,6.946,0,5.316.581,11.156.6,16.5.694,2.064.039,4.013.529,6.078.694,2.247.178,4.745-.354,6.946,0,4.086.658,8.094-.03,12.155.694a4.2,4.2,0,0,0,.868,0c3.056-.337,5.632.75,8.682.694a39.615,39.615,0,0,1,4.341,0c.432.036,1.3-.011,1.736,0,5.654.146,10.832.705,16.5.694,2.7,0,5.98.54,8.682.694.217.011-.214.011,0,0,3.721-.2,7.587.062,11.287,0,2.094-.036,4.032.581,6.077.694,5.008.281,10.62-.028,15.628,0,1.091.006,1.514-.006,2.6,0,5.788.034,11.579-.1,17.365,0,3.595.06,7.735.3,11.287.694a22.715,22.715,0,0,1,6.078,1.389c.759.309.844.611,1.736.694.863.081,1.747.7,2.6.694,4.836-.013,9.985.981,14.76,1.389,5.855.5,11.483,1.048,17.364,1.389,5.547.319,10.963.936,16.5,1.389,2.389.2,5.436.448,7.814.694,5.179.536,9.65,1.241,14.76,2.083a12.387,12.387,0,0,1,2.6.694c3.019,1.175,6.411,2.194,9.55,3.472-1.3.845-2.43,1.95-3.473,2.778-1.078.858-2.5,1.856-3.473,2.778,0,3.521.016,6.924,0,10.417-.005,1.4.123,2.775,0,4.167-.244,2.7-.552,4.946-.868,7.639-.273,2.333-.565,5.306-.868,7.639-.046.347.089.354,0,.694-1.574,6.152-2.883,12.581-4.341,18.75-1.153,4.882-2.824,9.622-3.473,14.583-.748,5.727-1.728,10.95-2.6,16.667-.649,4.231-.82,9-1.736,13.194-1.094,5-1.822,9.566-2.6,14.583-.81,5.187-1.423,10.749-1.736,15.972-.161,2.691-.531,5.647-.868,8.333-.316,2.513-.573,4.429-.868,6.944-.212,1.825-.64,3.733-.868,5.556-.236,1.9-.63,3.654-.868,5.556-.37,2.955-.528,6.073-.868,9.028a30.022,30.022,0,0,0,0,3.472,36.316,36.316,0,0,1-.868,7.639,13.164,13.164,0,0,0,0,4.167c.335,4.312-1.383,8.934-1.736,13.194-.319,3.836-.745,7.271-.868,11.111a48.163,48.163,0,0,0,0,6.25c.137,1.336-.555,2.8-.868,4.167a4.635,4.635,0,0,0,0,1.389,8.434,8.434,0,0,1-.868,5.556,1.272,1.272,0,0,0,0,1.389c.654.761.123,1.314,0,2.083-.257,1.621.1,3.277-.868,4.861-.284.467-.027,1.474,0,2.083.078,1.9.378,3.729-.868,5.556a3.275,3.275,0,0,0,0,3.472c.4.671.193.681,0,1.389a17.289,17.289,0,0,0,0,3.472,51.371,51.371,0,0,1-.868,6.25c-.375,2.5-.7,4.427-.868,6.944-.062.956.552,1.86,0,2.778-.26.433-.973,1.594-.868,2.083a16.341,16.341,0,0,1,0,6.25c-.279,1.632.072,3.206,0,4.861-.051,1.119.2,1.826-.868,2.778-.123.112-.93.574-.868.694.89,1.756.3,3.868,0,5.556-.346,1.977-.6,3.581-.868,5.555-.37,2.775.247,5.548,0,8.333-.129,1.465-.935,2.64-.868,4.167.1,2.243-.694,4.7-.868,6.944-.169,2.178.166,4.074,0,6.25a26.293,26.293,0,0,0,0,3.472,35.021,35.021,0,0,1-.868,9.722,19,19,0,0,0,0,5.556,28.54,28.54,0,0,1-.868,7.639c-.222,1.049-1.15,2.406-.868,3.472a19.353,19.353,0,0,1,.868,2.778c3.332,1.45,6.213,2.715,9.55,4.167-.335.33-.831.514-.868.694a4.307,4.307,0,0,1-2.6,3.472c-.453,1.7-2.258,2.269-3.473,3.472a13.842,13.842,0,0,1-5.209,2.083c-4.592.663-9.374-.291-13.892-.694-6.935-.62-13.894-.859-20.837-1.389-5.531-.422-10.968-.936-16.5-1.389-3.147-.257-6.4-.469-9.551-.694-.434-.032-.466.1-.868,0-3.8-.961-8.263-1.082-12.155-1.389s-7.416-.216-11.287-.694c-5.067-.626-10.556-.615-15.628-1.389-5.013-.765-10.521-1.016-15.628-1.389-3.263-.238-6.288-.452-9.55-.694-1.3-.1-2.17.069-3.473,0-7.946-.418-16.372-.9-24.31-1.389-5.879-.362-11.493-.964-17.364-1.389-3.472-.251-6.966-.358-10.419-.694-5.852-.568-11.5-.272-17.364-.694-4.665-.339-9.216-.435-13.892-.694-3.472-.191-6.952-.444-10.419-.694-.761-.054-1.843-.647-2.6-.694-5.11-.326-10.518-.373-15.628-.694-.761-.047-.975.036-1.736,0-6.2-.3-12.884-.624-19.1-.694a104.727,104.727,0,0,1-11.287-.694c-1.861-.217-4.22.3-6.078,0a34.9,34.9,0,0,0-5.209,0,37.592,37.592,0,0,1-4.341,0c-2.911-.375-5.733-.98-8.682-.694a53.245,53.245,0,0,1-6.946,0c-3.7-.172-7.582-.613-11.287-.694-5.351-.118-10.274,0-15.628,0-24.052-.006-48.01-.019-72.063,0-6.222,0-12.881-.111-19.1,0-5.783.1-11.6.862-17.364.694-4.622-.133-8.471.439-13.023.694-4.032.225-8.153-.3-12.155,0-6.544.5-13.425.546-19.969.694-7.072.161-13.771.435-20.837.694-2.724.1-5.961.551-8.682.694-4.785.253-9.106.422-13.892.694-4.464.253-9.428.437-13.892.694-3.917.227-7.376.429-11.287.694-.544.036-1.192-.028-1.736,0-7.844.4-15.6.947-23.442,1.389-3.7.206-7.6.358-11.287.694C62.764,415.454,62.742,415.513,60.552,417.265ZM64.893,399.9c4.466-.126,8.782.191,13.023,0,5.437-.247,11.062-1.082,16.5-1.389,3.053-.172,5.666-.33,8.682-.694,4.766-.577,9.977-.4,14.76-.694,4.571-.281,9.326-.36,13.892-.694,6.083-.446,12.131-.544,18.233-.694,3.059-.075,5.623.1,8.682,0,3.925-.126,8.23-.549,12.155-.694,4.8-.178,9.958-.542,14.76-.694,5.126-.161,9.634.154,14.76,0,5.662-.169,11.7-.516,17.364-.694,3.056-.094,5.626.1,8.682,0,2.836-.09,5.843-.656,8.682-.694,5.131-.071,10.5.045,15.628,0,5.343-.045,10.288.017,15.628,0,4.582-.013,9.313-.03,13.892,0,1.858.013,4.22.026,6.078,0,4.9-.066,9.859.054,14.76,0,3.043-.032,5.637.006,8.682,0,2.925-.007,5.757-.735,8.682-.694,7.294.1,14.408.579,21.706.694,3.5.056,6.923-.073,10.419,0,6.665.139,14.176.5,20.837.694,2.182.062,3.9-.069,6.078,0,7.75.247,15.694.441,23.442.694,1.185.036,2.312.761,3.473.694,6.348-.358,12.8.446,19.1.694,5.651.223,10.837.422,16.5.694,4.791.232,9.974,1.1,14.76,1.389,5.761.352,11.6.364,17.364.694,6.85.392,13.122.973,19.969,1.389,5.659.345,11.705,1.031,17.364,1.389,2.935.187,5.749-.21,8.682,0,5.86.422,11.5.979,17.364,1.389,4.238.3,8.782.422,13.023.694,2.284.146,4.7.366,6.946.694,3.442.506,6.95.416,10.419.694,4.667.373,9.248.716,13.891,1.389,1.815.262,3.37.564,5.209.694,3.7.257,7.59.459,11.287.694,2.4.154,4.589-.337,6.946,0,5.265.751,11.269,1.151,16.5,2.083.206.039-.193.03,0,0a42.884,42.884,0,0,1,8.682,0c5.429.326,10.21.947,15.628,1.389.724.058,1.634.028,2.6,0v-1.389a165.823,165.823,0,0,1,.868-20.139c.223-1.823.782-3.727.868-5.556.322-7.076.573-13.757.868-20.833.019-.437-.043-.954,0-1.389.582-5.922,1.152-12.133,1.736-18.056.456-4.614.445-9.27.868-13.889.625-6.8,1.16-13.342,1.736-20.139.332-3.922.555-7.884.868-11.806.539-6.716,1.3-13.419,1.736-20.139.488-7.5,1.015-14.728,1.736-22.222.367-3.836.49-7.972.868-11.806.515-5.215,1.184-10.065,1.736-15.278.3-2.783.356-5.578.868-8.333.625-3.364.439-7.123,1.737-10.417a2.159,2.159,0,0,0,0-.694c-.324-5.266.688-10.106,1.736-15.278.121-.6-.067-1.474,0-2.083.324-2.955.517-6.075.868-9.028s1.267-5.385,1.736-8.333c.536-3.371,1.013-7.067,1.736-10.417a7.98,7.98,0,0,0,0-4.861c-.115-.3.8-.351.868-.694.643-3.362,1.066-7.057,1.736-10.417s1-6.373,1.736-9.722c.45-2.063,1.476-4.172,1.736-6.25a72.692,72.692,0,0,1,3.473-15.972c.893-2.423,1.851-4.487,2.6-6.944.987-3.221,1.481-6.532,2.6-9.722,1.1-3.116,2.586-6.461,2.6-9.722a9.672,9.672,0,0,1,0-2.083,67.243,67.243,0,0,0,2.6-13.194,12.568,12.568,0,0,0,0-2.083c-.941-.217-1.865-.815-2.6-.694-2.823.463-5.867-.086-8.682,0a59.853,59.853,0,0,1-6.078,0c-2.721-.193-5.964-.5-8.682-.694-3.48-.247-6.942-.437-10.419-.694a26.387,26.387,0,0,1-2.6-.694c-2.657-.452-5.146-.984-7.814-1.389-2.461-.375-5.377-.253-7.814-.694s-4.7-.28-6.946-1.389c-3.075-.225-5.768-1.386-8.682-2.083a28.373,28.373,0,0,0-4.341-.694c-.93-.069-1.653.568-2.6.694-1.263,1.4-3.429,1.263-5.209.694a6.531,6.531,0,0,0-1.736,0c-.979.015-1.626,0-2.6,0-3.378,0-7.046-.51-10.419,0a13.906,13.906,0,0,1-2.6,0c-2.059-.079-4.019.021-6.078,0-5.651-.058-10.883.185-16.5-.694a3.269,3.269,0,0,0-.868,0,15.287,15.287,0,0,1-5.209,0c-.973-.1-2.494.006-3.473,0-2.4-.017-4.544-.09-6.946,0-2.49.092-5.3-.643-7.814,0-.461.118-.33.058-.868,0-.753-.079-1.849-.669-2.6-.694-4.147-.142-8.011.161-12.155,0-5.335-.208-11.164-.446-16.5-.694-4.029-.189-8.129-.474-12.155-.694-7.627-.42-14.941-1.033-22.574-1.389-8.064-.375-16.265-.733-24.31-1.389-4.34-.356-8.664.193-13.023,0-4.145-.182-8.013-.514-12.155-.694-1.63-.073-3.582-.6-5.209-.694-3.482-.2-6.936.169-10.419,0-6.217-.3-12.016-1.129-18.233-1.389-.437-.019-1.3.032-1.736,0-6.407-.474-12.659-.694-19.1-.694-1.094,0-2.382.056-3.473,0-5.986-.307-12.244-.4-18.233-.694-2.493-.124-4.45-.572-6.946-.694-4.571-.221-9.318-.5-13.892-.694-5.659-.247-11.711-.381-17.364-.694-9.688-.538-18.95-.429-28.651-.694-4.257-.116-8.766-.579-13.023-.694-1.415-.039-2.926.017-4.341,0-10.922-.133-21.2-.6-32.124-.694-4.8-.039-9.958.647-14.76.694-6.12.06-12.112-.049-18.233,0-17.707.135-35.255-.077-52.962,0-5.131.021-10.494.056-15.628,0s-10.494-.109-15.628,0c-5.241.114-10.384-.131-15.628,0-4.689.118-9.195-.63-13.892-.694-5.029-.066-10.6,0-15.628,0a23.955,23.955,0,0,0-2.6,0c-.244,1.968-.67,3.744-.868,5.556a48.2,48.2,0,0,0,0,4.861c.019,2.447-.083,4.5,0,6.944a13.827,13.827,0,0,1,0,4.167c-.56,1.981.132,4.329-.868,6.25-.072.142-.038-.169,0,0,.609,2.685,1.126,5.685,0,8.333a1.273,1.273,0,0,0,0,.694,22.143,22.143,0,0,1,0,5.556c-.212,1.469-.943,2.685-.868,4.167.188,3.84.751,7.989,0,11.806-.407,2.063-.646,4.166-.868,6.25-.166,1.559-.616,3.313-.868,4.861-.2,1.209.458,2.2,0,3.472-.44,1.224.094,2.169,0,3.472-.367,5.056-.514,10.219-.868,15.278-.153,2.179-.7,4.766-.868,6.944-.078,1.042.067,1.736,0,2.778-.153,2.354-.723,4.59-.868,6.944-.247,4.01.214,8.488,0,12.5-.18,3.317-.723,6.4-.868,9.722-.083,1.921-.08,3.643,0,5.556.172,4.023-.748,8.486-.868,12.5-.1,3.394.11,6.33,0,9.722-.056,1.745-.027,3.808,0,5.556.021,1.484-.04,2.681,0,4.167.1,3.752-.011,7.359,0,11.111.005,2.519-.517,5.115,0,7.639a15.022,15.022,0,0,1,0,2.778c-.027,1.482-.04,2.687,0,4.167.067,2.444.632,5.205.868,7.639.241,2.52-.158,4.419,0,6.944.086,1.387.043,2.779,0,4.167-.078,2.532.15,5.111,0,7.639a100.251,100.251,0,0,0,0,11.806c.137,2.326.85,4.616,0,6.944a2.274,2.274,0,0,0,0,1.389c.678,1.089-.005,2.344,0,3.472.016,3.139-.22,5.9,0,9.028a29.015,29.015,0,0,0,.868,6.25,5.975,5.975,0,0,1,0,2.083,10.524,10.524,0,0,0,0,4.861,54,54,0,0,1,.868,9.028c.174,2.938-.07,6.073,0,9.028.078,3.234.019,6.489,0,9.722a4.386,4.386,0,0,0,0,1.389c.938,2.567-.177,5.044,0,7.639.131,1.906-.029,3.643,0,5.556.051,3.491.761,6.928.868,10.417.013.435-.206,1.02,0,1.389.665,1.179-.021,2.261,0,3.472.054,3.146-.021,6.577,0,9.722.005.611.664,1.515.868,2.083.8,2.239.04,3.994,0,6.25A24.561,24.561,0,0,0,64.893,399.9Z" transform="translate(663.582 1699.084) rotate(-2)" fill="#b8d8ea"/><path d="M8856.529-1838.343l245.105,6.753,163.862-2.544,190.411-2.843,6.282,17.97,3.095,164.281v77.238l10.714,99.1-105.135,9.473H9252.516l-238.255,5.794-162.826-5.871,2.4-149.876Z" transform="translate(-8127.999 3560)" fill="#008fc3"/></g></svg>